<svg preserveAspectRatio="none" width="100%" height="100%" overflow="visible" style="display: block;" viewBox="0 0 314.38 488.028" fill="none" xmlns="http://www.w3.org/2000/svg">
<g id="Group 1">
<path id="Vector" d="M109.598 210.166C110.967 209.18 112.361 208.231 113.781 207.32C139.217 190.877 170.836 188.176 200.18 194.771C226.874 200.443 253.758 212.088 254.547 243.714C254.657 248.088 252.866 254.367 255.196 257.76C259.822 256.71 264.669 255.833 269.34 254.926L270.699 254.731C273.465 254.127 278.539 252.552 280.809 254.745C281.018 257.511 274.566 258.16 272.6 258.483C273.401 261.357 275.906 265.064 277.097 268.064C291.055 303.184 287.993 344.888 272.228 378.869C267.951 388.088 255.314 401.233 245.8 404.69C244.221 406.263 240.684 409.759 238.946 410.986C229.314 417.776 215.933 421.099 204.214 421.105C201.352 421.112 198.495 420.91 195.663 420.499C195.254 420.379 193.201 420.186 192.65 420.124C184.98 418.256 181.227 416.8 175.159 411.764L174.723 410.516C173.63 406.954 172.582 403.377 171.588 399.786L171.311 398.377C170.343 395.474 169.444 392.048 168.499 389.037L168.279 387.741C163.087 389.911 147.489 390.654 141.667 390.061C141.717 390.755 141.734 391.94 141.975 392.519C142.284 396.057 142.278 397.743 141.451 401.206L140.934 402.444C138.181 407.847 135.904 409.718 130.694 412.952L129.294 413.514C124.187 415.5 118.745 416.483 113.266 416.41C93.9707 416.328 67.9702 403.545 68.1334 381.465C62.9915 373.301 62.5706 360.704 64.5144 351.475C50.0592 329.915 44.6596 304.985 47.2349 279.262C51.0204 241.446 64.1596 205.774 109.598 210.166Z" fill="var(--fill-0, #FCFCFC)"/>
<path id="Vector_2" d="M270.699 254.731C273.465 254.127 278.539 252.552 280.809 254.745C281.017 257.511 274.566 258.16 272.6 258.483C273.401 261.357 275.906 265.064 277.097 268.063C291.055 303.184 287.993 344.888 272.228 378.869C267.951 388.088 255.314 401.233 245.8 404.689C244.221 406.263 240.684 409.759 238.946 410.986C229.314 417.775 215.933 421.098 204.214 421.104C201.352 421.112 198.495 420.909 195.663 420.498C195.254 420.379 193.2 420.186 192.65 420.123C184.98 418.256 181.227 416.8 175.159 411.764L174.722 410.516C173.629 406.954 172.582 403.377 171.588 399.786L171.311 398.376C170.343 395.474 169.444 392.047 168.499 389.036L168.279 387.74C167.478 385.158 166.715 382.266 165.971 379.646L165.55 377.939C162.366 367.779 159.808 357.155 156.761 346.932C155.133 340.251 152.415 333.273 151.406 326.503C149.599 314.389 162.878 304.785 172.184 300.672C189.903 292.843 210.973 291.237 229.174 298.013C230.069 294.371 230.866 290.535 231.678 286.859L232.179 284.888C233.082 281.036 234.582 275.644 235.098 271.907L235.693 270.427C235.728 270.191 235.841 269.511 235.777 269.243C235.063 266.247 238.111 261.464 241.265 260.859L241.986 260.458C245.42 257.595 249.629 258.799 253.648 257.999L254.187 257.89L255.196 257.76C259.822 256.71 264.669 255.833 269.34 254.926L270.699 254.731Z" fill="var(--fill-0, #FCFCFC)"/>
<path id="Vector_3" d="M270.87 258.781L272.6 258.483C273.401 261.357 275.906 265.064 277.097 268.064C291.055 303.184 287.993 344.888 272.228 378.869C267.951 388.088 255.314 401.233 245.8 404.69C246.278 403.792 246.851 402.898 247.39 402.027C249.242 398.253 248.183 390.164 248.008 385.457V384.312C247.591 379.123 247.204 372.039 247.287 366.932L246.893 362.467C246.851 354.346 246.164 344.85 245.807 336.596C245.746 332.769 245.61 328.943 245.39 325.122C245.724 325.469 245.519 325.298 246.039 325.594C246.836 307.943 245.731 293.724 238.13 277.631L238.521 275.968C239.492 270.943 240.005 268.702 244.244 265.485L245.39 265.192C249.56 263.592 251.75 262.319 256.194 261.703L257.5 261.42L270.87 258.781Z" fill="var(--fill-0, black)"/>
<path id="Vector_4" d="M270.87 258.781L272.6 258.483C273.401 261.357 275.906 265.064 277.097 268.064C291.055 303.184 287.993 344.888 272.228 378.869C267.951 388.088 255.314 401.233 245.8 404.69C246.278 403.792 246.851 402.898 247.39 402.027C249.242 398.253 248.183 390.164 248.008 385.457V384.312C256.965 374.78 260.509 367.739 264.027 355.296C273.405 322.159 272.539 292.07 256.194 261.703L257.5 261.42L270.87 258.781Z" fill="var(--fill-0, black)"/>
<path id="Vector_5" d="M270.87 258.781L272.6 258.483C273.401 261.357 275.906 265.064 277.097 268.064C291.055 303.184 287.993 344.888 272.228 378.869C267.951 388.088 255.314 401.233 245.8 404.69C246.278 403.792 246.851 402.898 247.39 402.027L248.183 402.11C252.942 399.358 257.302 395.967 261.139 392.032C278.82 373.706 285.093 337.135 284.608 312.543C284.308 297.162 280.718 279.338 274.38 265.286C273.712 263.806 271.951 259.819 270.87 258.781Z" fill="var(--fill-0, #625CE3)"/>
<path id="Vector_6" d="M256.194 261.703L257.5 261.42C258.896 264.171 260.555 266.728 261.83 269.559C274.388 297.457 273.64 329.808 264.395 358.552C261.655 367.065 255.815 380.809 248.008 385.457V384.312C256.965 374.78 260.509 367.739 264.027 355.296C273.405 322.159 272.54 292.07 256.194 261.703Z" fill="var(--fill-0, #625CE3)"/>
<path id="Vector_7" d="M244.244 265.484C246.646 270.353 249.822 276.122 251.617 281.101C260.209 304.915 258.832 331.331 250.828 355.102C250.042 357.445 248.839 361.116 247.864 363.221L247.359 363.41L246.893 362.466C246.851 354.345 246.164 344.85 245.807 336.596C245.746 332.769 245.61 328.943 245.39 325.122C245.724 325.469 245.519 325.298 246.039 325.594C246.836 307.943 245.731 293.724 238.13 277.631L238.521 275.968C239.492 270.943 240.005 268.702 244.244 265.484Z" fill="var(--fill-0, black)"/>
<path id="Vector_8" d="M238.521 275.968C240.479 278.786 242.433 283.956 243.511 287.296C249.249 305.043 247.807 318.758 245.807 336.596C245.746 332.769 245.61 328.943 245.39 325.122C245.724 325.469 245.519 325.298 246.039 325.594C246.836 307.943 245.731 293.724 238.13 277.631L238.521 275.968Z" fill="var(--fill-0, #625CE3)"/>
<path id="Vector_9" d="M244.244 265.484L245.39 265.192C248.293 271.25 251.496 275.914 253.739 282.776C261.693 307.133 259.815 333.293 251.557 357.309C250.764 359.616 248.585 365.184 247.287 366.932L246.893 362.466L247.359 363.41L247.864 363.221C248.84 361.116 250.043 357.445 250.828 355.102C258.832 331.331 260.209 304.915 251.617 281.101C249.822 276.121 246.646 270.353 244.244 265.484Z" fill="var(--fill-0, #625CE3)"/>
<path id="Vector_10" d="M238.13 277.631C245.731 293.724 246.836 307.943 246.039 325.594C245.519 325.298 245.724 325.469 245.39 325.122C244.98 312.85 245.804 310.726 236.635 301.883C236.263 298.785 235.69 295.616 234.646 292.672C235.652 287.721 236.957 282.565 238.13 277.631Z" fill="var(--fill-0, black)"/>
<path id="Vector_11" d="M232.946 299.859L234.646 292.672C235.69 295.616 236.263 298.785 236.635 301.883C235.432 301.445 234.069 300.536 232.946 299.859Z" fill="var(--fill-0, #625CE3)"/>
<path id="Vector_12" d="M243.333 323.905C244.115 325.046 244.415 342.498 244.528 345.146L246.008 377.869C246.259 382.855 247.8 398.37 245.625 401.589C233.382 419.707 200.085 424.127 181.463 414.424C179.721 413.516 177.079 411.393 176.21 409.464C174.055 403.044 172.347 396.359 170.518 389.83L156.856 341.1L155.394 335.901C171.706 350.429 194.316 349.244 214.149 344.499C209.868 359.998 207.223 376.518 202.946 392.074C202.305 394.406 200.965 399.074 202.791 400.946C204.134 400.925 203.629 401.012 204.855 400.32C206.586 397.95 216.954 350.451 218.715 342.906C228.711 339.285 238.312 333.618 243.333 323.905Z" fill="var(--fill-0, #625CE3)"/>
<path id="Vector_13" d="M156.036 333.7C145.632 320.27 161.425 307.144 172.946 302.104C190.605 294.379 210.582 292.821 228.76 299.588L227.022 307.165C224.881 316.262 221.622 332.534 219.007 341.082C202.035 346.953 182.244 348.563 165.345 340.92C162.172 339.485 158.138 336.501 156.036 333.7Z" fill="var(--fill-0, #625CE3)"/>
<path id="Vector_14" d="M156.036 333.7C145.632 320.27 161.425 307.144 172.946 302.104C190.605 294.379 210.582 292.821 228.76 299.588L227.022 307.165C207.477 302.752 183.941 305.934 166.605 316.214C159.797 320.25 155.3 325.542 156.036 333.7Z" fill="var(--fill-0, black)"/>
<path id="Vector_15" d="M201.887 309.805C205.865 310.381 213.254 311.936 217.102 312.896C216.009 317.648 214.859 322.387 213.648 327.112C208.893 326.149 204.13 325.213 199.364 324.302C198.066 325.628 196.855 327.164 195.182 327.786C194.787 325.057 197.732 324.55 198.468 322.411C199.326 319.919 200.016 316.172 200.578 313.554C197.204 316.926 193.261 321.275 189.242 323.682C192.172 318.77 197.743 313.904 201.887 309.805Z" fill="var(--fill-0, #FCFCFC)"/>
<path id="Vector_16" d="M202.711 311.596L215.03 314.097C214.244 317.787 213.348 321.545 212.517 325.233C208.43 324.284 204.301 323.63 200.123 322.622C201.045 318.954 202.009 315.313 202.711 311.596Z" fill="var(--fill-0, #625CE3)"/>
<path id="Vector_17" d="M168.681 322.479C171.705 322.737 186.324 325.84 189.39 326.742L192.206 331.92C191.58 334.654 190.658 339.809 189.151 341.933L188.658 341.939C188.138 340.374 188.297 340.861 188.688 339.029L190.381 332.829C184.844 331.463 178.385 330.291 172.741 329.131C172.316 330.709 172.036 332.535 170.817 333.538L170.343 333.175C169.99 331.548 170.707 329.947 171.235 328.341C170.305 326.734 168.609 324.216 168.681 322.479Z" fill="var(--fill-0, #FCFCFC)"/>
<path id="Vector_18" d="M171.03 324.517C176.108 325.754 181.447 326.207 186.426 327.733C188.586 328.395 188.825 328.961 189.812 330.942C184.582 329.73 179.087 329.172 173.971 327.599C172.024 327 171.884 326.35 171.03 324.517Z" fill="var(--fill-0, #625CE3)"/>
<path id="Vector_19" d="M232.513 301.425C233.883 302.188 234.6 302.716 235.834 303.629L237.181 304.725C242.342 309.32 243.667 312.739 243.12 319.584C243.022 319.969 242.908 320.35 242.779 320.728C239.731 329.883 231.917 334.833 223.811 339.013L230.912 308.46L232.513 301.425Z" fill="var(--fill-0, #625CE3)"/>
<path id="Vector_20" d="M232.513 301.425C233.883 302.188 234.601 302.716 235.834 303.629L237.181 304.725L237.595 309.602L237.136 310.531C236.95 310.481 236.525 310.393 236.396 310.297C235.462 310.772 232.145 308.924 230.912 308.46L232.513 301.425Z" fill="var(--fill-0, black)"/>
<path id="Vector_21" d="M235.834 303.629L237.181 304.725L237.595 309.602L237.136 310.531C236.95 310.481 236.525 310.393 236.396 310.297L235.834 303.629Z" fill="var(--fill-0, #625CE3)"/>
<path id="Vector_22" d="M237.181 304.725C242.342 309.32 243.667 312.739 243.12 319.584C241.409 313.465 238.35 314.694 237.595 309.602L237.181 304.725Z" fill="var(--fill-0, black)"/>
<path id="Vector_23" d="M109.598 210.166C110.967 209.18 112.361 208.231 113.781 207.32C139.217 190.877 170.836 188.176 200.18 194.771C226.874 200.443 253.758 212.088 254.547 243.714C254.657 248.088 252.866 254.367 255.196 257.76L254.187 257.89L253.648 257.999C249.629 258.8 245.42 257.595 241.986 260.458L241.265 260.859C238.111 261.464 235.063 266.247 235.777 269.243C235.841 269.511 235.728 270.191 235.693 270.427L235.098 271.908C234.582 275.644 233.082 281.036 232.179 284.888L231.678 286.86C231.204 286.133 228.437 280.412 227.644 278.973C223.367 271.215 219.606 267.517 213.364 261.613C216.365 258.973 218.787 256.43 220.107 252.533C221.284 249.168 221.045 245.47 219.439 242.286C216.206 235.833 208.384 233.559 201.868 231.479C190.813 227.845 179.231 226.092 167.595 226.294C165.838 226.32 162.552 226.217 161.098 226.965L158.146 225.854C152.996 224.021 147.785 222.369 142.52 220.902C141.439 220.557 140.373 220.412 139.254 220.217C135.378 219.129 128.553 217.911 124.584 217.621C123.675 217.613 122.414 217.352 121.479 217.191C110.617 216.688 101.077 216.413 91.9214 223.12L90.4057 225.225C85.6649 225.779 77.8631 231.648 75.0935 235.526C62.7987 252.745 58.8177 283.491 61.3133 303.967C63.3763 320.89 68.9926 334.937 79.1071 348.131C76.8585 356.216 76.5204 358.761 77.4206 367.324L76.4373 367.961C72.3455 371.463 69.7516 374.338 68.4036 379.737L68.1334 381.465C62.9915 373.301 62.5706 360.704 64.5144 351.475C50.0592 329.915 44.6596 304.985 47.2349 279.262C51.0204 241.446 64.1596 205.774 109.598 210.166Z" fill="var(--fill-0, black)"/>
<path id="Vector_24" d="M124.585 217.621L124.124 217.071C125.756 215.712 130.105 213.868 132.215 212.957C147.223 206.555 163.603 204.041 179.842 205.648C194.028 206.937 206.927 210.226 220.123 215.604C234.745 221.566 242.365 234.573 240.87 250.25C240.422 254.92 237.158 257.647 241.265 260.859C238.111 261.465 235.064 266.247 235.777 269.243C235.842 269.511 235.728 270.191 235.694 270.427L235.098 271.908C234.582 275.644 233.083 281.036 232.179 284.888L231.678 286.86C231.204 286.133 228.437 280.412 227.644 278.973C223.367 271.215 219.606 267.517 213.364 261.613C216.365 258.973 218.787 256.43 220.107 252.533C221.284 249.168 221.045 245.47 219.439 242.286C216.206 235.833 208.385 233.559 201.868 231.479C190.814 227.845 179.231 226.092 167.596 226.294C165.838 226.32 162.552 226.217 161.098 226.965L158.146 225.854C152.996 224.021 147.785 222.369 142.52 220.902C141.439 220.557 140.373 220.412 139.254 220.217C135.378 219.129 128.553 217.911 124.585 217.621Z" fill="var(--fill-0, black)"/>
<path id="Vector_25" d="M142.52 220.902C145.182 219.614 151.152 218.303 154.146 217.787C172.153 214.69 190.825 217.156 208.005 223.04C216.176 225.838 224.195 229.101 228.092 237.377C231.967 245.602 230.468 253.061 226.475 260.748C229.64 264.232 232.525 267.964 235.098 271.908C234.582 275.644 233.082 281.036 232.179 284.888L231.678 286.86C231.204 286.133 228.437 280.412 227.644 278.973C223.367 271.215 219.606 267.517 213.364 261.613C216.365 258.973 218.787 256.43 220.107 252.533C221.284 249.168 221.045 245.47 219.439 242.286C216.206 235.833 208.384 233.559 201.868 231.479C190.813 227.845 179.231 226.092 167.595 226.294C165.838 226.32 162.552 226.216 161.098 226.964L158.146 225.854C152.996 224.021 147.785 222.369 142.52 220.902Z" fill="var(--fill-0, black)"/>
<path id="Vector_26" d="M158.146 225.854C173.193 222.08 200.92 227.972 214.449 235.085C224.9 240.579 223.819 254.538 215.166 261.702C222.422 267.628 228.566 276.246 232.179 284.888L231.678 286.86C231.204 286.133 228.437 280.412 227.644 278.973C223.367 271.215 219.606 267.517 213.364 261.613C216.365 258.973 218.787 256.43 220.107 252.533C221.284 249.168 221.045 245.47 219.439 242.286C216.206 235.833 208.384 233.559 201.868 231.479C190.814 227.845 179.231 226.092 167.596 226.294C165.838 226.32 162.552 226.217 161.098 226.965L158.146 225.854Z" fill="var(--fill-0, #625CE3)"/>
<path id="Vector_27" d="M139.254 220.217C141.73 219.845 144.096 218.924 146.504 218.258C150.525 217.124 154.628 216.29 158.772 215.762C175.277 213.661 192.745 216.446 208.419 221.771C212.897 223.293 217.572 225.007 221.466 227.733C232.551 235.496 234.536 249.192 227.94 260.666C231.003 263.69 233.299 266.873 235.693 270.427L235.098 271.908C232.525 267.964 229.64 264.232 226.475 260.748C230.468 253.061 231.967 245.602 228.092 237.377C224.195 229.101 216.176 225.838 208.005 223.04C190.825 217.156 172.153 214.69 154.146 217.787C151.152 218.303 145.182 219.614 142.52 220.902C141.439 220.557 140.373 220.412 139.254 220.217Z" fill="var(--fill-0, #625CE3)"/>
<path id="Vector_28" d="M109.598 210.166C110.967 209.18 112.361 208.231 113.781 207.32C139.217 190.877 170.836 188.176 200.18 194.771C226.874 200.443 253.758 212.088 254.547 243.714C254.657 248.088 252.866 254.367 255.196 257.76L254.187 257.89C253.185 256.815 252.27 256.185 252.513 254.68C254.874 240.386 251.963 226.507 242.054 215.58C235.086 207.894 227.113 204.65 217.69 201.161C184.84 189.004 138.439 188.613 109.727 211.702C97.2595 209.42 84.3958 212.192 73.9747 219.407C62.4401 227.553 57.4701 239.094 53.7043 252.149C43.8767 286.222 45.9567 321.285 65.938 351.185C63.9251 360.323 64.5213 371.151 68.4036 379.737L68.1334 381.465C62.9915 373.301 62.5706 360.704 64.5144 351.475C50.0592 329.915 44.6596 304.985 47.2349 279.262C51.0204 241.446 64.1596 205.774 109.598 210.166Z" fill="var(--fill-0, #625CE3)"/>
<path id="Vector_29" d="M77.663 348.328C71.9499 341.097 67.5075 332.946 64.5261 324.226C55.7368 298.995 58.41 266.173 69.5238 241.805C73.9063 232.196 82.1494 226.493 91.9213 223.12L90.4056 225.225C85.6648 225.779 77.863 231.648 75.0934 235.526C62.7986 252.745 58.8176 283.491 61.3132 303.967C63.3762 320.89 68.9925 334.937 79.107 348.131C76.8584 356.216 76.5203 358.761 77.4205 367.325L76.4372 367.961C74.8251 360.491 75.6626 355.457 77.663 348.328Z" fill="var(--fill-0, #625CE3)"/>
<path id="Vector_30" d="M121.479 217.191C144.991 202.668 172.973 201.171 199.398 207.474C208.654 209.681 219.667 213.085 227.675 218.127C238.98 225.25 244.544 240.053 241.705 252.942C241.333 254.635 240.43 256.836 240.612 258.46L241.986 260.458L241.265 260.859C237.158 257.647 240.422 254.92 240.87 250.25C242.365 234.573 234.745 221.566 220.123 215.604C206.927 210.225 194.028 206.937 179.842 205.648C163.603 204.041 147.223 206.554 132.215 212.957C130.105 213.867 125.756 215.711 124.124 217.071L124.585 217.621C123.675 217.613 122.415 217.352 121.479 217.191Z" fill="var(--fill-0, #625CE3)"/>
<path id="Vector_31" d="M161.098 226.965C162.552 226.217 165.838 226.32 167.595 226.294C179.231 226.092 190.813 227.845 201.868 231.479C208.384 233.559 216.206 235.833 219.439 242.286C221.045 245.47 221.284 249.168 220.107 252.533C218.787 256.43 216.365 258.973 213.364 261.613C219.606 267.517 223.367 271.215 227.644 278.973C228.437 280.412 231.204 286.133 231.678 286.86C230.866 290.535 230.069 294.371 229.174 298.014C210.973 291.238 189.903 292.843 172.184 300.672C162.878 304.785 149.599 314.39 151.406 326.503C152.415 333.273 155.133 340.251 156.761 346.932C159.808 357.155 162.366 367.78 165.55 377.94L165.971 379.647C166.715 382.266 167.478 385.158 168.279 387.741C163.087 389.911 147.489 390.654 141.667 390.061C140.192 386.437 139.103 384.263 136.918 381.034C136.68 380.834 136.104 379.952 135.888 379.644C127.595 371.173 122.829 368.611 111.81 364.627C118.227 344.722 120.974 323.97 140.325 314.559C143.509 313.011 148.404 309.442 151.607 307.413L189.295 283.594C193.512 280.935 203.587 275.192 205.891 271.627C213.641 259.651 193.861 245.115 186.271 239.9C187.975 238.036 190.051 236.363 189.223 233.667L188.407 233.331C185.474 233.706 184.707 235.353 182.806 237.722C175.838 233.396 168.609 230.186 161.098 226.965Z" fill="var(--fill-0, black)"/>
<path id="Vector_32" d="M136.918 381.034C146.591 381.97 156.491 382.025 165.971 379.647C166.715 382.266 167.478 385.158 168.279 387.741C163.087 389.911 147.489 390.654 141.667 390.061C140.192 386.437 139.103 384.263 136.918 381.034Z" fill="var(--fill-0, black)"/>
<path id="Vector_33" d="M165.55 377.94L165.971 379.647C156.491 382.025 146.591 381.97 136.917 381.034C136.68 380.834 136.103 379.952 135.888 379.644C141.216 380.144 162.119 381.269 165.55 377.94Z" fill="var(--fill-0, #625CE3)"/>
<path id="Vector_34" d="M79.107 348.131C68.9925 334.937 63.3762 320.89 61.3132 303.967C58.8176 283.491 62.7986 252.745 75.0934 235.526C77.863 231.648 85.6648 225.778 90.4056 225.225C88.7278 229.133 88.6132 231.839 90.0898 235.907L90.4462 236.894C91.5672 239.641 92.6416 242.408 93.6685 245.192L94.111 246.482C90.0792 250.497 89.0944 252.848 87.2117 258.281C77.2205 287.112 79.063 324.428 104.827 344.87C98.4267 350.145 96.9842 354.001 97.4484 362.248C96.0579 362.588 95.6845 362.707 94.2659 362.664C91.9031 362.683 90.864 362.833 88.5149 363.23C87.9384 363.342 87.4526 363.462 86.8659 363.496C83.5806 364.493 80.3924 365.542 77.4205 367.324C76.5203 358.761 76.8584 356.216 79.107 348.131Z" fill="var(--fill-0, black)"/>
<path id="Vector_35" d="M90.4462 236.894C91.5672 239.641 92.6416 242.408 93.6685 245.192L94.111 246.482C90.0792 250.497 89.0944 252.848 87.2117 258.281C77.2205 287.112 79.063 324.428 104.827 344.87C98.4267 350.145 96.9843 354.001 97.4484 362.248C96.0579 362.588 95.6845 362.707 94.2659 362.664C91.9031 362.683 90.864 362.833 88.5149 363.23C85.2201 361.06 90.1206 348.609 91.5361 345.751C70.6722 321.867 68.0009 293.067 75.4414 262.967C78.2865 251.458 80.8353 244.297 90.4462 236.894Z" fill="var(--fill-0, black)"/>
<path id="Vector_36" d="M93.6687 245.193L94.1112 246.482C90.0794 250.497 89.0946 252.849 87.2118 258.282C77.2207 287.112 79.0631 324.429 104.827 344.87C98.4269 350.145 96.9844 354.001 97.4486 362.248C96.0581 362.588 95.6846 362.708 94.266 362.664C94.6194 362.554 96.1381 362.09 96.1381 362.09C96.4459 360.487 96.1188 356.835 96.3814 355.272C97.1654 350.607 99.6808 347.968 102.701 344.782C76.7322 321.268 75.689 286.226 87.021 254.86C88.5166 250.72 90.496 248.154 93.6687 245.193Z" fill="var(--fill-0, #625CE3)"/>
<path id="Vector_37" d="M90.09 235.907L90.4464 236.894C80.8354 244.297 78.2867 251.458 75.4416 262.967C68.001 293.067 70.6724 321.867 91.5363 345.751C90.1207 348.609 85.2202 361.06 88.5151 363.23C87.9386 363.342 87.4528 363.462 86.8661 363.496C85.1527 357.604 87.4805 351.23 89.8797 345.942C86.7648 342.48 83.9792 338.734 81.5591 334.755C69.0826 314.082 67.9149 287.475 73.6602 264.503C76.5296 253.03 79.5075 242.28 90.09 235.907Z" fill="var(--fill-0, #625CE3)"/>
<path id="Vector_38" d="M104.827 344.87C79.0631 324.429 77.2206 287.112 87.2117 258.281C89.0945 252.849 90.0793 250.497 94.1111 246.482L111.375 291.614C114.357 299.449 123.135 319.303 121.665 327.023C119.423 338.793 113.911 352.49 110.253 364.228C105.541 363.143 102.163 362.925 97.4485 362.248C96.9843 354.001 98.4268 350.145 104.827 344.87Z" fill="var(--fill-0, black)"/>
<path id="Vector_39" d="M110.361 218.696C112.527 218.066 118.365 218.438 120.669 218.9C125.397 218.935 132.718 220.318 137.387 221.434L138.89 221.838C143.071 222.516 149.979 224.644 153.998 226.168C154.814 226.465 155.926 226.833 156.666 227.211C164.624 229.67 174.692 234.732 181.808 238.999L152.871 273.814C133.933 267.966 111.858 259.197 97.9045 244.522L96.9687 243.511C94.7763 241.009 93.4128 239.171 92.009 236.169L91.5562 235.124C89.8906 230.922 90.2564 226.848 93.9202 223.85C94.9687 222.901 95.3239 222.708 96.5668 222.014C101.326 219.576 105.079 219.079 110.361 218.696Z" fill="var(--fill-0, black)"/>
<path id="Vector_40" d="M110.361 218.696C112.527 218.066 118.365 218.438 120.669 218.9C125.397 218.935 132.718 220.318 137.387 221.434L138.89 221.838C143.071 222.516 149.979 224.644 153.998 226.168C136.212 232.018 131.264 232.825 117.216 247.774C111.296 242.385 104.683 240.489 96.9687 243.511C94.7763 241.009 93.4128 239.171 92.009 236.169L91.5562 235.124C89.8906 230.922 90.2564 226.848 93.9202 223.85C94.9687 222.901 95.3239 222.708 96.5668 222.014C101.326 219.576 105.079 219.079 110.361 218.696Z" fill="var(--fill-0, black)"/>
<path id="Vector_41" d="M110.361 218.696C112.527 218.066 118.365 218.438 120.669 218.9C125.397 218.935 132.718 220.318 137.387 221.434C129.839 223.975 121.431 229.926 115.626 235.351C106.751 231.709 100.634 231.377 91.5562 235.124C89.8906 230.922 90.2564 226.848 93.9202 223.85C94.9687 222.901 95.3239 222.708 96.5668 222.014C101.326 219.576 105.079 219.079 110.361 218.696Z" fill="var(--fill-0, black)"/>
<path id="Vector_42" d="M110.361 218.696C112.527 218.066 118.365 218.438 120.669 218.9C118.07 220.854 115.55 222.714 113.076 224.83C105.805 222.745 101.492 222.878 93.9202 223.85C94.9687 222.901 95.324 222.708 96.5668 222.014C101.326 219.576 105.079 219.079 110.361 218.696Z" fill="var(--fill-0, black)"/>
<path id="Vector_43" d="M110.361 218.696C112.527 218.066 118.365 218.438 120.669 218.9C118.07 220.854 115.55 222.714 113.076 224.83C105.805 222.745 101.492 222.878 93.9202 223.85C94.9687 222.901 95.324 222.708 96.5668 222.014C103.42 222.378 105.626 221.61 112.85 223.337C115.025 221.53 116.443 220.438 118.796 218.881C116.12 218.63 113.074 218.701 110.361 218.696Z" fill="var(--fill-0, #625CE3)"/>
<path id="Vector_44" d="M137.387 221.435L138.89 221.838C129.14 226.963 124.145 228.798 115.812 237.002C107.086 232.721 101.092 233.181 92.009 236.169L91.5562 235.125C100.634 231.377 106.751 231.71 115.626 235.352C121.431 229.926 129.839 223.976 137.387 221.435Z" fill="var(--fill-0, #625CE3)"/>
<path id="Vector_45" d="M153.998 226.168C154.814 226.465 155.926 226.833 156.666 227.211C139.426 230.953 129.083 235.959 117.316 249.716C111.329 243.871 106.115 241.954 97.9047 244.522L96.9688 243.511C104.683 240.489 111.296 242.385 117.216 247.774C131.264 232.825 136.212 232.018 153.998 226.168Z" fill="var(--fill-0, #625CE3)"/>
<path id="Vector_46" d="M97.0478 364.082L98.0747 364.115C102.216 364.263 105.651 364.797 109.701 365.712L107.596 372.196L107.259 373.169C106.316 376.023 105.554 378.806 103.833 381.296L102.865 382.383C100.589 384.416 98.4743 384.673 96.3146 386.712L96.408 386.649L96.4152 387.148C100.611 386.269 101.987 385.54 105.072 382.538C105.58 386.08 106.393 388.834 109.391 391.239L109.76 391.054C109.867 389.459 107.717 387.294 106.936 384.613L106.741 382.544C106.722 379.337 107.802 376.7 108.811 373.693L109.238 372.749C109.857 370.543 110.538 368.354 111.28 366.186C119.905 369.177 126.361 372.182 132.951 378.935C133.698 379.668 133.917 379.891 134.523 380.737C137.26 384.031 138.086 385.728 139.723 389.683L139.985 391.058C140.868 394.601 140.937 397.528 139.724 401.046L139.284 402.25C136.547 407.104 132.893 410.694 127.42 412.357C126.548 412.679 125.526 413.088 124.649 413.351C105.385 419.187 73.3653 407.265 69.8868 385.436C69.5088 384.249 69.6849 382.144 69.804 380.897C71.2556 375.493 72.4169 373.77 76.5019 369.946L77.9444 369.083C80.717 366.995 83.8422 366.137 87.106 365.086L88.1154 364.737C90.7579 364.667 93.8361 364.162 97.0478 364.082Z" fill="var(--fill-0, black)"/>
<path id="Vector_47" d="M76.5019 369.946L77.9444 369.083C81.0377 378.469 86.3041 385.478 95.3461 389.796C108.13 395.901 125.679 400.08 139.724 401.046L139.284 402.25C136.547 407.104 132.893 410.694 127.42 412.357C126.548 412.679 125.526 413.088 124.649 413.351C105.385 419.187 73.3653 407.265 69.8868 385.436C69.5088 384.249 69.6849 382.144 69.804 380.897C71.2556 375.493 72.4169 373.77 76.5019 369.946Z" fill="var(--fill-0, black)"/>
<path id="Vector_48" d="M69.8865 385.436C72.6952 388.847 73.8474 390.709 77.1859 393.972C87.1346 403.696 100.394 406.957 113.304 410.836C115.396 411.464 123.349 412.644 124.648 413.351C105.385 419.187 73.3651 407.265 69.8865 385.436Z" fill="var(--fill-0, black)"/>
<path id="Vector_49" d="M76.5017 369.946L77.9442 369.083C81.0375 378.469 86.3039 385.478 95.3459 389.796C108.129 395.901 125.678 400.08 139.724 401.046L139.284 402.25C135.549 402.243 126.382 400.921 122.547 400.005C108.249 396.476 91.8458 392.931 82.1574 380.86C79.3677 377.384 78.6091 372.913 76.5017 369.946Z" fill="var(--fill-0, #625CE3)"/>
<path id="Vector_50" d="M69.804 380.897C69.8621 384.697 75.308 390.289 78.081 393.025C87.5838 402.399 102.598 406.427 115.186 409.793C118.198 410.599 124.994 411.527 127.42 412.357C126.548 412.679 125.526 413.088 124.649 413.351C123.35 412.644 115.396 411.464 113.304 410.836C100.395 406.957 87.1348 403.696 77.1861 393.972C73.8476 390.709 72.6955 388.847 69.8868 385.436C69.5088 384.249 69.6849 382.144 69.804 380.897Z" fill="var(--fill-0, #625CE3)"/>
<path id="Vector_51" d="M111.28 366.186C119.905 369.177 126.361 372.182 132.951 378.935C133.698 379.668 133.917 379.891 134.523 380.737C137.26 384.031 138.086 385.728 139.723 389.683C131.139 390.405 114.805 384.56 106.741 382.544C106.722 379.337 107.802 376.7 108.811 373.693L109.238 372.749C109.857 370.543 110.538 368.354 111.28 366.186Z" fill="var(--fill-0, black)"/>
<path id="Vector_52" d="M111.28 366.186C119.905 369.177 126.361 372.182 132.951 378.935C128.358 379.246 113.785 374.293 109.238 372.749C109.857 370.543 110.538 368.354 111.28 366.186Z" fill="var(--fill-0, black)"/>
<path id="Vector_53" d="M109.238 372.749C113.785 374.293 128.358 379.246 132.951 378.935C133.698 379.668 133.917 379.891 134.523 380.737C127.331 379.536 115.28 377.165 108.811 373.693L109.238 372.749Z" fill="var(--fill-0, #625CE3)"/>
<path id="Vector_54" d="M97.0477 364.082L98.0746 364.115C102.216 364.263 105.651 364.797 109.701 365.712L107.596 372.196L107.259 373.169C106.316 376.023 105.554 378.806 103.832 381.296C103.402 381.108 102.973 380.918 102.545 380.724C94.3737 377.011 91.184 372.987 88.1153 364.737C90.7578 364.667 93.836 364.162 97.0477 364.082Z" fill="var(--fill-0, black)"/>
<path id="Vector_55" d="M98.0747 364.115C102.216 364.263 105.651 364.797 109.701 365.712L107.596 372.196C102.457 369.596 101.364 368.824 98.0747 364.115Z" fill="var(--fill-0, black)"/>
<path id="Vector_56" d="M97.0478 364.082L98.0747 364.115C101.364 368.824 102.457 369.596 107.596 372.196L107.259 373.169C102.644 371.934 98.8246 368.485 97.0478 364.082Z" fill="var(--fill-0, #625CE3)"/>
<path id="Vector_57" d="M106.741 382.544C114.805 384.56 131.139 390.405 139.723 389.683L139.985 391.058C128.702 391.006 117.899 387.197 107.444 384.076L106.936 384.613L106.741 382.544Z" fill="var(--fill-0, #625CE3)"/>
<path id="Vector_58" d="M87.1058 365.087L88.1152 364.737C91.1839 372.987 94.3736 377.011 102.545 380.724C102.972 380.918 103.402 381.108 103.832 381.296L102.865 382.383C94.3019 378.223 89.774 374.578 87.1058 365.087Z" fill="var(--fill-0, #625CE3)"/>
<path id="Vector_59" d="M185.235 241.083C210.559 258.583 217.895 278.668 178.104 278.021C172.028 277.943 163.095 276.13 157.205 274.851C165.884 264.697 177.136 251.533 185.235 241.083Z" fill="var(--fill-0, black)"/>
<path id="Vector_60" d="M116.153 273.934C126.941 273.286 137.166 276.514 146.771 281.121L143.887 284.726C141.004 283.564 138.528 283.477 135.721 284.901C133.661 285.936 132.135 287.794 131.52 290.016C130.634 293.175 131.392 295.163 132.814 297.82C130.357 296.952 121.776 292.439 120.193 293.457C122.202 296.06 128.958 297.31 131.287 299.386C130.909 300.568 130.541 301.197 130.863 302.318C131.913 303.18 131.461 302.922 132.866 303.169C134.287 302.79 134.941 301.785 135.964 300.654C141.172 301.954 144.067 302.445 149.322 303.021H155.463C144.177 310.49 131.408 316.346 123.337 326.94C123.982 312.549 112.485 293.656 108.67 279.604C107.532 275.413 113.358 274.441 116.153 273.934Z" fill="var(--fill-0, #625CE3)"/>
<path id="Vector_61" d="M95.4027 244.578C97.7222 246.202 102.151 250.97 105.353 253.298C120.193 264.087 134.531 269.8 151.797 275.179C150.522 276.651 149.224 278.29 147.975 279.802C137.783 274.989 116.453 267.281 107.322 276.354C104.013 268.108 97.7419 252.556 95.4027 244.578Z" fill="var(--fill-0, black)"/>
<path id="Vector_62" d="M156.138 276.237C169.114 279.177 180.924 280.957 194.21 278.562L180.138 287.463L164.313 297.493C163.747 289.317 157.808 285.899 151.554 281.731L156.138 276.237Z" fill="var(--fill-0, black)"/>
<path id="Vector_63" d="M150.343 283.15C156.017 284.755 171.246 298.482 155.524 301.167C151.045 301.539 148.241 301.371 143.796 300.656C148.518 296.857 150.446 292.899 146.901 287.324L150.343 283.15Z" fill="var(--fill-0, #625CE3)"/>
<path id="Vector_64" d="M168.278 387.741L168.499 389.037C169.444 392.048 170.343 395.474 171.311 398.377L171.588 399.786C172.582 403.377 173.629 406.954 174.722 410.516L175.159 411.764C162.366 414.894 149.508 415.705 136.382 414.675C134.6 414.536 130.71 414.383 129.294 413.514L130.694 412.952C135.903 409.718 138.18 407.847 140.934 402.444L141.451 401.206C142.278 397.743 142.284 396.057 141.975 392.519C141.734 391.94 141.717 390.755 141.667 390.061C147.489 390.654 163.087 389.911 168.278 387.741Z" fill="var(--fill-0, black)"/>
<path id="Vector_65" d="M168.279 387.741L168.499 389.037C169.444 392.048 170.343 395.474 171.311 398.377C165.019 401.174 148.377 401.47 141.451 401.206C142.278 397.743 142.284 396.057 141.975 392.519C141.734 391.94 141.717 390.755 141.667 390.061C147.489 390.654 163.087 389.911 168.279 387.741Z" fill="var(--fill-0, black)"/>
<path id="Vector_66" d="M168.278 387.741L168.499 389.037C160.309 391.709 150.624 391.293 142.216 391.367C142.152 391.649 141.993 392.258 141.975 392.519C141.734 391.94 141.717 390.755 141.667 390.061C147.489 390.654 163.087 389.911 168.278 387.741Z" fill="var(--fill-0, #625CE3)"/>
<path id="Vector_67" d="M174.722 410.516L175.159 411.764C162.366 414.894 149.508 415.705 136.382 414.675C134.6 414.536 130.71 414.383 129.294 413.514L130.694 412.952C143.8 414.371 162.146 414.193 174.722 410.516Z" fill="var(--fill-0, #625CE3)"/>
<path id="Vector_68" d="M171.311 398.377L171.588 399.786C161.914 402.52 150.939 402.719 140.934 402.445L141.452 401.206C148.377 401.47 165.019 401.174 171.311 398.377Z" fill="var(--fill-0, #625CE3)"/>
<path id="Vector_69" d="M104.959 195.581C113.126 190.707 120.357 186.46 129.547 183.622L130.1 184.809C120.83 187.755 113.729 191.744 105.561 196.827C86.593 196.724 72.3499 199.532 57.9174 213.495C39.8834 230.942 33.4645 266.558 33.4045 290.631C33.3472 313.755 38.8785 335.06 51.0393 354.855C45.5042 406.656 91.5812 423.687 133.944 427.895C151.334 429.607 168.889 427.804 185.569 422.594C186.821 422.195 191.914 420.618 192.65 420.124C193.2 420.186 195.253 420.379 195.663 420.498C193.477 420.878 185.223 424.172 181.474 425.186C166.02 429.432 149.918 430.81 133.971 429.246C90.9877 425.076 44.434 407.532 49.5869 355.235C36.9248 334.037 30.9533 311 32.134 286.317C34.3837 239.287 50.3228 194.052 104.959 195.581Z" fill="var(--fill-0, #625CE3)"/>
<path id="Vector_70" d="M0.155293 340.164C0.622461 340.441 0.962872 340.653 1.17236 341.199C2.6843 345.141 4.1913 348.881 5.79964 352.787C6.39659 355.273 12.8303 366.229 12.7795 368.009C11.1317 425.406 59.1627 461.113 112.868 468.02C137.543 471.193 166.294 470.047 195.884 460.593C202.98 458.305 209.933 455.588 216.696 452.453C218.498 451.607 225.007 447.596 226.267 447.489C235.826 446.707 243.321 446.279 252.726 443.523C275.033 437.087 293.913 422.134 305.287 401.893C307.158 398.517 308.843 395.039 310.33 391.478C311.234 389.285 312.334 386.116 313.423 384.119L313.939 384.019L314.296 384.77C302.668 418.143 277.037 441.702 241.337 447.394C236.49 448.169 231.508 447.797 226.817 448.742C224.585 449.193 219.606 452.685 217.234 453.512C160.04 480.703 72.5315 479.538 30.3448 426.104C19.9949 413.223 13.5825 397.629 11.8774 381.194C11.4838 377.451 11.9465 369.657 11.0364 367.148C9.15141 361.953 -0.453051 345.378 0.155293 340.164Z" fill="var(--fill-0, #625CE3)"/>
<path id="Vector_71" d="M230.225 171.116C232.077 171.128 235.739 172.752 237.523 173.602C248.005 178.594 257.428 184.282 265.629 192.581C276.551 203.653 283.53 218.009 285.492 233.438C285.814 236.036 286.107 247.036 286.657 248.102C297.97 270.115 303.526 292.603 303.063 317.781C302.524 347.243 294.828 384.451 272.927 406.208C261.553 417.273 245.538 425.288 229.861 427.694C225.599 428.351 220.369 427.827 216.779 428.954C214.104 429.797 209.383 433.064 206.495 434.271C195.72 438.768 180.852 443.941 169.254 445.322L168.814 444.017C179.197 443.148 196.806 436.984 206.491 432.776C209.747 431.36 213.739 428.59 216.859 427.55C219.606 426.632 224.988 427.076 228.153 426.628C239.063 425.083 248.688 421.529 258.061 415.973C281.055 402.345 290.786 380.739 296.972 355.68C303.875 327.715 303.446 296.58 294.27 269.151C293.116 265.708 292.035 262.914 290.573 259.613C289.192 256.485 285.917 250.837 285.241 247.891C284.589 245.049 284.562 239.083 284.281 235.773C283.329 225.292 280.008 215.163 274.577 206.148C266.448 192.734 254.145 183.102 240.153 176.43C236.889 174.874 233.082 172.826 229.599 171.975L230.225 171.116Z" fill="var(--fill-0, #625CE3)"/>
<path id="Vector_72" d="M78.8334 180.129L79.4797 181.991C74.6232 183.678 69.1883 185.501 64.6582 187.952C15.6742 214.456 7.37034 290.648 23.8457 337.692C25.1948 341.571 26.7595 345.372 28.533 349.076C29.1204 350.314 32.9853 358.191 33.021 359.082C33.2889 365.737 33.1856 370.582 34.5769 377.235C44.7886 426.066 96.9866 447.956 142.5 446.559C144.265 446.506 144.212 444.434 144.272 443.242C144.378 445.182 144.409 445.899 144.196 447.857C124.162 448.874 99.3323 444.252 81.3135 435.497C57.8568 424.1 38.8437 404.237 33.4027 378.201C32.6005 374.361 32.1614 370.647 31.8487 366.74C31.6639 364.429 32.1716 360.682 31.4707 358.698C30.6574 356.396 29.0866 353.409 28.0104 351.149C26.054 347.041 24.1539 342.843 22.6689 338.544C6.74377 292.441 13.686 223.188 55.3892 192.132C59.0499 189.406 64.991 186.199 69.3227 184.346C71.3587 183.475 76.1416 181.766 78.4368 180.936C78.5693 180.667 78.7013 180.398 78.8334 180.129Z" fill="var(--fill-0, #625CE3)"/>
<path id="Vector_73" d="M225.955 145.432L227.432 144.037C227.515 144.13 227.599 144.223 227.678 144.316C232.688 146.454 241.048 149.085 245.906 151.051C273.01 162.017 295.7 181.553 303.366 210.595C304.888 216.355 305.966 222.457 306.315 228.444C306.471 231.133 306.171 236.117 306.771 238.438C307.977 243.134 313.397 250.345 313.974 255.072L313.681 255.324C311.97 253.305 306.877 242.796 305.993 240.118C304.353 235.143 305.283 227.131 304.247 221.778C299.693 188.838 278.384 166.677 248.676 153.685C240.544 150.127 234.297 148.203 225.955 145.432Z" fill="var(--fill-0, #625CE3)"/>
<path id="Vector_74" d="M116.896 145.915C117.728 147.283 117.955 147.159 119.582 147.409C110.221 147.32 96.6113 158.358 92.1293 158.753C73.2502 160.416 58.6021 162.539 42.3693 173.463C27.1516 183.703 17.7331 196.359 9.31303 212.398C7.72253 215.428 1.30172 232.247 0.631898 233.053L0.126412 232.829C-0.23108 230.154 4.56394 219.623 5.9237 216.557C18.5167 188.159 40.4676 166.668 71.3565 159.895C75.4646 157.931 88.5848 159.087 91.5904 157.55C99.5425 153.484 108.6 149.119 116.896 145.915Z" fill="var(--fill-0, #625CE3)"/>
<path id="Vector_75" d="M314.364 444.191C314.695 446.15 309.556 449.933 307.928 451.311C293.659 463.292 276.543 471.39 258.232 474.817C250.9 476.187 245.105 475.789 238.077 476.893C236.449 477.151 230.468 480.764 228.616 481.679C223.917 483.997 218.798 486.551 213.739 488.028C213.523 486.4 223.451 482.548 225.147 481.997C228.392 480.95 233.963 476.544 236.612 475.922C243.538 474.293 250.976 474.935 258.259 473.508C274.619 470.305 290.042 463.443 303.378 453.436C307.078 450.639 310.471 447.022 314.038 444.427L314.364 444.191Z" fill="var(--fill-0, #625CE3)"/>
<path id="Vector_76" d="M214.84 183.091C216.817 184.775 216.98 184.733 219.53 184.369C220.638 185.379 231.735 189.166 233.959 190.119C252.756 198.243 265.86 215.692 268.429 236.008C269.109 241.707 268.923 245.873 268.441 251.529C269.014 252.437 269.94 254.15 270.699 254.731L269.34 254.926C268.52 254.029 267.75 252.784 267.059 251.759C269.169 235.226 264.638 218.812 253.674 206.192C245.56 196.855 236.054 191.904 224.6 187.914C220.847 186.609 217.147 184.939 213.132 184.66L214.164 184.207L213.777 183.631L214.84 183.091Z" fill="var(--fill-0, #625CE3)"/>
<path id="Vector_77" d="M0 436.112C1.88082 436.578 9.9798 449.045 12.3802 451.819C21.4347 462.282 31.0141 470.161 42.8132 477.36C45.8371 479.208 57.7881 484.699 58.834 486.263C57.053 486.449 53.5494 484.684 51.798 483.823C33.9466 475.018 18.3926 462.172 6.37148 446.309C4.4178 443.702 1.022 439.106 0 436.112Z" fill="var(--fill-0, #625CE3)"/>
<path id="Vector_78" d="M160.434 445.007L162.233 446.521C159.163 446.795 154.203 447.372 151.288 447.364L150.89 446.282C153.148 446.161 158.814 446.04 160.434 445.007Z" fill="var(--fill-0, #625CE3)"/>
<g id="Union">
<path fill-rule="evenodd" clip-rule="evenodd" d="M224.596 11.4538C219.436 16.4518 204.652 29.0038 187.412 47.2732C187.419 47.4254 188.064 47.5274 188.858 47.561C189.685 47.5935 191.279 47.6901 192.475 47.8015C193.67 47.9129 196.333 47.975 198.44 47.902C200.546 47.829 203.897 47.499 205.903 47.1849C207.909 46.8708 211.13 46.2689 213.041 45.8664C214.953 45.4636 218.167 44.6785 220.165 44.12C222.163 43.5615 224.644 42.7725 225.701 42.3995C226.722 41.9988 227.625 41.7228 227.723 41.7479C227.817 41.8058 226.81 42.6971 225.5 43.7516C224.192 44.8061 221.6 46.7016 219.748 47.9583C217.896 49.2151 214.844 51.1243 212.956 52.1682C211.069 53.2421 208.905 54.3553 208.151 54.6575C207.397 54.959 205.583 55.6038 204.072 56.0842C202.559 56.5342 200.259 57.1941 198.924 57.4849C197.591 57.8062 196.47 58.0923 196.471 58.1228C196.443 58.2497 196.455 63.8814 196.48 70.7508C196.506 77.6609 196.736 89.609 197.004 97.336C197.322 106.498 197.656 112.604 197.98 114.886C198.26 116.803 198.724 119.631 198.989 121.12C199.255 122.608 199.759 124.792 200.075 125.973C200.421 127.154 200.8 128.334 200.963 128.635C201.124 128.904 201.345 129.079 201.465 129.016C201.615 128.919 203.069 128.531 204.736 128.137C206.402 127.743 208.589 127.33 209.594 127.204C210.597 127.046 213.068 126.838 215.08 126.677C217.092 126.546 220.331 126.496 222.259 126.583C224.189 126.699 227.012 127.059 228.553 127.403C230.093 127.747 231.951 128.386 232.729 128.787C233.506 129.188 234.571 129.886 235.106 130.326C235.64 130.767 236.375 131.72 236.767 132.44C237.224 133.249 237.504 134.279 237.54 135.317C237.587 136.66 237.421 137.188 236.499 138.778C235.862 139.841 233.04 143.119 230.092 146.217C227.203 149.283 223.336 153.208 221.531 154.923C219.757 156.666 216.707 159.494 214.812 161.242C212.947 162.987 211.379 164.508 211.381 164.663C211.359 164.785 212.003 164.855 212.793 164.827C213.617 164.799 215.151 164.897 216.255 165.012C217.362 165.157 219.203 165.37 220.399 165.511C221.595 165.622 223.869 165.971 225.468 166.252C227.068 166.563 229.627 167.149 231.17 167.615C232.714 168.051 235.688 169.203 237.83 170.138C239.971 171.073 243.708 173.051 246.146 174.556C248.603 176.057 250.568 177.331 250.523 177.402C250.482 177.46 248.915 177.059 247.068 176.514C245.215 175.936 241.33 174.999 238.437 174.425C235.544 173.853 231.974 173.184 230.438 172.961C228.908 172.74 227.625 172.632 227.558 172.723C227.499 172.817 227.593 172.877 227.775 172.871C227.988 172.863 229.917 173.774 232.097 174.922C234.306 176.039 237.548 177.883 239.358 178.982C241.171 180.111 244.05 182 245.774 183.224C247.498 184.448 250.164 186.406 251.735 187.635C253.303 188.834 255.001 190.182 255.506 190.654C256.01 191.094 254.271 190.268 251.624 188.832C248.974 187.364 243.996 184.876 240.579 183.282C237.163 181.719 232.015 179.571 229.105 178.541C226.196 177.511 221.28 175.94 218.131 175.009C214.981 174.108 209.092 172.693 205.028 171.855C200.964 171.018 195.7 169.945 193.332 169.508C190.963 169.07 187.703 168.51 186.104 168.23C184.508 167.98 183.4 167.684 183.638 167.583C183.886 167.513 186.83 166.98 190.168 166.408C193.511 165.863 198.41 165.204 201.062 164.99C203.682 164.776 205.845 164.548 205.842 164.456C205.836 164.357 205.245 163.157 204.556 161.749C203.835 160.336 202.947 158.534 202.551 157.691C202.156 156.88 201.564 155.645 201.235 154.983C200.906 154.321 199.811 151.882 198.814 149.564C197.818 147.246 196.788 144.835 196.55 144.169C196.284 143.537 195.865 142.939 195.619 142.886C195.369 142.804 194.007 143.188 192.592 143.757C191.174 144.326 188.136 145.745 185.824 146.927C183.511 148.107 179.46 150.297 176.823 151.796C174.186 153.324 169.754 155.985 166.943 157.764C165.259 158.83 163.293 160.089 161.643 161.152L170.401 164.943C170.411 164.935 170.421 164.928 170.431 164.92C172.932 162.999 176.207 160.499 177.666 159.378C179.156 158.256 182.166 156.043 184.312 154.469C186.485 152.899 188.365 151.612 188.493 151.602C188.646 151.629 188.412 151.914 187.997 152.263C187.582 152.646 186.309 153.881 185.188 155.019C184.036 156.192 181.967 158.221 180.606 159.523C179.215 160.824 177.292 162.696 176.317 163.678C175.791 164.207 174.782 165.194 173.613 166.332L201.215 178.277L201.301 178.315L201.837 178.28C203.2 178.891 204.693 179.566 205.842 180.109C207.779 181.023 210.871 182.483 212.73 183.357C214.592 184.231 219.181 186.418 222.976 188.206C226.78 190.023 230.716 191.96 231.776 192.504C233.555 193.433 233.391 193.419 229.09 192.072C226.589 191.296 221.339 189.66 217.45 188.41C213.562 187.16 207.423 185.122 203.795 183.89C200.158 182.628 194.711 180.764 191.677 179.703C190.032 179.127 188.471 178.581 187.339 178.182L187.423 178.066L168.525 171.061L156.395 182.697L156.416 182.729C156.097 183.032 155.765 183.345 155.429 183.666C152.914 186.046 150.249 188.555 149.478 189.223C148.737 189.923 146.929 191.544 145.507 192.847C144.054 194.15 140.198 197.526 136.934 200.33C133.668 203.134 128.856 207.184 126.239 209.293C123.622 211.403 118.592 215.31 115.076 217.938C111.562 220.598 107.033 223.936 105.004 225.382C103.01 226.824 101.37 227.948 101.361 227.862C101.369 227.759 103.544 225.395 106.19 222.588C108.842 219.745 112.174 216.234 113.62 214.747C115.066 213.26 117.195 211.137 118.317 209.997C119.47 208.857 121.183 207.146 122.159 206.195C123.135 205.244 125.146 203.276 126.596 201.881C128.074 200.454 130.589 198.042 132.217 196.518C133.845 194.993 136.186 192.864 137.403 191.813C138.615 190.734 139.68 189.781 139.773 189.681C139.861 189.588 141.256 188.346 142.888 186.945C144.52 185.513 148.116 182.543 150.912 180.305C152.831 178.748 154.494 177.34 155.347 176.574L163.124 170.417C163.422 170.247 163.913 169.914 164.438 169.546L154.199 165.75L147.193 170.083L145.605 170.946C144.495 171.567 141.974 172.909 139.992 173.926C138.01 174.942 135.034 176.392 133.378 177.122C131.723 177.851 129.613 178.719 128.709 179.086C127.803 179.423 125.689 180.17 124.029 180.747C122.368 181.324 119.978 182.051 118.733 182.308C117.49 182.596 114.602 183.063 112.349 183.325C109.245 183.707 107.382 183.772 104.717 183.59C102.787 183.472 99.8084 183.117 98.1179 182.84C96.427 182.562 93.9911 181.943 92.7235 181.528C91.455 181.082 89.5289 180.202 88.436 179.537C87.3747 178.901 85.7097 177.642 84.7621 176.758C83.8145 175.873 82.3546 174.304 81.5557 173.293C80.7554 172.25 79.9533 171.176 79.791 170.905C79.5315 170.426 80.342 169.906 85.8599 166.965C89.3702 165.07 94.8298 162.067 97.9459 160.247C101.062 158.427 104.775 156.217 106.183 155.372C107.042 154.857 108.494 153.969 110.018 153.037L110.128 153.101L114.001 150.849L84.1851 139.797C83.2518 139.434 82.6633 139.211 82.5408 139.16C82.1396 138.994 78.5534 137.589 74.5763 136.047C70.5994 134.505 64.8164 132.167 61.72 130.9C58.6152 129.605 52.4642 126.996 48.0034 125.121C43.5441 123.247 39.1784 121.376 38.25 120.952C37.3337 120.559 36.8221 120.236 37.0913 120.282C37.3769 120.36 39.2448 120.846 41.2539 121.385C43.2687 121.924 46.763 122.814 49.0463 123.4C51.3212 123.957 54.7871 124.762 56.7747 125.214C58.7637 125.666 63.6412 126.585 74.8626 128.553L52.5695 116.587C40.3208 110.002 30.2064 104.487 30.045 104.279C29.8953 104.101 31.8381 104.822 34.369 105.908C36.8582 106.972 38.9946 107.922 39.1132 107.985C39.2436 108.053 41.4539 109.039 44.0798 110.153C46.6953 111.309 49.9235 112.695 51.2707 113.245C52.0194 113.551 53.2906 114.093 54.6873 114.688L54.9325 114.976L55.0162 115.011L124.17 144.937L130.072 141.508C130.147 141.469 130.225 141.431 130.304 141.389C131.775 140.605 135.021 138.934 137.512 137.624C139.974 136.346 143.217 134.674 144.72 133.949C146.222 133.224 148.236 132.237 149.228 131.744C150.221 131.282 151.064 130.915 151.096 130.945C151.152 131.009 149.071 132.608 146.483 134.529C144.073 136.338 140.634 138.942 138.599 140.497L138.549 140.415L129.644 147.304L150.46 156.313C150.978 155.973 151.446 155.67 151.731 155.476C152.299 155.09 154.601 153.604 156.813 152.181C159.026 150.76 162.138 148.787 163.694 147.816C165.249 146.844 167.464 145.483 168.633 144.8C169.801 144.117 171.806 142.886 173.125 142.137C174.442 141.357 178.493 139.106 182.124 137.176C185.754 135.216 189.539 133.282 190.533 132.849C191.523 132.419 192.482 131.959 192.636 131.829C192.844 131.669 192.729 130.968 192.354 129.85C192.015 128.883 191.558 127.156 191.334 125.972C191.11 124.787 190.615 118.473 190.236 111.943C189.857 105.412 189.134 90.7578 187.752 58.8217L183.557 58.6009C181.26 58.4665 179.115 58.3563 178.779 58.368C178.411 58.3522 177.699 58.991 175.687 61.6856L177.49 63.4594C178.501 64.4333 180.09 66.1816 181.016 67.3114C181.912 68.4723 182.97 69.9333 183.33 70.594C183.919 71.7049 184.022 72.8649 184.719 84.1538C185.107 90.9591 185.498 97.7966 185.649 102.164L184.143 104.602C183.302 105.916 181.151 109.14 179.346 111.709C177.541 114.309 175.822 116.723 174.882 117.826L173.297 117.056C172.332 116.569 170.634 115.222 169.114 113.715C167.69 112.297 165.806 109.976 163.156 105.849L162.086 75.0018L162.94 74.0547C163.412 73.5492 165.458 70.847 167.471 68.0864C169.513 65.328 171.38 62.8191 171.619 62.5306C171.852 62.2166 172.64 61.0882 174.705 58.0513L173.811 57.8671C173.348 57.7607 171.626 57.4534 170.029 57.2337C167.755 56.8845 165.552 56.8393 160.241 57.054C155.603 57.2454 152.433 57.5076 150.49 57.9112C148.914 58.2099 147.578 58.4396 147.512 58.4426C147.493 58.4002 148.489 57.3002 149.75 56.0111C150.989 54.7147 153.304 52.676 154.851 51.4602C156.399 50.2756 158.489 48.8873 159.479 48.3329C160.92 47.5796 161.981 47.2701 164.627 46.9032C167.153 46.5711 173.154 46.5656 182.826 46.9337C194.519 36.7997 201.523 29.7829 224.596 11.4538ZM119.293 155.257C117.268 156.795 113.276 159.778 110.414 161.864C107.521 163.952 103.55 166.75 101.518 168.073L97.8743 170.494C99.1796 171.121 100.875 171.522 102.503 171.772C104.409 172.103 106.77 172.266 109.395 172.175C111.563 172.131 114.58 171.87 116.099 171.604C117.587 171.339 119.5 170.937 120.35 170.755C121.168 170.542 123.224 169.889 124.886 169.342C126.546 168.765 128.989 167.826 130.314 167.23C131.255 166.806 132.667 166.132 133.922 165.508L133.959 165.534L135.152 164.884C135.214 164.852 135.276 164.823 135.335 164.792C135.983 164.467 136.58 164.134 137.042 163.856L141.923 161.199L121.422 153.6L119.293 155.257ZM218.807 136.334C216.79 136.343 214.319 136.49 213.317 136.677C212.315 136.865 210.132 137.431 208.467 137.916C206.804 138.402 205.322 138.912 205.204 139.038C205.061 139.175 205.571 140.683 206.331 142.423C207.095 144.17 208.847 147.995 210.233 150.943C211.618 153.889 212.895 156.287 213.078 156.255C213.234 156.248 214.369 155.568 215.625 154.76C216.848 153.924 218.667 152.606 219.649 151.806C220.631 151.008 222.143 149.641 222.998 148.757C223.854 147.871 225.081 146.298 225.718 145.267C226.354 144.236 226.979 142.84 227.14 142.161C227.299 141.484 227.295 140.444 227.152 139.868C227.01 139.292 226.458 138.393 225.922 137.892C225.385 137.391 224.389 136.815 223.709 136.654C223.031 136.464 220.824 136.326 218.807 136.334ZM170.098 70.6564C169.995 71.2118 169.816 73.1136 169.725 74.8891C169.603 76.6679 169.675 82.2318 169.85 87.2704C170.032 92.5232 170.346 97.2221 170.565 98.2541C170.783 99.2557 171.391 100.886 171.914 101.876C172.438 102.867 173.811 104.594 174.952 105.746C176.851 107.667 177.04 107.782 177.325 107.193C177.497 106.849 177.712 105.129 177.803 103.353C177.894 101.575 177.712 95.4656 177.423 89.7583C177.103 84.0535 176.701 78.6262 176.486 77.7134C176.271 76.8035 175.895 75.6226 175.603 75.1434C175.342 74.6632 174.729 73.7679 174.251 73.2036C173.773 72.6392 172.668 71.6073 171.818 70.9031L170.247 69.6424L170.098 70.6564Z" fill="var(--fill-0, white)"/>
<path d="M263.574 125.206C251.568 136.187 241.554 148.808 228.635 158.836C227.387 159.825 226.312 160.596 226.246 160.508C226.247 157.692 230.62 152.984 231.724 151.878C241.261 142.37 246.118 138.113 263.574 125.206Z" fill="var(--fill-0, white)"/>
<path fill-rule="evenodd" clip-rule="evenodd" d="M155.513 0.00430444C155.506 0.115992 154.424 2.31619 153.115 4.91755C151.799 7.50141 149.547 12.2288 148.159 15.3957C146.741 18.5632 145.33 21.9149 144.996 22.844C144.661 23.7731 144.077 25.4449 143.688 26.559C143.329 27.6724 142.843 29.5862 142.642 30.816C142.391 32.3847 142.37 35.322 142.566 40.9699C142.722 45.4829 142.964 48.8655 143.115 48.8399C172.692 21.2091 183.167 11.2566 183.488 11.4554C184.027 12.0437 146.597 52.1198 143.133 55.8893V66.1162C143.28 70.3312 143.422 78.8894 143.485 85.1252C143.518 91.3618 143.507 98.0903 143.424 100.112C143.325 102.53 143.086 104.465 142.674 105.794C142.315 106.906 141.729 108.517 141.331 109.356C140.963 110.225 140.242 111.505 139.81 112.254C139.347 112.971 139.065 113.623 139.187 113.682C139.342 113.738 140.111 113.864 140.97 113.956C141.799 114.05 143.918 114.343 145.64 114.65C148.007 115.088 148.835 115.12 149.163 114.865C149.369 114.643 150.003 113.521 150.544 112.371C151.425 110.476 151.528 109.921 151.535 107.476C151.544 105.977 151.176 97.9775 150.739 89.7674C150.13 78.3838 149.844 74.6002 149.484 73.9086C149.253 73.4274 148.799 72.6781 147.964 71.5151L152.829 65.4432C155.51 62.1277 157.731 59.4642 157.788 59.4627C157.791 59.5728 157.889 65.086 157.969 71.7801C158.08 78.5036 158.323 89.0142 158.505 95.1542C158.871 105.721 158.834 106.366 158.299 107.7C157.99 108.475 157.124 110.004 156.369 111.13C155.613 112.257 154.535 113.763 153.919 114.518C153.303 115.242 152.899 115.897 153.053 115.954C153.178 116.011 153.764 116.144 154.347 116.246C154.932 116.348 156.966 116.859 158.817 117.376C160.669 117.893 164.037 118.968 166.233 119.717C168.43 120.497 171.499 121.645 173.05 122.295C174.601 122.945 177.306 124.287 179.113 125.264C180.919 126.241 182.666 127.251 183.01 127.484C183.355 127.717 183.576 127.954 183.487 128.018C183.39 128.089 182.53 128.788 181.553 129.551C180.571 130.319 178.909 131.725 177.843 132.709C176.776 133.663 175.622 134.804 174.687 136.028L173.618 135.179C173.021 134.71 171.427 133.726 170.058 133.009C168.687 132.262 166.327 131.181 164.779 130.623C163.232 130.066 161.16 129.373 160.142 129.102C159.123 128.801 157.239 128.317 155.976 128.024C154.711 127.701 152.066 127.179 150.128 126.818C148.19 126.458 144.932 125.959 142.905 125.693C140.879 125.427 138.057 125.128 136.615 124.994C135.174 124.861 132.568 124.675 130.792 124.583C129.014 124.462 126.073 124.289 124.205 124.171C122.337 124.052 119.39 123.664 117.605 123.298C115.82 122.932 113.542 122.492 112.526 122.283C111.51 122.073 109.787 121.797 106.685 121.354L107.584 120.803C108.061 120.481 109.341 119.488 110.409 118.565C111.478 117.672 113.253 115.958 114.344 114.789C115.434 113.62 116.66 111.987 117.058 111.117C117.483 110.154 117.828 108.581 117.955 106.957C118.058 105.515 118.125 100.434 117.963 86.9263L119.248 84.2832C119.961 82.8216 121.106 80.58 121.825 79.3014C122.515 78.0236 124.423 74.8682 125.983 72.2764C127.575 69.7153 129.4 66.8103 130.072 65.868C130.711 64.9286 131.789 63.3602 133.592 60.699L133.085 51.3902C132.815 46.2632 132.395 41.2015 132.144 40.1081C131.741 38.1962 131.737 38.0727 132.505 36.4266C132.931 35.4946 134.163 33.0964 135.195 31.1342C136.258 29.1713 137.78 26.3652 138.646 24.8979C139.482 23.432 141.101 20.777 142.231 18.9645C143.329 17.1539 144.752 14.9946 145.303 14.1183C145.885 13.2725 147.341 11.1428 148.503 9.42124C149.697 7.69825 151.737 4.84354 153.082 3.08441C154.426 1.29479 155.51 -0.0873147 155.513 0.00430444ZM133.707 67.5748C133.581 67.5847 132.582 68.7185 131.472 70.1296C130.359 71.5136 128.814 73.6786 128.031 74.8982C127.25 76.1477 126.415 77.644 126.16 78.2341C125.765 79.1659 125.748 81.3423 126.049 93.5585L126.39 107.797C124.625 110.64 123.485 112.178 122.721 113.061C121.78 114.101 121.433 114.696 121.681 114.81C121.9 114.925 124.27 115.363 126.973 115.789C129.674 116.215 132.068 116.558 132.287 116.552C132.47 116.546 132.918 116.223 133.27 115.814C133.594 115.435 134.344 114.156 134.913 112.945L135.938 110.768C135.116 89.699 134.657 79.9897 134.412 75.5636C134.168 71.1731 133.86 67.5767 133.707 67.5748Z" fill="var(--fill-0, white)"/>
<path fill-rule="evenodd" clip-rule="evenodd" d="M258.561 16.9091C249.4 26.2636 239.851 38.7386 234.635 51.5394C234.802 54.7502 235.159 56.6751 235.357 62.386C235.401 62.4 236.749 60.861 238.353 58.9191C239.967 56.9671 242.939 53.5921 244.97 51.3506C247.738 48.3506 248.835 47.3336 249.416 47.3128C249.844 47.2985 251.018 47.6555 252.043 48.1091C253.066 48.5627 254.473 49.5226 255.139 50.233C255.836 50.9426 256.702 52.1061 257.065 52.8579C257.459 53.6392 257.747 54.9138 257.781 55.8908C258.028 59.989 257.087 67.1081 254.99 69.9454C254.084 71.1695 252.204 73.3755 250.791 74.9226C249.376 76.4392 248.289 77.6693 248.379 77.6662C248.473 77.6621 249.409 77.3559 250.496 76.9826C251.581 76.5779 253.613 76.1087 255.042 75.8757C256.896 75.5974 258.149 75.5551 259.471 75.7539C260.484 75.9024 261.907 76.3724 262.626 76.806C263.344 77.24 264.227 78.0662 264.584 78.6346C264.939 79.2036 265.469 80.3766 265.741 81.1924C266.08 82.1591 266.326 83.9244 266.4 86.0615C266.465 87.9242 266.339 90.4675 266.138 91.7284C265.937 92.9889 265.599 94.7444 265.383 95.5774C265.199 96.4401 264.762 97.8937 264.396 98.8235C264.062 99.7524 263.414 101.303 262.927 102.237C262.47 103.17 261.457 104.857 260.733 105.982C260.008 107.108 258.396 109.091 257.157 110.387C255.949 111.683 252.752 114.76 250.056 117.208C247.358 119.626 244.369 122.452 241.622 125.208L238.326 122.753C236.192 121.146 233.945 119.816 231.928 118.907C230.221 118.172 227.589 117.163 226.045 116.727C224.5 116.261 222.679 115.773 220.646 115.323L222.49 113.822C223.532 113.021 225.011 111.593 225.836 110.708C226.631 109.825 227.562 108.54 227.877 107.887C228.415 106.676 228.426 106.062 227.61 83.4321C226.937 64.0093 226.705 59.9781 226.295 58.7075C225.815 57.1959 225.813 57.1958 224.596 57.2991C223.925 57.3836 222.562 57.7368 221.567 58.1076C220.576 58.4766 219.733 58.7487 219.693 58.6923C219.663 58.6604 220.129 58.0649 220.715 57.3738C221.333 56.6797 223.652 53.908 225.882 51.2318C229.887 46.4889 235.009 41.0933 239.072 36.3992C244.823 29.7453 247.647 27.8225 258.561 16.9091ZM251.033 82.8048C250.271 82.8312 248.966 83.121 248.152 83.4549C247.308 83.79 246.015 84.3845 245.296 84.8069C244.546 85.2304 243.409 85.9442 242.752 86.395C242.093 86.8465 240.545 87.9985 239.326 88.9574C238.076 89.9176 236.979 90.844 236.892 91.0311C236.777 91.2237 236.861 94.5522 237.117 98.3926C237.51 105.319 237.512 105.443 236.864 107.056C236.469 107.953 236.252 108.724 236.344 108.785C236.41 108.847 238.748 110.14 241.49 111.665C244.229 113.189 246.655 114.449 246.933 114.442C247.177 114.433 248.016 113.886 248.818 113.216C249.62 112.546 250.769 111.313 251.382 110.436C251.993 109.589 252.883 107.968 253.364 106.85C253.815 105.734 254.397 104.001 254.606 102.985C254.816 101.968 255.156 99.4173 255.359 97.3009C255.56 95.1843 255.684 91.7555 255.64 89.6471C255.563 86.5323 255.441 85.6485 254.987 84.8694C254.663 84.3302 253.965 83.6195 253.404 83.3027C252.779 82.9269 251.887 82.7446 251.033 82.8048ZM243.824 58.8202C242.634 58.8615 242.027 59.0674 241.105 59.7718C240.481 60.2829 238.916 61.8975 237.685 63.4076L235.395 66.1467C235.715 75.3706 236.188 84.8168 236.341 84.8115C236.463 84.8369 236.758 84.5824 236.992 84.2999C237.227 84.0166 238.449 83.0257 239.67 82.1273C240.893 81.2594 242.409 80.015 243.059 79.3806C243.681 78.7781 244.734 77.4259 245.371 76.3949C246.007 75.3643 246.725 74.0241 246.948 73.4351C247.173 72.8463 247.438 71.6446 247.562 70.8148C247.712 69.8311 247.389 62.0313 247.175 61.1512C246.964 60.3334 246.539 59.5847 246.1 59.2632C245.629 58.9129 244.86 58.7538 243.824 58.8202Z" fill="var(--fill-0, white)"/>
<path d="M285.281 92.4227C286.051 92.6161 286.739 92.8354 286.811 92.9251C286.876 92.9948 287.1 92.995 287.283 92.9404C287.488 92.8794 287.943 92.9878 288.316 93.1885C288.686 93.3896 290.262 93.9663 291.811 94.4614C293.359 94.9559 294.827 95.4742 295.053 95.6307C295.443 95.8927 295.383 95.9116 292.306 96.494L292.646 97.0375C292.845 97.3342 293.274 97.8072 293.597 98.0668C293.94 98.321 295.649 99.3472 297.426 100.308C299.199 101.266 300.612 102.132 300.578 102.216C300.535 102.295 299.356 102.002 297.938 101.579C296.515 101.136 295.24 100.737 295.112 100.686C294.978 100.614 294.337 100.405 293.676 100.201C293.035 99.9919 292.458 99.8514 292.356 99.8817C292.274 99.9061 291.44 99.6431 290.478 99.329C289.509 98.9944 288.675 98.7329 288.577 98.7839C288.495 98.8082 288.019 98.7043 287.504 98.5464C286.863 98.3372 286.554 98.3409 286.454 98.5266C286.387 98.6807 286.26 99.4523 286.201 100.226C286.123 101.16 286.191 101.985 286.432 102.647C286.623 103.213 286.889 103.735 287.023 103.807C287.176 103.873 287.29 104.105 287.277 104.286C287.265 104.468 287.713 105.602 288.241 106.779C288.79 107.95 289.582 109.784 290 110.817C290.419 111.849 291.446 114.101 292.288 115.807C293.11 117.52 293.869 119.097 293.976 119.309C294.065 119.529 294.385 120.233 294.668 120.882C295.176 122.065 295.176 122.066 294.666 121.773C294.374 121.615 293.622 120.815 293.002 119.999C292.353 119.17 291.813 118.397 291.782 118.294C291.752 118.192 290.885 117.003 289.894 115.696C288.878 114.375 287.119 112.208 285.974 110.903C284.848 109.592 283.282 107.922 282.489 107.202C281.716 106.476 280.776 105.711 279.747 105.172L279.159 105.813C278.838 106.154 278.464 106.843 278.367 107.339C278.242 107.821 278.114 109.484 278.084 111.028C278.054 112.572 278.042 114.622 278.063 115.594C278.085 116.566 278.088 117.923 278.066 118.597C278.044 119.271 278.028 120.565 278.005 121.461C277.984 122.357 277.892 123.097 277.789 123.128C277.708 123.152 277.659 122.989 277.665 122.787C277.666 122.564 277.482 121.127 277.276 119.609C277.048 118.098 276.415 114.928 275.852 112.583C275.287 110.238 274.588 107.665 274.323 106.853C273.934 105.768 273.693 105.328 273.378 105.244C273.15 105.156 272.724 105.216 272.434 105.369C272.05 105.572 271.621 106.302 270.911 107.959C270.358 109.236 269.7 110.766 269.457 111.372C269.209 111.958 268.977 112.604 268.917 112.778C268.885 112.965 268.758 113.137 268.657 113.167C268.553 113.198 268.408 113.085 268.36 112.922C268.311 112.759 268.595 111.538 268.967 110.249C269.354 108.932 270.085 106.38 270.576 104.588C271.087 102.79 271.663 100.684 271.857 99.9136C272.051 99.1442 272.503 97.9641 273.551 96.0281L274.512 99.6335C275.132 101.94 275.582 103.297 275.78 103.438C275.919 103.531 276.209 103.533 276.374 103.417C276.561 103.294 276.8 102.601 276.912 101.856C277.01 101.138 277.145 100.096 277.168 99.5771C277.205 99.0322 277.295 98.583 277.378 98.5586C277.48 98.5289 278.019 98.7686 278.602 99.0838C279.292 99.4567 279.775 99.5803 279.981 99.4523C280.208 99.3181 280.35 99.3423 280.411 99.5467C280.46 99.7102 280.916 99.9741 281.405 100.118C281.914 100.255 282.673 100.563 283.861 101.188L282.904 98.4261C282.255 96.6175 281.983 95.6308 282.126 95.5881C282.23 95.5575 282.573 95.589 282.866 95.6794C283.181 95.7635 283.746 95.7948 284.112 95.7525C284.803 95.6803 284.818 95.6534 284.599 94.9182C284.471 94.489 284.149 93.7835 283.908 93.3438C283.64 92.8911 283.473 92.4077 283.497 92.2659C283.549 92.1394 283.626 92.026 283.721 92.0421C283.794 92.0648 284.511 92.2294 285.281 92.4227Z" fill="var(--fill-0, white)"/>
<path fill-rule="evenodd" clip-rule="evenodd" d="M102.238 18.4317C102.302 18.431 102.673 18.5706 103.075 18.7697C103.45 18.9421 104.954 20.0519 106.429 21.2225C107.896 22.3947 109.732 23.88 111.933 25.679L111.216 27.0188C110.814 27.7669 109.155 30.1787 107.582 32.404C104.838 36.1381 104.631 36.3909 104.038 36.014C103.693 35.7809 102.224 34.7913 100.753 33.8033C99.2813 32.784 97.467 31.6223 96.6867 31.1601C95.3768 30.3804 95.1916 30.3573 94.0755 30.7627C93.1988 31.0378 92.5454 31.611 91.7582 32.7085C91.1161 33.5871 89.7236 35.7453 88.5944 37.5578C87.4652 39.3706 85.8307 42.5151 84.9235 44.5646C84.0166 46.6141 82.9509 49.3423 82.5362 50.6106C82.1217 51.8788 81.4394 54.2583 81.006 55.8634C80.5421 57.4696 79.8807 60.3967 79.5505 62.3342C79.032 65.0125 78.8916 67.1594 78.9019 76.2716L80.4868 74.3806C81.3377 73.3416 83.8383 70.5337 86.0472 68.1336C88.226 65.7341 91.0847 62.6375 92.3825 61.2776C93.6804 59.9176 95.957 57.6988 97.4084 56.3643C98.8888 54.9986 100.52 53.5668 101.056 53.1502C101.561 52.7354 102.253 52.4349 102.562 52.5153C102.839 52.5669 103.999 53.3835 105.131 54.2921C106.263 55.2009 107.72 56.6488 108.391 57.4819C109.092 58.3137 109.831 59.3905 110.093 59.9012C110.325 60.4135 110.925 61.8282 111.396 63.065C111.867 64.3025 112.485 66.3008 112.769 67.453C113.055 68.6358 113.465 70.7314 113.729 72.1592C113.996 73.7092 114.13 75.8456 114.065 77.4987C114.025 78.9986 113.747 81.5156 113.494 83.0225C113.21 84.5308 112.703 86.6891 112.314 87.8033C111.955 88.9163 111.28 90.5907 110.854 91.5229C110.428 92.4551 109.483 94.2928 108.764 95.5713C108.044 96.8501 106.802 98.9724 106.021 100.253C105.21 101.535 103.757 103.725 102.797 105.104C101.836 106.483 100.112 108.806 98.9401 110.284C97.7687 111.762 95.5056 114.348 91.0274 119.181L89.0085 118.242C87.8914 117.761 86.1446 116.813 85.1139 116.176C84.0829 115.509 82.8317 114.635 82.2971 114.226C81.794 113.815 80.6919 112.904 79.8108 112.17C78.9601 111.435 77.4679 109.836 76.478 108.616C75.4883 107.397 74.0705 105.306 73.3522 103.985C72.6034 102.665 71.6162 100.65 71.1476 99.4736C70.6789 98.2975 70.0688 96.5454 69.759 95.547C69.4799 94.5472 68.9677 92.1492 68.6262 90.2348C68.3154 88.3192 68.0061 85.5771 67.9563 84.1416C67.9065 82.706 68.0188 79.7368 68.1573 77.5612C68.3263 75.3844 68.6553 72.529 68.8866 71.267C69.118 70.0053 69.8098 67.0763 70.403 64.7931C70.9964 62.5099 72.0981 59.016 72.8559 57.0632C73.6134 55.1104 75.1487 51.7529 76.2664 49.6042C77.3841 47.4555 79.2919 44.3015 80.5158 42.5777C81.7094 40.8544 83.4904 38.4382 84.4576 37.2427C85.3944 36.0482 87.4213 33.6838 88.9233 32.0417C90.4558 30.3984 93.1076 27.523 94.8779 25.6881C96.6179 23.8544 98.9793 21.4484 100.103 20.3698C101.198 19.3229 102.177 18.4338 102.238 18.4317ZM93.06 65.8421C92.7548 65.8527 91.974 66.2759 91.3182 66.7572C90.6942 67.268 88.7443 69.2017 87.0079 71.1269C85.3006 73.0208 82.8596 75.8277 81.6607 77.3982C79.4648 80.1646 79.437 80.2585 79.4941 81.9065C79.5259 82.8228 79.7038 84.4084 79.922 85.4099C80.14 86.4111 80.4646 87.8363 80.6741 88.5935C80.8838 89.3507 81.2939 90.6214 81.5678 91.4681C81.8711 92.2833 82.4715 93.731 82.9001 94.6334C83.3592 95.5348 84.4592 97.27 85.3879 98.4916C86.2861 99.7141 87.8754 101.432 88.9156 102.344C89.9561 103.256 91.9898 104.623 93.4513 105.337C94.9133 106.081 96.4338 106.763 96.8648 106.84C97.4513 107.003 97.8122 106.836 98.4605 106.141C98.9322 105.635 99.9834 104.163 100.795 102.881C101.606 101.599 102.721 99.4207 103.316 98.0546C103.88 96.6898 104.544 94.6784 104.781 93.5692C105.017 92.4602 105.243 90.1891 105.307 88.5052C105.364 86.6074 105.201 84.5331 104.934 83.0134C104.674 81.6774 104.245 79.8892 104.003 79.0715C103.759 78.2238 103.287 76.9546 102.955 76.2015C102.623 75.4485 102 74.2471 101.577 73.4975C101.123 72.749 100.318 71.553 99.7425 70.8087C99.1664 70.0642 97.994 68.8512 97.1739 68.1153C96.3232 67.3803 95.1629 66.5651 94.6343 66.308C94.0755 66.0525 93.3654 65.8317 93.06 65.8421Z" fill="var(--fill-0, white)"/>
<path fill-rule="evenodd" clip-rule="evenodd" d="M212.012 58.4395C212.14 58.4405 213.265 59.2555 214.519 60.2788C215.746 61.2758 217.541 62.7724 218.518 63.6253C219.494 64.4475 220.798 65.931 221.414 66.8881C222.027 67.8452 222.814 69.3793 223.151 70.2849C223.659 71.7347 223.772 73.2316 224.107 82.8794C224.346 89.7807 224.383 94.3678 224.206 95.4145C224.052 96.2762 223.497 97.9167 222.986 99.0351C222.504 100.153 221.212 102.583 220.118 104.486C219.053 106.388 216.846 109.798 215.215 112.117C213.615 114.434 212.13 116.535 211.925 116.818C211.605 117.257 211.512 117.26 211.04 116.879C210.757 116.644 209.099 114.683 207.406 112.571C205.713 110.458 203.789 107.895 201.951 105.115L201.523 92.7455C201.274 85.5691 200.944 79.6168 200.693 78.5539C200.506 77.5519 200.249 76.308 200.141 75.8224C199.96 75.0336 200.219 74.5335 202.383 71.7374C203.699 70.0101 205.975 66.9043 207.432 64.8357C208.888 62.7995 210.228 60.8893 210.466 60.6335C210.671 60.3821 211.078 59.786 211.307 59.3196C211.564 58.8219 211.859 58.4451 212.012 58.4395ZM209.448 68.3132C209.174 68.324 208.922 69.0368 208.757 70.4174C208.582 71.5557 208.407 74.4663 208.339 76.9141C208.241 79.3641 208.304 84.6826 208.446 88.7747C208.593 93.0198 208.848 96.835 209.095 97.7745C209.308 98.6234 209.941 100.16 210.494 101.119C211.048 102.109 212.518 103.893 213.752 105.104L215.966 107.321C216.473 105.224 216.785 102.736 216.951 100.468C217.165 97.8307 217.178 92.9065 217.036 87.0101C216.785 78.9163 216.674 77.481 216.165 76.031C215.859 75.1248 215.17 73.7738 214.656 73.027C214.141 72.2805 212.84 70.9167 211.799 70.0048C210.728 69.0643 209.664 68.3065 209.448 68.3132Z" fill="var(--fill-0, white)"/>
<path d="M294.694 105.859C294.798 105.829 295.294 106.082 295.816 106.415C296.337 106.748 296.897 106.982 297.041 106.94C297.164 106.904 297.605 107.039 298.023 107.248C298.429 107.483 299.425 107.988 300.249 108.365C301.525 108.986 301.709 109.154 301.589 109.501C301.5 109.728 300.968 110.331 300.432 110.845C299.876 111.367 299.259 111.839 299.074 111.895C298.875 111.976 298.572 111.934 298.407 111.828C298.242 111.721 297.594 110.889 296.982 109.959C296.372 109.03 295.696 108.031 295.476 107.739C295.256 107.449 294.947 107.162 294.821 107.111C294.638 107.047 294.63 106.99 294.792 106.942C294.976 106.887 294.963 106.69 294.805 106.381C294.658 106.114 294.611 105.884 294.694 105.859Z" fill="var(--fill-0, white)"/>
<path fill-rule="evenodd" clip-rule="evenodd" d="M284.669 70.6717C286.186 70.683 287.982 70.7273 288.625 70.7691C289.266 70.7895 291.382 70.8242 293.323 70.8209C295.267 70.8176 297.701 70.8397 298.771 70.8665C300.289 70.9206 301.106 71.0624 302.641 71.6065C303.722 71.9958 305.671 72.7597 306.971 73.3331C308.273 73.9065 309.882 74.7678 310.519 75.2576C311.155 75.7472 311.777 76.4518 311.895 76.7892C312.035 77.1471 312.054 77.7018 311.982 78.0666C311.886 78.4112 311.611 79.0389 311.326 79.4537C311.062 79.8682 310.319 80.6195 309.697 81.1102C309.073 81.601 307.881 82.3247 307.084 82.7363C306.286 83.1478 305.046 83.7031 304.349 83.9619C303.654 84.2421 302.239 84.7185 301.184 85.0536C300.127 85.3676 298.625 85.7831 297.8 85.961C296.78 86.167 293.498 86.387 287.251 86.6035C281.387 86.8281 277.506 87.168 276.703 87.2461C275.949 87.2722 274.177 87.2708 273.88 87.345C273.826 85.7869 273.31 72.5602 273.252 70.8741L277.562 70.7478C279.951 70.6863 283.152 70.6389 284.669 70.6717ZM298.41 72.7773C298.123 72.5103 296.924 72.5075 289.934 72.7926C285.434 72.9699 281.38 73.0686 280.907 73.0209C280.436 72.9734 279.86 72.9726 279.605 73.0453C279.31 73.1198 279.128 73.3817 279.036 73.8325C278.985 74.2176 278.937 74.6876 278.944 74.9013C278.951 75.0931 279.113 75.4083 279.288 75.5727C279.577 75.8394 281.119 75.8284 290.56 75.5012C296.552 75.2721 302.783 75.1205 304.365 75.151C306.823 75.215 307.228 75.1791 307.026 74.9302C306.913 74.7631 306.088 74.3451 305.243 73.9908C304.181 73.5583 302.953 73.2592 301.473 73.0971C300.252 72.9476 299.14 72.901 299.013 72.9692C298.866 73.0376 298.587 72.9412 298.41 72.7773Z" fill="var(--fill-0, white)"/>
<path d="M291.647 31.0825C291.636 31.3206 291.322 32.2351 290.927 33.1074C290.533 33.9819 289.167 37.3223 287.921 40.5146C286.655 43.7039 285.06 47.6714 284.358 49.3271C283.682 50.9663 283.012 52.6732 282.877 53.0802C282.625 53.8096 282.653 53.8824 283.53 54.6484C284.29 55.3443 284.421 55.5483 284.299 56.0887C284.224 56.4213 284.171 57.0429 284.211 57.4453C284.258 57.915 284.442 58.2637 284.788 58.473C285.251 58.7521 285.768 58.6932 288.326 58.1122C289.969 57.7179 292.397 57.0424 293.707 56.5729C295.015 56.1033 297.006 55.3283 298.144 54.8418C299.281 54.3554 300.897 53.6933 301.76 53.3634C302.622 53.0334 303.131 52.908 302.918 53.0787C302.704 53.2491 302.133 53.6442 301.665 53.9754C301.174 54.302 300.004 55.1311 299.063 55.8147C298.1 56.4935 295.854 58.1063 294.077 59.3881C292.28 60.6654 290.634 61.8455 290.421 62.016C290.14 62.1928 290.052 62.3921 290.175 62.5291C290.276 62.6612 291.206 62.8049 292.434 62.8854C293.585 62.9266 294.603 63.07 294.663 63.1929C294.726 63.2948 294.577 63.479 294.31 63.5933C294.039 63.7291 292.315 64.1918 290.467 64.6272C288.614 65.0831 286.499 65.6333 285.749 65.8574C285.019 66.0863 284.261 66.2423 284.094 66.2045C283.844 66.1481 283.848 65.8431 284.567 63.1442L283.454 62.9356C282.862 62.8459 282.084 62.8017 281.728 62.8306C281.388 62.8849 281.086 62.8599 281.038 62.7834C280.991 62.7046 281.387 61.9207 281.909 61.0568C282.431 60.1916 282.839 59.4533 282.822 59.4277C282.805 59.4018 282.513 59.2477 282.2 59.0897C281.77 58.8617 281.64 58.8549 281.702 59.0653C281.773 59.2341 281.661 59.3397 281.428 59.3089L281.059 59.2236C280.918 59.1892 280.773 59.1516 280.662 59.1155C280.375 59.0289 279.947 59.2812 279.193 60.0062C278.606 60.5727 278.09 61.1126 278.02 61.2288C277.949 61.3439 277.857 61.3662 277.809 61.2897C277.74 61.2035 277.762 60.1399 277.866 58.8993C277.951 57.6517 277.929 56.4887 277.837 56.3141C277.681 56.0382 277.598 56.0197 277.358 56.206C277.2 56.3238 276.584 57.2115 275.98 58.1457L275.132 59.4551C274.89 59.8288 274.706 60.1096 274.64 60.2042C274.466 60.4925 274.301 60.2575 273.737 58.9724C273.365 58.1019 272.964 57.356 272.86 57.3326C272.736 57.3045 272.572 57.8363 272.442 58.7029C272.326 59.5072 272.128 61.0574 272.009 62.1667C271.87 63.2705 271.67 64.2528 271.569 64.3196C271.462 64.4046 271.077 64.1646 270.742 63.805C270.404 63.4666 270.019 62.943 269.905 62.6768C269.785 62.4311 269.563 61.8556 269.419 61.4298C269.274 61.0027 268.547 59.3749 267.811 57.7894C267.076 56.2029 266.316 54.4349 266.1 53.8399C265.884 53.2448 265.556 52.2751 264.987 50.5299L265.526 50.7598C265.845 50.8975 266.492 51.3282 267.014 51.7297C267.52 52.106 268.161 52.5573 268.439 52.6858C268.715 52.8137 269.049 52.8886 269.192 52.8335C269.337 52.7787 269.547 52.5208 269.696 52.2489C269.824 51.9717 269.908 51.5087 269.868 51.1937C269.85 50.8833 269.761 49.7267 269.658 48.6328C269.577 47.5431 269.329 44.6685 269.103 42.2793C268.876 39.8986 268.715 37.9014 268.728 37.8243C268.722 37.7575 268.897 37.9488 269.075 38.2293C269.252 38.5093 269.403 38.8066 269.364 38.8855C269.345 39.003 270.003 41.7907 270.799 45.131C271.622 48.4629 272.456 51.5569 272.647 51.9733C272.85 52.4342 273.535 53.1791 274.162 53.6922C275.053 54.3957 275.385 54.5799 275.535 54.3957C275.652 54.2683 275.839 53.8296 275.928 53.4349C276.017 53.0397 276.292 52.2063 276.537 51.6064C276.803 51.0108 277.139 50.1026 277.318 49.5966C277.478 49.0856 278.463 46.9473 279.506 44.8447C280.528 42.7372 281.577 40.417 281.825 39.7077C282.073 38.9987 282.411 38.3744 282.571 38.345C282.729 38.3155 282.879 38.3284 282.927 38.4044C282.976 38.4808 282.849 39.4362 282.646 40.5268C282.466 41.622 282.29 42.7838 282.282 43.1106C282.284 43.5913 282.401 43.7491 282.796 43.8383C283.254 43.9416 283.422 43.7824 284.151 42.6797C284.6 41.9506 285.219 40.9538 285.538 40.4141C285.831 39.89 286.348 38.9571 286.676 38.3754C286.921 37.9391 287.327 37.2934 287.687 36.76L288.363 35.7917C288.723 35.2584 289.128 34.6125 289.374 34.1763C289.702 33.5948 290.225 32.7292 290.551 32.2563C290.875 31.7834 291.241 31.2318 291.396 31.0261L291.636 30.644L291.647 31.0825Z" fill="var(--fill-0, white)"/>
<path d="M301.012 56.987C301.246 56.987 301.203 57.0722 300.904 57.2854C300.669 57.435 299.624 57.9252 298.556 58.3725C297.49 58.8202 296.338 59.1612 295.997 59.1399C295.655 59.1399 295.25 59.0333 295.143 58.9054C294.993 58.7563 295.078 58.6923 295.42 58.6923C295.675 58.6923 296.488 58.4579 297.213 58.1807C297.96 57.9036 298.899 57.6053 299.305 57.5199C299.71 57.4347 300.199 57.2855 300.371 57.1789C300.541 57.0724 300.841 56.9871 301.012 56.987Z" fill="var(--fill-0, white)"/>
<path d="M299.133 42.0387C299.22 42.0391 299.902 42.1883 300.67 42.3797C301.438 42.5717 302.613 43.019 304.512 43.9571L304.106 44.5326C303.87 44.8742 302.804 46.0036 301.694 47.0479C300.606 48.0924 298.941 49.7349 298.002 50.673C297.064 51.6108 296.124 52.4634 295.91 52.5488C295.719 52.6339 295.57 52.6339 295.613 52.5275C295.655 52.441 296.017 51.6527 296.443 50.7796C296.87 49.9056 297.512 47.9435 297.895 46.4084C298.259 44.874 298.641 43.2755 298.771 42.8487V42.8274C298.877 42.401 299.049 42.0387 299.133 42.0387Z" fill="var(--fill-0, white)"/>
</g>
</g>
</svg>
