<svg preserveAspectRatio="none" width="100%" height="100%" overflow="visible" style="display: block;" viewBox="0 0 384 580.596" fill="none" xmlns="http://www.w3.org/2000/svg">
<g id="Group 1">
<path id="Vector" d="M133.869 241.201C135.541 239.997 137.244 238.838 138.978 237.725C170.047 217.641 208.669 214.342 244.51 222.397C277.116 229.325 309.953 243.548 310.918 282.178C311.052 287.521 308.864 295.19 311.71 299.335C317.361 298.052 323.28 296.981 328.987 295.873L330.646 295.635C334.025 294.897 340.223 292.973 342.995 295.652C343.25 299.031 335.37 299.823 332.968 300.218C333.946 303.729 337.006 308.256 338.461 311.92C355.511 354.818 351.77 405.758 332.514 447.264C327.29 458.525 311.854 474.58 300.233 478.802C298.304 480.725 293.984 484.995 291.861 486.494C280.096 494.786 263.752 498.845 249.438 498.853C245.942 498.862 242.452 498.614 238.994 498.112C238.493 497.967 235.985 497.73 235.313 497.654C225.945 495.373 221.361 493.595 213.949 487.443L213.415 485.919C212.08 481.568 210.801 477.2 209.587 472.813L209.248 471.091C208.066 467.546 206.968 463.361 205.813 459.683L205.544 458.1C199.203 460.752 180.151 461.658 173.039 460.935C173.1 461.782 173.122 463.229 173.416 463.937C173.793 468.258 173.786 470.318 172.776 474.547L172.145 476.06C168.781 482.659 166 484.944 159.637 488.894L157.927 489.581C151.688 492.007 145.042 493.208 138.349 493.119C114.781 493.018 83.0225 477.404 83.2218 450.435C76.9412 440.462 76.4272 425.076 78.8015 413.804C61.145 387.468 54.5497 357.018 57.6953 325.599C62.3192 279.408 78.368 235.836 133.869 241.201Z" fill="var(--fill-0, #FCFCFC)"/>
<path id="Vector_2" d="M330.646 295.635C334.025 294.897 340.223 292.973 342.995 295.652C343.25 299.031 335.369 299.823 332.968 300.218C333.946 303.729 337.006 308.256 338.461 311.92C355.51 354.818 351.77 405.758 332.514 447.264C327.29 458.524 311.854 474.58 300.233 478.802C298.304 480.725 293.984 484.995 291.861 486.493C280.096 494.786 263.752 498.845 249.437 498.852C245.942 498.862 242.452 498.614 238.994 498.112C238.493 497.967 235.985 497.73 235.313 497.654C225.945 495.373 221.361 493.594 213.948 487.443L213.415 485.919C212.08 481.568 210.801 477.199 209.586 472.813L209.248 471.091C208.066 467.546 206.967 463.361 205.813 459.683L205.544 458.1C204.566 454.946 203.635 451.413 202.726 448.213L202.211 446.128C198.322 433.718 195.198 420.741 191.476 408.254C189.487 400.094 186.168 391.57 184.935 383.301C182.729 368.505 198.948 356.773 210.314 351.75C231.957 342.187 257.693 340.226 279.925 348.502C281.019 344.054 281.992 339.368 282.984 334.878L283.596 332.47C284.699 327.765 286.53 321.179 287.161 316.615L287.889 314.807C287.93 314.518 288.069 313.688 287.99 313.36C287.119 309.701 290.841 303.859 294.693 303.12L295.574 302.63C299.769 299.133 304.91 300.604 309.819 299.627L310.477 299.494L311.71 299.335C317.361 298.052 323.28 296.981 328.986 295.873L330.646 295.635Z" fill="var(--fill-0, #FCFCFC)"/>
<path id="Vector_3" d="M330.855 300.581L332.968 300.218C333.946 303.729 337.006 308.256 338.461 311.92C355.511 354.818 351.77 405.758 332.514 447.264C327.29 458.525 311.854 474.58 300.233 478.802C300.817 477.706 301.517 476.614 302.175 475.551C304.437 470.94 303.144 461.06 302.931 455.31V453.912C302.421 447.574 301.948 438.921 302.05 432.683L301.568 427.229C301.517 417.309 300.678 405.711 300.242 395.629C300.168 390.955 300.001 386.282 299.732 381.614C300.14 382.038 299.89 381.829 300.525 382.191C301.498 360.631 300.149 343.263 290.865 323.606L291.342 321.575C292.529 315.437 293.154 312.7 298.332 308.77L299.732 308.413C304.827 306.458 307.501 304.903 312.929 304.151L314.524 303.805L330.855 300.581Z" fill="var(--fill-0, black)"/>
<path id="Vector_4" d="M330.855 300.581L332.968 300.218C333.946 303.729 337.006 308.256 338.461 311.92C355.511 354.818 351.77 405.758 332.514 447.264C327.29 458.525 311.854 474.58 300.233 478.802C300.817 477.706 301.517 476.614 302.175 475.551C304.437 470.94 303.144 461.06 302.931 455.31V453.912C313.87 442.27 318.2 433.668 322.497 418.471C333.951 377.995 332.894 341.243 312.929 304.151L314.524 303.805L330.855 300.581Z" fill="var(--fill-0, black)"/>
<path id="Vector_5" d="M330.855 300.581L332.968 300.218C333.946 303.729 337.006 308.256 338.461 311.92C355.511 354.818 351.77 405.758 332.514 447.264C327.29 458.525 311.854 474.58 300.233 478.802C300.817 477.706 301.517 476.614 302.175 475.551L303.144 475.652C308.957 472.29 314.283 468.148 318.969 463.341C340.566 440.957 348.228 396.288 347.635 366.25C347.269 347.463 342.884 325.691 335.142 308.527C334.326 306.72 332.176 301.85 330.855 300.581Z" fill="var(--fill-0, #625CE3)"/>
<path id="Vector_6" d="M312.929 304.151L314.524 303.805C316.23 307.166 318.256 310.288 319.813 313.746C335.152 347.823 334.239 387.338 322.947 422.447C319.6 432.846 312.466 449.634 302.931 455.31V453.912C313.87 442.27 318.2 433.668 322.497 418.471C333.951 377.995 332.894 341.243 312.929 304.151Z" fill="var(--fill-0, #625CE3)"/>
<path id="Vector_7" d="M298.332 308.77C301.266 314.717 305.146 321.763 307.339 327.844C317.834 356.933 316.151 389.199 306.375 418.234C305.415 421.096 303.946 425.579 302.754 428.15L302.138 428.381L301.568 427.229C301.517 417.309 300.678 405.711 300.242 395.629C300.168 390.955 300.001 386.282 299.732 381.614C300.14 382.038 299.89 381.829 300.525 382.191C301.498 360.631 300.149 343.263 290.865 323.606L291.342 321.575C292.529 315.437 293.154 312.7 298.332 308.77Z" fill="var(--fill-0, black)"/>
<path id="Vector_8" d="M291.342 321.575C293.734 325.018 296.121 331.331 297.438 335.411C304.446 357.089 302.685 373.841 300.242 395.629C300.168 390.955 300.001 386.282 299.732 381.614C300.14 382.038 299.89 381.829 300.525 382.191C301.498 360.631 300.149 343.263 290.865 323.606L291.342 321.575Z" fill="var(--fill-0, #625CE3)"/>
<path id="Vector_9" d="M298.332 308.77L299.732 308.413C303.278 315.812 307.191 321.509 309.93 329.891C319.646 359.641 317.352 391.595 307.265 420.93C306.296 423.747 303.635 430.549 302.05 432.683L301.568 427.229L302.138 428.381L302.755 428.15C303.946 425.579 305.415 421.096 306.375 418.234C316.151 389.199 317.834 356.933 307.339 327.844C305.147 321.762 301.267 314.717 298.332 308.77Z" fill="var(--fill-0, #625CE3)"/>
<path id="Vector_10" d="M290.865 323.606C300.15 343.263 301.498 360.631 300.525 382.191C299.89 381.829 300.14 382.038 299.732 381.614C299.232 366.625 300.238 364.031 289.038 353.229C288.584 349.445 287.884 345.575 286.609 341.978C287.838 335.93 289.432 329.633 290.865 323.606Z" fill="var(--fill-0, black)"/>
<path id="Vector_11" d="M284.532 350.757L286.609 341.978C287.884 345.574 288.584 349.444 289.038 353.229C287.569 352.694 285.905 351.584 284.532 350.757Z" fill="var(--fill-0, #625CE3)"/>
<path id="Vector_12" d="M297.22 380.127C298.175 381.521 298.541 402.839 298.68 406.073L300.488 446.042C300.794 452.133 302.676 471.083 300.02 475.015C285.066 497.146 244.394 502.544 221.648 490.693C219.52 489.584 216.294 486.99 215.233 484.634C212.6 476.792 210.514 468.627 208.279 460.652L191.592 401.131L189.807 394.781C209.73 412.526 237.348 411.079 261.573 405.283C256.344 424.214 253.114 444.392 247.889 463.393C247.106 466.242 245.47 471.944 247.699 474.229C249.34 474.204 248.724 474.311 250.221 473.465C252.335 470.57 264.999 412.553 267.15 403.336C279.359 398.914 291.087 391.991 297.22 380.127Z" fill="var(--fill-0, #625CE3)"/>
<path id="Vector_13" d="M190.59 392.092C177.883 375.688 197.173 359.655 211.246 353.499C232.815 344.063 257.216 342.16 279.42 350.426L277.297 359.68C274.682 370.792 270.7 390.668 267.507 401.109C246.777 408.28 222.603 410.247 201.961 400.911C198.086 399.158 193.159 395.514 190.59 392.092Z" fill="var(--fill-0, #625CE3)"/>
<path id="Vector_14" d="M190.59 392.092C177.883 375.688 197.173 359.655 211.246 353.499C232.815 344.063 257.216 342.16 279.42 350.426L277.297 359.68C253.424 354.29 224.675 358.177 203.5 370.733C195.184 375.663 189.691 382.127 190.59 392.092Z" fill="var(--fill-0, black)"/>
<path id="Vector_15" d="M246.596 362.905C251.454 363.609 260.479 365.508 265.18 366.68C263.845 372.485 262.44 378.273 260.961 384.044C255.153 382.869 249.336 381.725 243.513 380.613C241.928 382.232 240.449 384.109 238.405 384.868C237.923 381.535 241.52 380.915 242.42 378.302C243.467 375.259 244.311 370.682 244.997 367.485C240.876 371.603 236.06 376.916 231.151 379.855C234.729 373.855 241.534 367.912 246.596 362.905Z" fill="var(--fill-0, #FCFCFC)"/>
<path id="Vector_16" d="M247.602 365.094L262.649 368.148C261.689 372.654 260.595 377.245 259.58 381.75C254.588 380.59 249.544 379.792 244.441 378.561C245.567 374.081 246.744 369.633 247.602 365.094Z" fill="var(--fill-0, #625CE3)"/>
<path id="Vector_17" d="M206.036 378.386C209.73 378.701 227.586 382.492 231.331 383.593L234.771 389.918C234.006 393.257 232.88 399.553 231.039 402.149L230.437 402.156C229.802 400.244 229.996 400.838 230.474 398.602L232.541 391.029C225.778 389.359 217.889 387.929 210.996 386.511C210.476 388.438 210.133 390.669 208.646 391.894L208.066 391.451C207.635 389.464 208.511 387.508 209.155 385.546C208.02 383.583 205.948 380.508 206.036 378.386Z" fill="var(--fill-0, #FCFCFC)"/>
<path id="Vector_18" d="M208.905 380.875C215.107 382.386 221.629 382.94 227.711 384.804C230.349 385.612 230.641 386.304 231.846 388.723C225.458 387.242 218.746 386.561 212.498 384.64C210.12 383.908 209.948 383.114 208.905 380.875Z" fill="var(--fill-0, #625CE3)"/>
<path id="Vector_19" d="M284.004 352.669C285.677 353.602 286.554 354.246 288.06 355.361L289.706 356.7C296.01 362.313 297.628 366.489 296.96 374.85C296.84 375.32 296.701 375.786 296.543 376.248C292.821 387.429 283.276 393.476 273.375 398.582L282.048 361.263L284.004 352.669Z" fill="var(--fill-0, #625CE3)"/>
<path id="Vector_20" d="M284.004 352.669C285.677 353.602 286.554 354.246 288.06 355.361L289.706 356.7L290.211 362.658L289.65 363.792C289.423 363.731 288.904 363.623 288.746 363.507C287.606 364.086 283.554 361.829 282.048 361.263L284.004 352.669Z" fill="var(--fill-0, black)"/>
<path id="Vector_21" d="M288.06 355.361L289.706 356.7L290.211 362.658L289.65 363.792C289.423 363.731 288.904 363.623 288.746 363.507L288.06 355.361Z" fill="var(--fill-0, #625CE3)"/>
<path id="Vector_22" d="M289.706 356.7C296.01 362.313 297.628 366.488 296.96 374.849C294.87 367.376 291.133 368.877 290.211 362.658L289.706 356.7Z" fill="var(--fill-0, black)"/>
<path id="Vector_23" d="M133.869 241.201C135.541 239.997 137.244 238.838 138.978 237.725C170.047 217.641 208.669 214.342 244.51 222.397C277.116 229.325 309.953 243.548 310.918 282.178C311.052 287.521 308.864 295.19 311.71 299.335L310.477 299.494L309.819 299.627C304.91 300.605 299.769 299.134 295.574 302.631L294.693 303.12C290.841 303.86 287.119 309.702 287.991 313.36C288.069 313.689 287.93 314.518 287.889 314.807L287.161 316.615C286.53 321.179 284.699 327.766 283.596 332.471L282.984 334.879C282.405 333.991 279.026 327.003 278.057 325.246C272.833 315.769 268.239 311.253 260.614 304.041C264.28 300.817 267.238 297.711 268.851 292.95C270.288 288.84 269.996 284.323 268.035 280.434C264.086 272.552 254.532 269.774 246.573 267.234C233.07 262.795 218.922 260.654 204.71 260.901C202.564 260.933 198.55 260.806 196.774 261.72L193.168 260.363C186.878 258.124 180.512 256.107 174.082 254.315C172.761 253.893 171.459 253.716 170.093 253.478C165.358 252.149 157.021 250.661 152.174 250.307C151.063 250.297 149.524 249.978 148.381 249.782C135.113 249.167 123.46 248.831 112.278 257.024L110.426 259.595C104.636 260.271 95.1062 267.44 91.7232 272.177C76.7058 293.209 71.8432 330.764 74.8914 355.774C77.4113 376.445 84.2713 393.603 96.6257 409.719C93.8792 419.595 93.4662 422.702 94.5657 433.163L93.3647 433.94C88.3667 438.218 85.1984 441.729 83.5519 448.323L83.2218 450.435C76.9412 440.462 76.4272 425.076 78.8015 413.804C61.145 387.468 54.5497 357.018 57.6953 325.599C62.3192 279.408 78.368 235.836 133.869 241.201Z" fill="var(--fill-0, black)"/>
<path id="Vector_24" d="M152.174 250.307L151.612 249.635C153.605 247.975 158.917 245.722 161.494 244.61C179.826 236.79 199.834 233.719 219.669 235.682C236.996 237.256 252.752 241.274 268.869 247.843C286.73 255.125 296.038 271.013 294.211 290.161C293.664 295.866 289.678 299.196 294.694 303.12C290.842 303.86 287.119 309.702 287.991 313.36C288.069 313.689 287.93 314.518 287.889 314.807L287.161 316.615C286.531 321.18 284.7 327.766 283.596 332.471L282.984 334.879C282.405 333.991 279.026 327.003 278.057 325.246C272.833 315.769 268.239 311.253 260.614 304.041C264.28 300.817 267.238 297.711 268.851 292.95C270.288 288.84 269.996 284.324 268.035 280.434C264.086 272.552 254.532 269.774 246.573 267.234C233.07 262.795 218.922 260.654 204.71 260.901C202.564 260.933 198.55 260.806 196.774 261.72L193.168 260.363C186.878 258.124 180.512 256.107 174.082 254.315C172.761 253.893 171.459 253.716 170.093 253.478C165.358 252.149 157.022 250.661 152.174 250.307Z" fill="var(--fill-0, black)"/>
<path id="Vector_25" d="M174.082 254.315C177.333 252.741 184.625 251.14 188.282 250.51C210.277 246.727 233.084 249.739 254.068 256.925C264.048 260.344 273.843 264.329 278.604 274.437C283.337 284.485 281.506 293.596 276.629 302.985C280.495 307.241 284.018 311.799 287.161 316.615C286.53 321.179 284.699 327.765 283.596 332.47L282.984 334.878C282.405 333.991 279.026 327.003 278.057 325.246C272.833 315.769 268.239 311.253 260.614 304.041C264.28 300.817 267.238 297.711 268.851 292.95C270.288 288.84 269.996 284.323 268.035 280.434C264.086 272.552 254.532 269.774 246.573 267.234C233.07 262.794 218.922 260.654 204.71 260.901C202.564 260.932 198.549 260.806 196.774 261.719L193.168 260.363C186.877 258.124 180.512 256.106 174.082 254.315Z" fill="var(--fill-0, black)"/>
<path id="Vector_26" d="M193.168 260.363C211.547 255.753 245.414 262.95 261.939 271.638C274.705 278.349 273.384 295.399 262.816 304.15C271.679 311.387 279.183 321.914 283.596 332.47L282.984 334.879C282.405 333.991 279.026 327.003 278.057 325.246C272.833 315.769 268.239 311.253 260.614 304.041C264.28 300.817 267.238 297.711 268.851 292.95C270.288 288.84 269.996 284.323 268.035 280.434C264.086 272.552 254.532 269.774 246.573 267.234C233.07 262.794 218.922 260.654 204.71 260.901C202.564 260.932 198.55 260.806 196.774 261.72L193.168 260.363Z" fill="var(--fill-0, #625CE3)"/>
<path id="Vector_27" d="M170.092 253.478C173.117 253.023 176.007 251.898 178.948 251.085C183.86 249.7 188.871 248.681 193.933 248.037C214.092 245.47 235.429 248.871 254.574 255.376C260.043 257.235 265.754 259.328 270.51 262.658C284.05 272.14 286.475 288.869 278.418 302.884C282.159 306.578 284.964 310.465 287.889 314.807L287.161 316.615C284.018 311.799 280.495 307.241 276.629 302.985C281.506 293.596 283.337 284.485 278.604 274.437C273.843 264.329 264.048 260.344 254.068 256.926C233.084 249.739 210.277 246.727 188.282 250.51C184.625 251.14 177.333 252.741 174.082 254.315C172.761 253.893 171.459 253.715 170.092 253.478Z" fill="var(--fill-0, #625CE3)"/>
<path id="Vector_28" d="M133.869 241.201C135.541 239.997 137.244 238.838 138.978 237.725C170.047 217.641 208.669 214.342 244.51 222.397C277.116 229.325 309.953 243.548 310.918 282.178C311.052 287.521 308.864 295.19 311.71 299.335L310.477 299.494C309.253 298.18 308.136 297.412 308.433 295.573C311.316 278.114 307.761 261.161 295.658 247.814C287.147 238.426 277.408 234.463 265.898 230.202C225.774 215.353 169.097 214.876 134.027 243.077C118.798 240.289 103.086 243.676 90.3567 252.488C76.2677 262.439 70.1971 276.535 65.5973 292.482C53.5934 334.1 56.1341 376.928 80.5402 413.449C78.0816 424.611 78.8098 437.836 83.5519 448.323L83.2218 450.435C76.9412 440.462 76.4272 425.076 78.8015 413.804C61.145 387.468 54.5497 357.018 57.6953 325.599C62.3192 279.408 78.368 235.836 133.869 241.201Z" fill="var(--fill-0, #625CE3)"/>
<path id="Vector_29" d="M94.8617 409.96C87.8835 401.127 82.4573 391.171 78.8157 380.52C68.0799 349.701 71.3452 309.611 84.9201 279.846C90.2731 268.109 100.342 261.144 112.278 257.024L110.426 259.595C104.636 260.271 95.106 267.44 91.7231 272.177C76.7056 293.209 71.843 330.764 74.8913 355.774C77.4111 376.445 84.2711 393.603 96.6255 409.719C93.879 419.595 93.466 422.702 94.5656 433.163L93.3645 433.94C91.3954 424.816 92.4184 418.668 94.8617 409.96Z" fill="var(--fill-0, #625CE3)"/>
<path id="Vector_30" d="M148.381 249.782C177.1 232.042 211.278 230.214 243.555 237.913C254.861 240.609 268.313 244.766 278.094 250.925C291.903 259.625 298.698 277.707 295.231 293.45C294.777 295.518 293.674 298.206 293.896 300.19L295.574 302.631L294.694 303.12C289.678 299.196 293.664 295.866 294.211 290.161C296.038 271.013 286.73 255.125 268.869 247.843C252.752 241.273 236.996 237.256 219.669 235.682C199.834 233.719 179.826 236.79 161.494 244.61C158.917 245.722 153.605 247.974 151.612 249.635L152.174 250.307C151.063 250.297 149.524 249.978 148.381 249.782Z" fill="var(--fill-0, #625CE3)"/>
<path id="Vector_31" d="M196.774 261.72C198.55 260.806 202.564 260.932 204.71 260.901C218.922 260.654 233.07 262.795 246.573 267.234C254.532 269.774 264.086 272.552 268.035 280.434C269.996 284.323 270.288 288.84 268.851 292.95C267.238 297.711 264.28 300.817 260.614 304.041C268.239 311.253 272.833 315.769 278.057 325.246C279.026 327.003 282.405 333.991 282.984 334.879C281.992 339.369 281.019 344.054 279.925 348.503C257.693 340.226 231.957 342.187 210.314 351.75C198.948 356.773 182.729 368.505 184.935 383.301C186.168 391.571 189.487 400.094 191.476 408.255C195.198 420.741 198.322 433.718 202.212 446.129L202.726 448.214C203.635 451.413 204.566 454.946 205.544 458.1C199.203 460.752 180.15 461.658 173.039 460.935C171.237 456.508 169.908 453.852 167.238 449.908C166.948 449.664 166.244 448.586 165.981 448.21C155.851 437.863 150.03 434.734 136.571 429.867C144.409 405.554 147.764 380.208 171.401 368.712C175.289 366.821 181.269 362.461 185.181 359.984L231.216 330.889C236.366 327.642 248.673 320.627 251.486 316.273C260.952 301.644 236.792 283.89 227.521 277.52C229.602 275.243 232.138 273.199 231.128 269.906L230.131 269.496C226.548 269.954 225.611 271.966 223.289 274.859C214.778 269.576 205.948 265.655 196.774 261.72Z" fill="var(--fill-0, black)"/>
<path id="Vector_32" d="M167.239 449.908C179.054 451.052 191.147 451.119 202.726 448.214C203.635 451.413 204.566 454.946 205.544 458.1C199.203 460.752 180.151 461.658 173.039 460.935C171.238 456.508 169.908 453.852 167.239 449.908Z" fill="var(--fill-0, black)"/>
<path id="Vector_33" d="M202.211 446.129L202.726 448.214C191.147 451.119 179.054 451.052 167.238 449.908C166.948 449.664 166.244 448.586 165.981 448.21C172.489 448.821 198.021 450.195 202.211 446.129Z" fill="var(--fill-0, #625CE3)"/>
<path id="Vector_34" d="M96.6255 409.719C84.2711 393.603 77.4111 376.445 74.8913 355.774C71.843 330.764 76.7056 293.209 91.7231 272.177C95.106 267.44 104.636 260.271 110.426 259.595C108.377 264.368 108.237 267.673 110.041 272.642L110.476 273.848C111.845 277.204 113.157 280.583 114.412 283.984L114.952 285.559C110.028 290.463 108.825 293.335 106.525 299.972C94.3213 335.187 96.5718 380.767 128.041 405.735C120.224 412.178 118.462 416.888 119.029 426.962C117.33 427.377 116.874 427.523 115.141 427.47C112.255 427.493 110.986 427.677 108.117 428.161C107.413 428.298 106.819 428.445 106.103 428.487C102.09 429.704 98.1956 430.985 94.5656 433.163C93.466 422.702 93.879 419.595 96.6255 409.719Z" fill="var(--fill-0, black)"/>
<path id="Vector_35" d="M110.476 273.848C111.845 277.204 113.157 280.583 114.412 283.984L114.952 285.559C110.028 290.463 108.825 293.336 106.525 299.972C94.3212 335.187 96.5717 380.767 128.041 405.735C120.224 412.178 118.462 416.889 119.029 426.962C117.33 427.378 116.874 427.523 115.141 427.47C112.255 427.493 110.986 427.677 108.117 428.161C104.092 425.511 110.078 410.303 111.807 406.812C86.3228 377.638 83.0599 342.46 92.1481 305.695C95.6233 291.637 98.7365 282.891 110.476 273.848Z" fill="var(--fill-0, black)"/>
<path id="Vector_36" d="M114.412 283.984L114.952 285.559C110.028 290.464 108.825 293.336 106.525 299.972C94.3214 335.187 96.5719 380.767 128.042 405.735C120.224 412.179 118.462 416.889 119.029 426.962C117.33 427.378 116.874 427.523 115.142 427.47C115.573 427.336 117.428 426.769 117.428 426.769C117.804 424.811 117.405 420.35 117.725 418.442C118.683 412.743 121.755 409.519 125.444 405.628C93.7248 376.906 92.4506 334.105 106.292 295.793C108.119 290.736 110.537 287.602 114.412 283.984Z" fill="var(--fill-0, #625CE3)"/>
<path id="Vector_37" d="M110.041 272.642L110.476 273.848C98.7367 282.89 95.6235 291.637 92.1483 305.695C83.06 342.46 86.323 377.638 111.807 406.812C110.078 410.303 104.093 425.511 108.117 428.161C107.413 428.298 106.82 428.445 106.103 428.487C104.01 421.289 106.853 413.504 109.784 407.045C105.979 402.816 102.577 398.241 99.6207 393.38C84.3812 368.129 82.9548 335.63 89.9724 307.571C93.4773 293.557 97.1147 280.426 110.041 272.642Z" fill="var(--fill-0, #625CE3)"/>
<path id="Vector_38" d="M128.041 405.735C96.5718 380.767 94.3213 335.187 106.525 299.972C108.825 293.336 110.028 290.464 114.952 285.559L136.04 340.686C139.682 350.256 150.403 374.507 148.608 383.937C145.869 398.313 139.137 415.043 134.669 429.381C128.913 428.055 124.787 427.788 119.029 426.962C118.462 416.889 120.224 412.179 128.041 405.735Z" fill="var(--fill-0, black)"/>
<path id="Vector_39" d="M134.801 251.62C137.447 250.85 144.578 251.304 147.392 251.869C153.167 251.912 162.109 253.601 167.812 254.965L169.647 255.458C174.755 256.286 183.192 258.885 188.101 260.746C189.098 261.109 190.456 261.559 191.36 262.021C201.08 265.024 213.378 271.207 222.07 276.419L186.724 318.944C163.593 311.801 136.629 301.091 119.586 283.165L118.443 281.931C115.765 278.875 114.099 276.63 112.385 272.963L111.832 271.687C109.797 266.553 110.244 261.577 114.719 257.916C116 256.756 116.434 256.52 117.952 255.672C123.765 252.695 128.349 252.087 134.801 251.62Z" fill="var(--fill-0, black)"/>
<path id="Vector_40" d="M134.801 251.62C137.447 250.85 144.578 251.304 147.392 251.869C153.167 251.912 162.109 253.601 167.812 254.965L169.647 255.458C174.755 256.286 183.192 258.885 188.101 260.746C166.377 267.892 160.333 268.877 143.174 287.137C135.943 280.555 127.866 278.239 118.443 281.931C115.765 278.875 114.099 276.63 112.385 272.963L111.832 271.687C109.797 266.553 110.244 261.577 114.719 257.916C116 256.756 116.434 256.52 117.952 255.672C123.765 252.695 128.349 252.087 134.801 251.62Z" fill="var(--fill-0, black)"/>
<path id="Vector_41" d="M134.801 251.62C137.447 250.85 144.578 251.304 147.392 251.869C153.167 251.912 162.109 253.601 167.812 254.965C158.593 258.069 148.323 265.337 141.232 271.964C130.391 267.515 122.92 267.109 111.832 271.687C109.797 266.553 110.244 261.577 114.719 257.916C116 256.756 116.434 256.52 117.952 255.672C123.765 252.695 128.349 252.087 134.801 251.62Z" fill="var(--fill-0, black)"/>
<path id="Vector_42" d="M134.801 251.62C137.447 250.85 144.578 251.304 147.392 251.869C144.217 254.255 141.139 256.528 138.117 259.112C129.236 256.566 123.967 256.727 114.719 257.916C116 256.756 116.434 256.52 117.952 255.672C123.765 252.695 128.349 252.087 134.801 251.62Z" fill="var(--fill-0, black)"/>
<path id="Vector_43" d="M134.801 251.62C137.447 250.85 144.578 251.304 147.392 251.869C144.217 254.255 141.139 256.528 138.117 259.112C129.236 256.566 123.967 256.727 114.719 257.916C116 256.756 116.434 256.52 117.952 255.672C126.323 256.117 129.017 255.179 137.841 257.288C140.497 255.082 142.23 253.747 145.104 251.846C141.836 251.539 138.115 251.627 134.801 251.62Z" fill="var(--fill-0, #625CE3)"/>
<path id="Vector_44" d="M167.812 254.965L169.647 255.458C157.738 261.717 151.638 263.959 141.459 273.979C130.8 268.75 123.479 269.312 112.385 272.963L111.832 271.687C122.92 267.109 130.391 267.515 141.232 271.964C148.323 265.337 158.593 258.069 167.812 254.965Z" fill="var(--fill-0, #625CE3)"/>
<path id="Vector_45" d="M188.101 260.746C189.098 261.109 190.456 261.559 191.36 262.021C170.303 266.591 157.669 272.705 143.296 289.509C135.983 282.37 129.614 280.028 119.586 283.165L118.443 281.931C127.866 278.239 135.943 280.555 143.174 287.137C160.333 268.877 166.377 267.892 188.101 260.746Z" fill="var(--fill-0, #625CE3)"/>
<path id="Vector_46" d="M118.539 429.203L119.794 429.243C124.852 429.424 129.048 430.076 133.994 431.193L131.424 439.113L131.011 440.302C129.86 443.788 128.93 447.187 126.827 450.228L125.645 451.556C122.865 454.039 120.282 454.353 117.644 456.844L117.758 456.767L117.767 457.376C122.892 456.302 124.572 455.412 128.34 451.745C128.961 456.072 129.955 459.435 133.616 462.373L134.067 462.148C134.198 460.199 131.571 457.555 130.617 454.279L130.379 451.753C130.356 447.835 131.675 444.615 132.908 440.941L133.429 439.789C134.185 437.094 135.017 434.421 135.923 431.772C146.459 435.425 154.344 439.096 162.394 447.344C163.306 448.239 163.573 448.512 164.314 449.545C167.657 453.568 168.666 455.642 170.665 460.472L170.985 462.152C172.063 466.479 172.148 470.055 170.666 474.351L170.129 475.823C166.786 481.752 162.323 486.136 155.638 488.168C154.572 488.561 153.325 489.061 152.253 489.381C128.723 496.51 89.6122 481.948 85.3634 455.285C84.9017 453.835 85.1168 451.265 85.2624 449.74C87.0354 443.14 88.4539 441.035 93.4435 436.365L95.2054 435.31C98.5921 432.76 102.409 431.713 106.396 430.429L107.629 430.003C110.857 429.916 114.616 429.299 118.539 429.203Z" fill="var(--fill-0, black)"/>
<path id="Vector_47" d="M93.4435 436.365L95.2054 435.31C98.9838 446.776 105.416 455.337 116.461 460.611C132.075 468.068 153.511 473.173 170.666 474.351L170.129 475.823C166.786 481.752 162.323 486.136 155.638 488.168C154.572 488.561 153.325 489.061 152.253 489.381C128.723 496.51 89.6122 481.948 85.3634 455.285C84.9017 453.835 85.1168 451.264 85.2624 449.74C87.0354 443.14 88.4539 441.035 93.4435 436.365Z" fill="var(--fill-0, black)"/>
<path id="Vector_48" d="M85.3632 455.285C88.7939 459.452 90.2012 461.726 94.279 465.711C106.431 477.589 122.627 481.572 138.395 486.309C140.951 487.078 150.666 488.518 152.252 489.381C128.723 496.51 89.612 481.948 85.3632 455.285Z" fill="var(--fill-0, black)"/>
<path id="Vector_49" d="M93.4433 436.365L95.2052 435.31C98.9836 446.776 105.416 455.337 116.461 460.611C132.075 468.068 153.51 473.173 170.666 474.351L170.129 475.823C165.566 475.814 154.369 474.2 149.686 473.08C132.221 468.77 112.185 464.44 100.352 449.695C96.944 445.45 96.0174 439.988 93.4433 436.365Z" fill="var(--fill-0, #625CE3)"/>
<path id="Vector_50" d="M85.2624 449.74C85.3333 454.382 91.9851 461.213 95.3723 464.554C106.979 476.004 125.318 480.925 140.694 485.037C144.373 486.021 152.674 487.154 155.638 488.168C154.572 488.561 153.325 489.061 152.253 489.381C150.666 488.518 140.951 487.078 138.395 486.31C122.627 481.572 106.431 477.589 94.2792 465.711C90.2014 461.726 88.7941 459.452 85.3634 455.285C84.9017 453.835 85.1168 451.265 85.2624 449.74Z" fill="var(--fill-0, #625CE3)"/>
<path id="Vector_51" d="M135.923 431.772C146.459 435.425 154.344 439.096 162.394 447.344C163.306 448.239 163.573 448.512 164.314 449.545C167.657 453.568 168.666 455.642 170.665 460.472C160.18 461.354 140.23 454.215 130.379 451.753C130.357 447.835 131.675 444.614 132.908 440.941L133.429 439.789C134.185 437.094 135.017 434.421 135.923 431.772Z" fill="var(--fill-0, black)"/>
<path id="Vector_52" d="M135.923 431.772C146.459 435.425 154.344 439.096 162.393 447.344C156.783 447.724 138.983 441.674 133.429 439.789C134.185 437.094 135.017 434.421 135.923 431.772Z" fill="var(--fill-0, black)"/>
<path id="Vector_53" d="M133.429 439.789C138.983 441.674 156.783 447.724 162.394 447.344C163.306 448.239 163.573 448.512 164.314 449.545C155.528 448.079 140.809 445.182 132.908 440.941L133.429 439.789Z" fill="var(--fill-0, #625CE3)"/>
<path id="Vector_54" d="M118.539 429.203L119.794 429.243C124.852 429.424 129.048 430.076 133.994 431.193L131.424 439.113L131.011 440.302C129.86 443.788 128.93 447.187 126.827 450.228C126.3 449.999 125.776 449.766 125.254 449.53C115.273 444.995 111.377 440.08 107.629 430.003C110.856 429.916 114.616 429.299 118.539 429.203Z" fill="var(--fill-0, black)"/>
<path id="Vector_55" d="M119.794 429.243C124.852 429.424 129.048 430.076 133.994 431.193L131.424 439.113C125.146 435.937 123.812 434.995 119.794 429.243Z" fill="var(--fill-0, black)"/>
<path id="Vector_56" d="M118.539 429.203L119.794 429.243C123.812 434.995 125.146 435.937 131.424 439.113L131.011 440.302C125.374 438.793 120.71 434.581 118.539 429.203Z" fill="var(--fill-0, #625CE3)"/>
<path id="Vector_57" d="M130.379 451.753C140.23 454.215 160.18 461.354 170.665 460.472L170.985 462.152C157.204 462.088 144.008 457.436 131.238 453.624L130.617 454.279L130.379 451.753Z" fill="var(--fill-0, #625CE3)"/>
<path id="Vector_58" d="M106.396 430.429L107.629 430.003C111.377 440.08 115.273 444.995 125.254 449.53C125.776 449.766 126.3 449.999 126.826 450.228L125.645 451.556C115.185 446.474 109.655 442.022 106.396 430.429Z" fill="var(--fill-0, #625CE3)"/>
<path id="Vector_59" d="M226.256 278.964C257.188 300.339 266.148 324.873 217.546 324.083C210.124 323.987 199.212 321.772 192.018 320.21C202.62 307.808 216.364 291.728 226.256 278.964Z" fill="var(--fill-0, black)"/>
<path id="Vector_60" d="M141.876 319.091C155.053 318.299 167.542 322.242 179.274 327.87L175.751 332.272C172.229 330.854 169.206 330.747 165.777 332.486C163.261 333.751 161.397 336.02 160.645 338.734C159.564 342.592 160.489 345.02 162.227 348.267C159.225 347.206 148.743 341.693 146.81 342.937C149.264 346.117 157.516 347.643 160.361 350.179C159.9 351.623 159.449 352.391 159.843 353.76C161.126 354.814 160.574 354.498 162.29 354.8C164.026 354.337 164.824 353.11 166.074 351.727C172.435 353.315 175.971 353.915 182.39 354.619H189.89C176.106 363.742 160.509 370.895 150.651 383.835C151.438 366.256 137.395 343.181 132.735 326.016C131.345 320.897 138.461 319.71 141.876 319.091Z" fill="var(--fill-0, #625CE3)"/>
<path id="Vector_61" d="M116.53 283.233C119.363 285.217 124.773 291.042 128.684 293.885C146.81 307.063 164.323 314.041 185.413 320.611C183.855 322.409 182.27 324.411 180.745 326.259C168.295 320.379 142.242 310.965 131.088 322.046C127.047 311.974 119.387 292.978 116.53 283.233Z" fill="var(--fill-0, black)"/>
<path id="Vector_62" d="M190.716 321.903C206.564 325.494 220.99 327.669 237.218 324.744L220.03 335.615L200.7 347.867C200.01 337.88 192.755 333.706 185.116 328.615L190.716 321.903Z" fill="var(--fill-0, black)"/>
<path id="Vector_63" d="M183.637 330.347C190.567 332.308 209.169 349.074 189.965 352.354C184.495 352.809 181.069 352.603 175.64 351.73C181.408 347.089 183.763 342.255 179.433 335.446L183.637 330.347Z" fill="var(--fill-0, #625CE3)"/>
<path id="Vector_64" d="M205.544 458.1L205.813 459.683C206.967 463.361 208.066 467.546 209.248 471.091L209.586 472.813C210.801 477.199 212.08 481.568 213.415 485.919L213.948 487.443C198.322 491.267 182.617 492.257 166.584 491C164.407 490.829 159.657 490.643 157.927 489.581L159.637 488.894C166 484.944 168.781 482.659 172.145 476.06L172.776 474.547C173.785 470.318 173.793 468.258 173.416 463.937C173.122 463.229 173.1 461.781 173.039 460.935C180.15 461.658 199.203 460.751 205.544 458.1Z" fill="var(--fill-0, black)"/>
<path id="Vector_65" d="M205.544 458.1L205.813 459.683C206.967 463.361 208.066 467.546 209.248 471.091C201.563 474.509 181.236 474.87 172.776 474.547C173.786 470.318 173.793 468.258 173.416 463.937C173.122 463.229 173.1 461.781 173.039 460.935C180.15 461.658 199.203 460.751 205.544 458.1Z" fill="var(--fill-0, black)"/>
<path id="Vector_66" d="M205.544 458.1L205.813 459.683C195.81 462.947 183.98 462.439 173.71 462.53C173.632 462.874 173.438 463.618 173.416 463.937C173.122 463.229 173.1 461.781 173.039 460.935C180.15 461.658 199.203 460.751 205.544 458.1Z" fill="var(--fill-0, #625CE3)"/>
<path id="Vector_67" d="M213.415 485.919L213.948 487.443C198.322 491.267 182.617 492.257 166.584 491C164.407 490.829 159.657 490.643 157.927 489.581L159.637 488.894C175.645 490.628 198.053 490.41 213.415 485.919Z" fill="var(--fill-0, #625CE3)"/>
<path id="Vector_68" d="M209.248 471.091L209.587 472.813C197.771 476.152 184.365 476.396 172.145 476.06L172.776 474.547C181.236 474.87 201.563 474.509 209.248 471.091Z" fill="var(--fill-0, #625CE3)"/>
<path id="Vector_69" d="M128.203 223.386C138.178 217.433 147.01 212.246 158.236 208.779L158.911 210.229C147.589 213.826 138.915 218.699 128.938 224.908C105.769 224.782 88.3721 228.212 70.7435 245.267C48.7158 266.578 40.8754 310.082 40.8021 339.486C40.7321 367.73 47.4883 393.753 62.3422 417.931C55.5814 481.205 111.862 502.006 163.606 507.147C184.847 509.238 206.291 507.036 226.663 500.671C228.193 500.185 234.414 498.259 235.313 497.654C235.985 497.73 238.493 497.967 238.994 498.112C236.324 498.576 226.242 502.6 221.662 503.837C202.786 509.025 183.118 510.707 163.639 508.797C111.137 503.703 54.2741 482.274 60.5682 418.396C45.102 392.504 37.8081 364.365 39.2502 334.216C41.9981 276.771 61.467 221.518 128.203 223.386Z" fill="var(--fill-0, #625CE3)"/>
<path id="Vector_70" d="M0.18973 399.987C0.760355 400.326 1.17615 400.585 1.43203 401.251C3.27879 406.067 5.11953 410.635 7.08403 415.406C7.81319 418.443 15.6717 431.825 15.6096 433.999C13.5969 504.107 72.2645 547.722 137.863 556.158C168.002 560.033 203.12 558.633 239.263 547.086C247.931 544.291 256.423 540.972 264.684 537.143C266.885 536.11 274.835 531.21 276.374 531.08C288.051 530.125 297.206 529.602 308.693 526.236C335.94 518.374 359.001 500.109 372.894 475.387C375.179 471.262 377.237 467.015 379.054 462.665C380.157 459.986 381.502 456.115 382.832 453.677L383.462 453.554L383.898 454.471C369.695 495.236 338.387 524.011 294.782 530.964C288.862 531.91 282.776 531.456 277.046 532.61C274.321 533.162 268.239 537.426 265.342 538.437C195.481 571.65 88.5938 570.227 37.0648 504.959C24.4229 489.225 16.5904 470.178 14.5077 450.103C14.027 445.532 14.5921 436.012 13.4805 432.948C11.1781 426.602 -0.553333 406.356 0.18973 399.987Z" fill="var(--fill-0, #625CE3)"/>
<path id="Vector_71" d="M281.209 193.504C283.471 193.518 287.944 195.501 290.123 196.54C302.926 202.637 314.436 209.584 324.453 219.721C337.794 233.245 346.319 250.781 348.715 269.626C349.109 272.8 349.466 286.235 350.138 287.538C363.956 314.425 370.743 341.894 370.177 372.648C369.519 408.635 360.118 454.081 333.367 480.657C319.475 494.172 299.913 503.963 280.764 506.901C275.558 507.703 269.171 507.064 264.786 508.44C261.518 509.47 255.751 513.461 252.223 514.935C239.063 520.428 220.902 526.746 206.736 528.433L206.198 526.839C218.881 525.777 240.389 518.249 252.219 513.108C256.196 511.379 261.073 507.995 264.883 506.725C268.239 505.604 274.812 506.146 278.678 505.599C292.005 503.712 303.76 499.371 315.21 492.584C343.296 475.938 355.181 449.548 362.737 418.94C371.169 384.781 370.645 346.752 359.437 313.249C358.028 309.043 356.707 305.63 354.922 301.598C353.235 297.777 349.234 290.879 348.409 287.281C347.612 283.809 347.579 276.521 347.236 272.479C346.073 259.676 342.017 247.304 335.383 236.293C325.454 219.909 310.426 208.144 293.335 199.994C289.349 198.093 284.699 195.591 280.444 194.553L281.209 193.504Z" fill="var(--fill-0, #625CE3)"/>
<path id="Vector_72" d="M96.2914 204.512L97.0808 206.786C91.1488 208.846 84.5104 211.074 78.9771 214.068C19.1454 246.441 9.00258 339.506 29.1265 396.968C30.7744 401.706 32.6856 406.349 34.8517 410.873C35.5693 412.385 40.29 422.006 40.3336 423.094C40.6609 431.224 40.5348 437.141 42.2341 445.268C54.7072 504.913 118.465 531.65 174.057 529.944C176.213 529.879 176.149 527.348 176.221 525.893C176.351 528.262 176.388 529.138 176.129 531.53C151.658 532.772 121.33 527.126 99.3207 516.432C70.6694 502.512 47.4458 478.249 40.7999 446.448C39.82 441.758 39.2837 437.221 38.9017 432.449C38.676 429.627 39.2962 425.05 38.44 422.626C37.4466 419.814 35.528 416.165 34.2134 413.405C31.8238 408.387 29.5029 403.26 27.689 398.009C8.23726 341.696 16.7169 257.106 67.6554 219.174C72.1268 215.844 79.3836 211.927 84.6745 209.663C87.1614 208.599 93.0035 206.512 95.807 205.497C95.9688 205.169 96.1301 204.841 96.2914 204.512Z" fill="var(--fill-0, #625CE3)"/>
<path id="Vector_73" d="M275.994 162.131L277.797 160.427C277.899 160.541 278.001 160.655 278.099 160.768C284.217 163.379 294.429 166.593 300.363 168.994C333.469 182.39 361.184 206.251 370.548 241.725C372.407 248.76 373.723 256.213 374.15 263.527C374.34 266.811 373.974 272.898 374.706 275.733C376.18 281.469 382.799 290.277 383.504 296.051L383.147 296.359C381.057 293.893 374.836 281.057 373.756 277.786C371.753 271.709 372.889 261.922 371.623 255.385C366.061 215.149 340.033 188.082 303.746 172.213C293.813 167.866 286.183 165.516 275.994 162.131Z" fill="var(--fill-0, #625CE3)"/>
<path id="Vector_74" d="M142.784 162.722C143.799 164.393 144.076 164.241 146.064 164.547C134.63 164.438 118.006 177.92 112.532 178.403C89.4717 180.434 71.5798 183.027 51.7521 196.37C33.1644 208.878 21.6601 224.336 11.3755 243.928C9.43275 247.629 1.59003 268.172 0.771872 269.157L0.154443 268.882C-0.282216 265.615 5.57468 252.753 7.23556 249.007C22.6174 214.321 49.4293 188.07 87.1586 179.797C92.1765 177.398 108.202 178.81 111.873 176.933C121.587 171.966 132.65 166.634 142.784 162.722Z" fill="var(--fill-0, #625CE3)"/>
<path id="Vector_75" d="M383.982 527.052C384.385 529.444 378.108 534.065 376.12 535.748C358.69 550.382 337.785 560.274 315.419 564.46C306.463 566.133 299.384 565.647 290.8 566.996C288.811 567.311 281.506 571.724 279.243 572.841C273.505 575.673 267.252 578.793 261.072 580.596C260.808 578.607 272.935 573.902 275.007 573.23C278.97 571.951 285.775 566.569 289.01 565.809C297.47 563.82 306.555 564.604 315.451 562.861C335.434 558.948 354.273 550.567 370.562 538.344C375.081 534.927 379.225 530.51 383.583 527.339L383.982 527.052Z" fill="var(--fill-0, #625CE3)"/>
<path id="Vector_76" d="M262.417 208.13C264.832 210.187 265.031 210.135 268.146 209.692C269.5 210.925 283.054 215.551 285.77 216.714C308.729 226.638 324.736 247.951 327.874 272.766C328.704 279.727 328.477 284.815 327.888 291.723C328.588 292.834 329.719 294.925 330.646 295.635L328.986 295.873C327.985 294.777 327.044 293.257 326.2 292.004C328.778 271.811 323.243 251.762 309.851 236.347C299.941 224.943 288.329 218.894 274.339 214.022C269.755 212.427 265.235 210.387 260.331 210.047L261.592 209.493L261.119 208.789L262.417 208.13Z" fill="var(--fill-0, #625CE3)"/>
<path id="Vector_77" d="M0 517.183C2.29733 517.753 12.1899 532.981 15.1218 536.369C26.1815 549.149 37.8823 558.772 52.2944 567.566C55.9879 569.823 70.5854 576.531 71.863 578.44C69.6875 578.668 65.4081 576.512 63.2688 575.46C41.4641 564.706 22.4657 549.015 7.78246 529.638C5.39613 526.454 1.24833 520.84 0 517.183Z" fill="var(--fill-0, #625CE3)"/>
<path id="Vector_78" d="M195.963 528.049L198.16 529.898C194.41 530.232 188.352 530.936 184.792 530.927L184.305 529.606C187.063 529.458 193.984 529.309 195.963 528.049Z" fill="var(--fill-0, #625CE3)"/>
<g id="Union">
<path fill-rule="evenodd" clip-rule="evenodd" d="M244.569 12.7948C238.805 18.3779 222.29 32.3994 203.032 52.8078C203.039 52.9778 203.761 53.0917 204.648 53.1292C205.57 53.1655 207.351 53.2735 208.687 53.398C210.023 53.5224 212.998 53.5917 215.351 53.5102C217.703 53.4286 221.446 53.06 223.688 52.7091C225.929 52.3582 229.526 51.6859 231.661 51.2362C233.798 50.7863 237.388 49.9093 239.619 49.2854C241.851 48.6616 244.622 47.7802 245.803 47.3635C246.944 46.9159 247.952 46.6075 248.062 46.6356C248.167 46.7003 247.042 47.696 245.579 48.8738C244.118 50.0518 241.222 52.1693 239.153 53.5731C237.085 54.977 233.676 57.1098 231.566 58.2758C229.458 59.4755 227.041 60.719 226.198 61.0566C225.356 61.3934 223.33 62.1137 221.642 62.6503C219.952 63.1531 217.382 63.8902 215.892 64.215C214.402 64.574 213.15 64.8936 213.152 64.9277C213.121 65.0693 213.133 71.3604 213.162 79.0341C213.19 86.7532 213.448 100.1 213.747 108.732C214.102 118.967 214.475 125.787 214.837 128.337C215.15 130.478 215.668 133.637 215.965 135.3C216.261 136.963 216.824 139.402 217.177 140.722C217.564 142.04 217.987 143.359 218.169 143.695C218.35 143.995 218.596 144.191 218.73 144.12C218.897 144.012 220.521 143.579 222.383 143.139C224.245 142.699 226.688 142.238 227.811 142.096C228.932 141.921 231.692 141.688 233.939 141.508C236.187 141.362 239.804 141.306 241.958 141.402C244.114 141.533 247.268 141.935 248.989 142.319C250.71 142.703 252.785 143.417 253.654 143.865C254.522 144.313 255.712 145.093 256.309 145.585C256.907 146.077 257.728 147.141 258.165 147.945C258.675 148.85 258.989 150 259.029 151.16C259.081 152.66 258.896 153.249 257.866 155.026C257.154 156.213 254.002 159.875 250.709 163.336C247.482 166.76 243.161 171.145 241.145 173.061C239.163 175.008 235.757 178.167 233.639 180.119C231.557 182.068 229.804 183.768 229.807 183.941C229.783 184.077 230.501 184.155 231.384 184.125C232.305 184.093 234.019 184.202 235.252 184.33C236.488 184.493 238.544 184.731 239.881 184.888C241.217 185.013 243.757 185.402 245.543 185.717C247.331 186.064 250.189 186.718 251.913 187.239C253.637 187.726 256.96 189.013 259.352 190.057C261.744 191.102 265.919 193.311 268.642 194.993C271.387 196.669 273.581 198.093 273.532 198.172C273.486 198.236 271.735 197.789 269.672 197.18C267.602 196.534 263.263 195.487 260.031 194.847C256.799 194.207 252.811 193.459 251.095 193.21C249.386 192.964 247.953 192.843 247.878 192.945C247.812 193.05 247.917 193.117 248.12 193.11C248.358 193.102 250.513 194.119 252.949 195.401C255.416 196.649 259.038 198.709 261.06 199.937C263.085 201.198 266.301 203.308 268.227 204.675C270.153 206.043 273.13 208.229 274.885 209.603C276.637 210.943 278.534 212.447 279.098 212.975C279.661 213.466 277.718 212.544 274.761 210.939C271.801 209.3 266.241 206.521 262.424 204.74C258.608 202.994 252.856 200.595 249.606 199.444C246.357 198.293 240.865 196.538 237.347 195.498C233.829 194.492 227.25 192.911 222.71 191.976C218.171 191.04 212.29 189.841 209.645 189.353C206.998 188.864 203.357 188.239 201.571 187.926C199.788 187.647 198.55 187.316 198.816 187.203C199.093 187.125 202.382 186.529 206.11 185.89C209.845 185.281 215.317 184.545 218.279 184.307C221.207 184.068 223.623 183.812 223.62 183.71C223.612 183.599 222.952 182.259 222.183 180.686C221.377 179.107 220.385 177.094 219.943 176.153C219.502 175.246 218.84 173.867 218.473 173.127C218.106 172.388 216.883 169.664 215.769 167.074C214.656 164.485 213.505 161.792 213.24 161.048C212.942 160.342 212.474 159.674 212.199 159.614C211.92 159.523 210.399 159.952 208.818 160.587C207.235 161.223 203.841 162.809 201.258 164.128C198.674 165.447 194.149 167.894 191.203 169.568C188.257 171.275 183.306 174.247 180.166 176.235C178.285 177.425 176.089 178.832 174.246 180.019L184.029 184.254C184.04 184.245 184.052 184.237 184.063 184.228C186.856 182.082 190.515 179.29 192.145 178.038C193.809 176.784 197.171 174.312 199.569 172.554C201.996 170.8 204.096 169.363 204.239 169.352C204.41 169.381 204.149 169.699 203.685 170.09C203.221 170.517 201.8 171.896 200.547 173.168C199.261 174.478 196.949 176.745 195.429 178.199C193.875 179.652 191.727 181.743 190.638 182.841C190.051 183.432 188.923 184.535 187.617 185.805L218.451 199.15L218.546 199.192L219.145 199.153C220.668 199.835 222.336 200.589 223.62 201.196C225.783 202.217 229.237 203.847 231.314 204.823C233.394 205.8 238.52 208.243 242.759 210.24C247.009 212.27 251.406 214.435 252.59 215.042C254.577 216.079 254.394 216.064 249.589 214.559C246.796 213.692 240.931 211.865 236.587 210.468C232.243 209.072 225.386 206.796 221.332 205.419C217.27 204.01 211.185 201.927 207.796 200.741C205.958 200.099 204.214 199.489 202.95 199.042L203.044 198.913L181.933 191.088L168.383 204.087L168.407 204.123C168.05 204.461 167.679 204.81 167.305 205.169C164.495 207.828 161.518 210.631 160.656 211.377C159.829 212.159 157.809 213.969 156.221 215.424C154.598 216.88 150.29 220.652 146.644 223.784C142.996 226.916 137.62 231.44 134.697 233.796C131.774 236.153 126.154 240.517 122.227 243.454C118.301 246.425 113.242 250.153 110.976 251.769C108.749 253.38 106.916 254.635 106.906 254.539C106.915 254.424 109.345 251.783 112.301 248.648C115.263 245.472 118.985 241.55 120.601 239.889C122.216 238.228 124.594 235.856 125.848 234.582C127.135 233.309 129.049 231.398 130.139 230.335C131.229 229.273 133.476 227.075 135.095 225.517C136.747 223.923 139.556 221.228 141.374 219.525C143.193 217.823 145.808 215.444 147.167 214.27C148.521 213.065 149.711 212 149.816 211.889C149.914 211.784 151.472 210.397 153.295 208.832C155.118 207.232 159.135 203.914 162.259 201.415C164.402 199.675 166.259 198.103 167.213 197.246L175.901 190.368C176.233 190.179 176.782 189.807 177.368 189.395L165.931 185.155L158.104 189.996L156.33 190.96C155.09 191.653 152.274 193.153 150.06 194.289C147.846 195.423 144.522 197.043 142.672 197.859C140.823 198.674 138.466 199.643 137.456 200.053C136.444 200.429 134.083 201.264 132.228 201.908C130.372 202.553 127.702 203.365 126.312 203.652C124.923 203.973 121.697 204.495 119.181 204.788C115.713 205.214 113.632 205.287 110.655 205.084C108.499 204.953 105.172 204.556 103.283 204.247C101.395 203.936 98.6734 203.244 97.2575 202.781C95.8404 202.283 93.6888 201.3 92.468 200.556C91.2824 199.846 89.4225 198.44 88.364 197.452C87.3054 196.464 85.6746 194.71 84.7821 193.581C83.8881 192.417 82.9921 191.216 82.8109 190.914C82.5209 190.379 83.4264 189.798 89.5903 186.513C93.5116 184.395 99.6103 181.041 103.091 179.009C106.572 176.975 110.72 174.506 112.293 173.563C113.253 172.987 114.874 171.995 116.577 170.954L116.699 171.025L121.026 168.51L87.7194 156.164C86.6768 155.759 86.0195 155.509 85.8825 155.453C85.4344 155.267 81.4284 153.697 76.9857 151.974C72.5431 150.252 66.0831 147.641 62.6241 146.226C59.1558 144.779 52.2847 141.864 47.3016 139.77C42.3203 137.676 37.4434 135.586 36.4063 135.113C35.3828 134.674 34.8113 134.313 35.112 134.364C35.4311 134.451 37.5177 134.994 39.762 135.596C42.0127 136.199 45.9161 137.193 48.4667 137.848C51.0079 138.47 54.8796 139.369 57.0999 139.873C59.3217 140.379 64.7703 141.406 77.3054 143.603L52.4023 130.237C38.7196 122.88 27.421 116.72 27.2407 116.487C27.0735 116.288 29.2438 117.094 32.071 118.307C34.8516 119.496 37.2382 120.557 37.3707 120.627C37.5163 120.703 39.9853 121.805 42.9187 123.049C45.8404 124.34 49.4466 125.889 50.9516 126.503C51.7878 126.845 53.2079 127.45 54.7682 128.116L55.042 128.437L55.1355 128.476L132.386 161.905L138.978 158.075C139.062 158.032 139.149 157.989 139.238 157.943C140.881 157.066 144.507 155.199 147.29 153.737C150.04 152.309 153.662 150.441 155.341 149.631C157.02 148.821 159.269 147.719 160.377 147.168C161.486 146.652 162.429 146.242 162.464 146.275C162.527 146.347 160.202 148.133 157.311 150.279C154.619 152.3 150.778 155.208 148.504 156.946L148.448 156.854L138.5 164.55L161.753 174.614C162.332 174.234 162.855 173.895 163.174 173.678C163.807 173.247 166.38 171.587 168.851 169.998C171.322 168.41 174.799 166.207 176.537 165.122C178.274 164.036 180.749 162.515 182.054 161.752C183.359 160.99 185.598 159.614 187.072 158.778C188.544 157.907 193.068 155.392 197.125 153.236C201.18 151.047 205.407 148.886 206.518 148.403C207.624 147.922 208.695 147.408 208.867 147.263C209.1 147.084 208.971 146.301 208.553 145.052C208.174 143.972 207.664 142.044 207.413 140.72C207.162 139.396 206.61 132.344 206.187 125.049C205.763 117.753 204.955 101.383 203.411 65.7083L198.725 65.4617C196.16 65.3116 193.763 65.1885 193.388 65.2015C192.977 65.1839 192.181 65.8975 189.934 68.9075L191.948 70.889C193.078 71.9769 194.853 73.9299 195.887 75.192C196.887 76.4888 198.07 78.1209 198.472 78.8589C199.13 80.0998 199.245 81.3957 200.023 94.0062C200.457 101.608 200.893 109.246 201.062 114.125L199.38 116.848C198.44 118.316 196.038 121.917 194.021 124.787C192.005 127.691 190.084 130.389 189.034 131.621L187.264 130.76C186.186 130.217 184.289 128.712 182.592 127.029C181 125.444 178.896 122.852 175.936 118.241L174.741 83.7827L175.695 82.7248C176.222 82.1601 178.507 79.1415 180.756 76.0577C183.037 72.9764 185.123 70.1737 185.389 69.8515C185.65 69.5007 186.531 68.2402 188.837 64.8477L187.839 64.6419C187.321 64.5231 185.397 64.1799 183.614 63.9344C181.074 63.5444 178.612 63.4939 172.679 63.7337C167.498 63.9475 163.957 64.2404 161.787 64.6913C160.027 65.025 158.534 65.2815 158.461 65.2848C158.44 65.2375 159.552 64.0087 160.961 62.5687C162.344 61.1205 164.93 58.8431 166.659 57.485C168.387 56.1617 170.723 54.6109 171.829 53.9915C173.438 53.15 174.624 52.8043 177.579 52.3945C180.401 52.0234 187.105 52.0173 197.909 52.4285C210.971 41.108 218.795 33.2697 244.569 12.7948ZM126.938 173.433C124.676 175.152 120.216 178.484 117.019 180.815C113.788 183.147 109.352 186.273 107.081 187.751L103.011 190.455C104.469 191.155 106.363 191.604 108.182 191.882C110.311 192.252 112.949 192.434 115.881 192.333C118.303 192.284 121.673 191.992 123.37 191.695C125.032 191.399 127.169 190.95 128.118 190.746C129.032 190.508 131.329 189.779 133.185 189.168C135.04 188.523 137.769 187.475 139.248 186.809C140.3 186.335 141.877 185.582 143.279 184.885L143.32 184.914L144.654 184.188C144.723 184.152 144.792 184.12 144.858 184.086C145.581 183.723 146.248 183.35 146.764 183.04L152.217 180.072L129.316 171.583L126.938 173.433ZM238.102 152.296C235.85 152.306 233.089 152.469 231.969 152.679C230.851 152.888 228.411 153.52 226.552 154.063C224.694 154.606 223.039 155.175 222.907 155.317C222.747 155.469 223.316 157.153 224.166 159.097C225.019 161.049 226.977 165.321 228.525 168.615C230.072 171.906 231.498 174.585 231.702 174.549C231.876 174.541 233.145 173.781 234.548 172.879C235.914 171.945 237.946 170.473 239.043 169.579C240.139 168.687 241.829 167.161 242.785 166.173C243.74 165.183 245.111 163.427 245.822 162.275C246.533 161.123 247.231 159.563 247.411 158.805C247.588 158.048 247.584 156.887 247.424 156.243C247.266 155.6 246.65 154.596 246.05 154.036C245.451 153.476 244.338 152.832 243.579 152.653C242.82 152.44 240.355 152.286 238.102 152.296ZM183.69 78.9286C183.575 79.5491 183.375 81.6734 183.274 83.6568C183.138 85.6439 183.218 91.8592 183.413 97.4877C183.617 103.355 183.968 108.605 184.212 109.757C184.456 110.876 185.135 112.697 185.719 113.803C186.304 114.911 187.839 116.839 189.112 118.127C191.234 120.272 191.446 120.401 191.764 119.743C191.955 119.359 192.196 117.437 192.298 115.453C192.4 113.467 192.196 106.642 191.873 100.267C191.516 93.8942 191.067 87.8315 190.827 86.8118C190.587 85.7954 190.166 84.4762 189.84 83.9409C189.549 83.4045 188.864 82.4043 188.33 81.7741C187.796 81.1435 186.561 79.9909 185.612 79.2042L183.857 77.7959L183.69 78.9286Z" fill="var(--fill-0, white)"/>
<path d="M288.111 139.865C274.699 152.131 263.513 166.23 249.081 177.432C247.687 178.537 246.486 179.398 246.412 179.3C246.413 176.154 251.299 170.895 252.532 169.659C263.185 159.038 268.611 154.282 288.111 139.865Z" fill="var(--fill-0, white)"/>
<path fill-rule="evenodd" clip-rule="evenodd" d="M167.398 0.00480839C167.39 0.129572 166.182 2.58737 164.72 5.49328C163.249 8.37965 160.734 13.6605 159.184 17.1982C157.599 20.7366 156.023 24.4806 155.649 25.5185C155.276 26.5563 154.623 28.4239 154.188 29.6684C153.788 30.9122 153.245 33.0501 153.02 34.4239C152.739 36.1762 152.716 39.4574 152.935 45.7665C153.11 50.8079 153.38 54.5866 153.549 54.5579C186.588 23.6921 198.289 12.5745 198.649 12.7965C199.25 13.4538 157.438 58.2218 153.569 62.4326V73.8569C153.732 78.5653 153.891 88.1255 153.962 95.0913C153.999 102.058 153.987 109.574 153.894 111.832C153.783 114.534 153.516 116.695 153.056 118.18C152.655 119.423 152.001 121.222 151.555 122.16C151.145 123.13 150.339 124.56 149.856 125.396C149.339 126.198 149.024 126.925 149.161 126.991C149.334 127.054 150.193 127.194 151.152 127.298C152.078 127.402 154.445 127.73 156.369 128.073C159.013 128.562 159.938 128.598 160.304 128.313C160.535 128.065 161.243 126.811 161.847 125.527C162.832 123.41 162.946 122.79 162.954 120.059C162.964 118.385 162.553 109.448 162.065 100.277C161.385 87.5607 161.065 83.3341 160.663 82.5615C160.405 82.024 159.898 81.187 158.966 79.8879L164.4 73.1051C167.395 69.4013 169.876 66.4261 169.939 66.4244C169.943 66.5474 170.053 72.706 170.142 80.1838C170.266 87.6946 170.537 99.4357 170.74 106.294C171.15 118.099 171.108 118.819 170.511 120.309C170.165 121.175 169.198 122.883 168.354 124.141C167.51 125.4 166.305 127.082 165.618 127.925C164.93 128.734 164.478 129.466 164.65 129.529C164.79 129.593 165.444 129.742 166.096 129.856C166.75 129.97 169.022 130.541 171.089 131.118C173.157 131.695 176.92 132.896 179.374 133.733C181.828 134.605 185.256 135.887 186.988 136.613C188.721 137.339 191.743 138.838 193.761 139.929C195.779 141.021 197.73 142.149 198.115 142.409C198.499 142.669 198.747 142.934 198.647 143.006C198.539 143.085 197.578 143.866 196.487 144.719C195.39 145.577 193.533 147.146 192.342 148.246C191.15 149.312 189.862 150.586 188.817 151.954L187.623 151.005C186.956 150.482 185.176 149.382 183.646 148.581C182.115 147.747 179.478 146.539 177.749 145.916C176.021 145.293 173.706 144.52 172.569 144.217C171.43 143.881 169.327 143.34 167.915 143.013C166.503 142.652 163.547 142.069 161.383 141.666C159.218 141.263 155.578 140.706 153.314 140.409C151.051 140.112 147.898 139.778 146.288 139.628C144.678 139.479 141.766 139.271 139.783 139.169C137.797 139.033 134.512 138.841 132.425 138.708C130.338 138.575 127.046 138.143 125.052 137.734C123.058 137.325 120.513 136.833 119.378 136.599C118.243 136.365 116.319 136.056 112.854 135.562L113.857 134.946C114.391 134.586 115.821 133.477 117.014 132.446C118.208 131.448 120.191 129.534 121.409 128.228C122.626 126.923 123.996 125.098 124.441 124.126C124.916 123.05 125.301 121.294 125.443 119.479C125.558 117.869 125.633 112.193 125.452 97.1034L126.887 94.1508C127.684 92.5181 128.963 90.0141 129.767 88.5858C130.537 87.1584 132.668 83.6335 134.411 80.7383C136.189 77.8773 138.228 74.6323 138.978 73.5796C139.693 72.5303 140.897 70.7782 142.91 67.8054L142.344 57.4067C142.043 51.6796 141.574 46.0253 141.293 44.8038C140.843 42.6681 140.839 42.5301 141.696 40.6913C142.172 39.6502 143.548 36.9712 144.701 34.7793C145.888 32.5865 147.589 29.452 148.557 27.8129C149.49 26.1753 151.299 23.2095 152.561 21.1848C153.787 19.1622 155.377 16.7501 155.993 15.7712C156.643 14.8264 158.269 12.4474 159.568 10.5242C160.901 8.59953 163.18 5.4106 164.682 3.44552C166.184 1.44638 167.395 -0.0975372 167.398 0.00480839ZM143.04 75.4862C142.899 75.4973 141.782 76.7638 140.543 78.3402C139.299 79.8862 137.573 82.3047 136.699 83.6671C135.826 85.0628 134.893 86.7343 134.609 87.3935C134.167 88.4344 134.148 90.8656 134.485 104.512L134.866 120.418C132.894 123.593 131.62 125.311 130.767 126.298C129.716 127.46 129.328 128.124 129.605 128.252C129.85 128.38 132.497 128.87 135.517 129.345C138.534 129.821 141.208 130.205 141.453 130.197C141.657 130.19 142.158 129.83 142.551 129.373C142.913 128.949 143.751 127.521 144.387 126.168L145.531 123.736C144.613 100.201 144.101 89.3546 143.827 84.4103C143.555 79.5058 143.21 75.4883 143.04 75.4862Z" fill="var(--fill-0, white)"/>
<path fill-rule="evenodd" clip-rule="evenodd" d="M282.51 18.8888C272.277 29.3385 261.61 43.2739 255.784 57.5734C255.971 61.1602 256.369 63.3104 256.59 69.6899C256.639 69.7056 258.144 67.9864 259.937 65.8172C261.74 63.6366 265.059 59.8664 267.329 57.3625C270.421 54.0113 271.646 52.8752 272.295 52.852C272.773 52.8361 274.085 53.2349 275.229 53.7415C276.372 54.2483 277.944 55.3206 278.688 56.1141C279.467 56.9068 280.434 58.2064 280.84 59.0463C281.279 59.9191 281.601 61.3429 281.639 62.4343C281.915 67.0123 280.864 74.9649 278.522 78.1344C277.509 79.5018 275.409 81.966 273.831 83.6943C272.25 85.3884 271.036 86.7626 271.137 86.7591C271.242 86.7545 272.288 86.4125 273.501 85.9954C274.714 85.5434 276.984 85.0193 278.58 84.759C280.651 84.4481 282.05 84.4009 283.527 84.6229C284.659 84.7888 286.249 85.3138 287.051 85.7982C287.854 86.283 288.84 87.206 289.238 87.8408C289.635 88.4765 290.228 89.7869 290.531 90.6982C290.91 91.778 291.185 93.75 291.267 96.1373C291.34 98.218 291.2 101.059 290.975 102.468C290.75 103.876 290.373 105.837 290.131 106.767C289.926 107.731 289.437 109.355 289.029 110.393C288.656 111.431 287.932 113.163 287.388 114.207C286.877 115.249 285.746 117.133 284.937 118.391C284.127 119.648 282.326 121.863 280.942 123.311C279.593 124.758 276.022 128.196 273.009 130.931C269.996 133.631 266.657 136.788 263.589 139.867L259.906 137.125C257.523 135.329 255.013 133.843 252.76 132.829C250.853 132.007 247.913 130.88 246.188 130.393C244.462 129.872 242.427 129.327 240.157 128.825L242.216 127.148C243.381 126.254 245.033 124.658 245.955 123.67C246.842 122.683 247.882 121.248 248.234 120.518C248.835 119.165 248.847 118.48 247.936 93.2C247.184 71.5033 246.925 67.0001 246.467 65.5808C245.931 63.8922 245.929 63.8921 244.569 64.0075C243.819 64.1019 242.297 64.4964 241.186 64.9107C240.078 65.3228 239.137 65.6268 239.092 65.5638C239.059 65.5281 239.579 64.863 240.233 64.0909C240.924 63.3155 243.515 60.2194 246.006 57.2299C250.48 51.9317 256.202 45.9043 260.74 40.6607C267.164 33.2278 270.319 31.0799 282.51 18.8888ZM274.101 92.4993C273.25 92.5288 271.792 92.8525 270.883 93.2255C269.94 93.5999 268.495 94.2639 267.693 94.7358C266.855 95.2089 265.584 96.0062 264.851 96.5098C264.115 97.0142 262.386 98.3011 261.024 99.3722C259.627 100.445 258.402 101.48 258.304 101.689C258.176 101.904 258.27 105.622 258.556 109.912C258.995 117.649 258.997 117.788 258.274 119.59C257.832 120.592 257.59 121.453 257.692 121.522C257.767 121.59 260.378 123.035 263.441 124.738C266.5 126.441 269.21 127.848 269.521 127.84C269.794 127.831 270.731 127.219 271.627 126.471C272.522 125.723 273.807 124.346 274.491 123.365C275.174 122.42 276.168 120.608 276.705 119.36C277.209 118.113 277.859 116.177 278.093 115.042C278.327 113.906 278.707 111.057 278.933 108.693C279.158 106.328 279.296 102.498 279.248 100.143C279.162 96.6632 279.025 95.676 278.518 94.8056C278.156 94.2033 277.377 93.4094 276.749 93.0555C276.052 92.6357 275.056 92.4321 274.101 92.4993ZM266.048 65.7066C264.719 65.7528 264.041 65.9828 263.01 66.7696C262.314 67.3406 260.566 69.1442 259.19 70.8311L256.632 73.8909C256.99 84.1947 257.518 94.7469 257.689 94.7409C257.826 94.7693 258.154 94.485 258.417 94.1695C258.679 93.853 260.044 92.7461 261.408 91.7424C262.774 90.773 264.467 89.3828 265.194 88.6742C265.889 88.0011 267.065 86.4906 267.776 85.3389C268.487 84.1877 269.289 82.6906 269.538 82.0326C269.789 81.3749 270.085 80.0325 270.224 79.1055C270.391 78.0067 270.031 69.2937 269.792 68.3106C269.556 67.3971 269.081 66.5606 268.591 66.2016C268.065 65.8103 267.205 65.6325 266.048 65.7066Z" fill="var(--fill-0, white)"/>
<path d="M312.359 103.243C313.219 103.459 313.988 103.704 314.068 103.805C314.141 103.882 314.39 103.883 314.596 103.822C314.824 103.753 315.333 103.875 315.749 104.099C316.163 104.323 317.923 104.968 319.654 105.521C321.383 106.073 323.022 106.652 323.275 106.827C323.711 107.119 323.643 107.141 320.207 107.791L320.586 108.398C320.808 108.73 321.288 109.258 321.649 109.548C322.031 109.832 323.941 110.978 325.926 112.052C327.906 113.122 329.484 114.089 329.447 114.183C329.399 114.272 328.081 113.945 326.498 113.472C324.908 112.977 323.484 112.531 323.341 112.473C323.191 112.393 322.475 112.16 321.737 111.933C321.021 111.699 320.376 111.542 320.263 111.575C320.171 111.603 319.239 111.309 318.164 110.958C317.082 110.584 316.15 110.292 316.041 110.349C315.949 110.376 315.418 110.26 314.842 110.084C314.126 109.85 313.781 109.854 313.669 110.062C313.594 110.234 313.452 111.096 313.386 111.96C313.299 113.004 313.376 113.925 313.645 114.664C313.859 115.296 314.156 115.88 314.305 115.96C314.475 116.034 314.603 116.293 314.589 116.496C314.575 116.699 315.076 117.965 315.665 119.28C316.278 120.588 317.163 122.637 317.63 123.791C318.099 124.943 319.246 127.459 320.186 129.366C321.105 131.279 321.953 133.04 322.072 133.278C322.171 133.522 322.529 134.309 322.844 135.035C323.412 136.356 323.412 136.357 322.843 136.03C322.516 135.853 321.677 134.96 320.984 134.048C320.259 133.122 319.656 132.258 319.621 132.143C319.588 132.029 318.619 130.701 317.512 129.242C316.377 127.766 314.412 125.345 313.133 123.888C311.876 122.423 310.126 120.557 309.24 119.753C308.377 118.942 307.326 118.088 306.177 117.486L305.52 118.202C305.161 118.582 304.744 119.352 304.636 119.906C304.496 120.444 304.353 122.303 304.319 124.027C304.286 125.751 304.272 128.042 304.296 129.128C304.321 130.214 304.324 131.729 304.299 132.482C304.274 133.235 304.256 134.68 304.231 135.681C304.207 136.682 304.105 137.509 303.989 137.543C303.899 137.57 303.844 137.388 303.852 137.162C303.852 136.914 303.647 135.308 303.416 133.613C303.162 131.924 302.455 128.384 301.826 125.764C301.195 123.144 300.414 120.27 300.118 119.363C299.683 118.151 299.414 117.66 299.062 117.566C298.808 117.468 298.331 117.534 298.008 117.705C297.579 117.932 297.1 118.747 296.307 120.598C295.689 122.025 294.954 123.734 294.683 124.411C294.405 125.065 294.147 125.787 294.079 125.981C294.043 126.19 293.902 126.383 293.788 126.417C293.673 126.451 293.511 126.325 293.456 126.143C293.402 125.96 293.719 124.597 294.135 123.156C294.568 121.685 295.384 118.834 295.933 116.833C296.503 114.825 297.146 112.472 297.363 111.611C297.58 110.752 298.085 109.433 299.256 107.271L300.329 111.298C301.022 113.875 301.525 115.39 301.746 115.549C301.9 115.652 302.224 115.654 302.409 115.525C302.618 115.388 302.885 114.613 303.01 113.781C303.12 112.978 303.27 111.814 303.296 111.235C303.338 110.627 303.438 110.125 303.53 110.097C303.645 110.064 304.247 110.332 304.898 110.684C305.669 111.101 306.209 111.239 306.439 111.096C306.692 110.946 306.85 110.973 306.918 111.201C306.973 111.384 307.483 111.679 308.029 111.839C308.598 111.993 309.445 112.337 310.772 113.035L309.704 109.949C308.979 107.929 308.675 106.827 308.835 106.779C308.951 106.745 309.334 106.78 309.662 106.881C310.013 106.975 310.644 107.01 311.053 106.963C311.825 106.882 311.842 106.852 311.597 106.031C311.454 105.551 311.095 104.763 310.825 104.272C310.526 103.766 310.339 103.227 310.366 103.068C310.424 102.927 310.51 102.8 310.616 102.818C310.698 102.843 311.499 103.027 312.359 103.243Z" fill="var(--fill-0, white)"/>
<path fill-rule="evenodd" clip-rule="evenodd" d="M107.886 20.5896C107.957 20.5889 108.372 20.7448 108.821 20.9671C109.24 21.1598 110.92 22.3995 112.568 23.7071C114.207 25.0166 116.257 26.6758 118.716 28.6854L117.915 30.1821C117.466 31.0177 115.613 33.7119 113.856 36.1978C110.79 40.369 110.559 40.6514 109.896 40.2304C109.511 39.97 107.87 38.8645 106.227 37.7608C104.583 36.6222 102.556 35.3245 101.685 34.8082C100.221 33.9373 100.015 33.9114 98.7678 34.3643C97.7884 34.6716 97.0585 35.3119 96.1792 36.5379C95.4618 37.5194 93.9063 39.9302 92.6449 41.955C91.3836 43.98 89.5577 47.4926 88.5443 49.7821C87.5312 52.0715 86.3407 55.1191 85.8774 56.5359C85.4144 57.9526 84.6523 60.6107 84.1681 62.4037C83.6499 64.1979 82.911 67.4677 82.5422 69.6321C81.9629 72.6239 81.8062 75.0222 81.8176 85.2012L83.5882 83.0888C84.5386 81.9282 87.332 78.7916 89.7995 76.1104C92.2334 73.43 95.4268 69.9709 96.8765 68.4517C98.3264 66.9326 100.869 64.4539 102.491 62.9632C104.145 61.4377 105.967 59.8382 106.566 59.3729C107.13 58.9095 107.903 58.5737 108.248 58.6636C108.557 58.7212 109.853 59.6335 111.117 60.6485C112.382 61.6636 114.009 63.281 114.759 64.2116C115.542 65.1408 116.367 66.3437 116.66 66.9142C116.919 67.4865 117.59 69.0668 118.116 70.4485C118.642 71.8308 119.332 74.0631 119.65 75.3502C119.969 76.6715 120.428 79.0124 120.722 80.6073C121.021 82.3388 121.17 84.7253 121.098 86.572C121.053 88.2474 120.743 91.0592 120.46 92.7425C120.143 94.4273 119.577 96.8383 119.142 98.083C118.741 99.3264 117.987 101.197 117.511 102.238C117.034 103.279 115.979 105.332 115.175 106.76C114.371 108.189 112.985 110.56 112.112 111.99C111.206 113.422 109.583 115.869 108.51 117.409C107.437 118.949 105.511 121.544 104.202 123.195C102.893 124.846 100.365 127.736 95.3628 133.135L93.1075 132.085C91.8596 131.548 89.9084 130.489 88.7569 129.777C87.6052 129.032 86.2076 128.057 85.6104 127.599C85.0484 127.14 83.8173 126.122 82.833 125.303C81.8827 124.482 80.2158 122.695 79.11 121.333C78.0044 119.971 76.4206 117.634 75.6182 116.159C74.7817 114.685 73.679 112.434 73.1555 111.12C72.6319 109.806 71.9504 107.849 71.6043 106.733C71.2925 105.616 70.7204 102.938 70.339 100.799C69.9917 98.6593 69.6462 95.5962 69.5906 93.9926C69.535 92.3889 69.6605 89.0722 69.8151 86.6418C70.0039 84.2102 70.3714 81.0204 70.6298 79.6107C70.8883 78.2012 71.6612 74.9293 72.3238 72.3789C72.9866 69.8283 74.2174 65.9254 75.0638 63.7439C75.91 61.5626 77.625 57.8119 78.8736 55.4117C80.1221 53.0115 82.2533 49.4882 83.6205 47.5625C84.9538 45.6375 86.9434 42.9385 88.0239 41.6029C89.0703 40.2686 91.3345 37.6274 93.0123 35.793C94.7243 33.9573 97.6865 30.7453 99.6641 28.6956C101.608 26.6472 104.246 23.9594 105.501 22.7547C106.724 21.5851 107.818 20.5919 107.886 20.5896ZM97.6334 73.5507C97.2924 73.5625 96.4202 74.0353 95.6876 74.5729C94.9905 75.1435 92.8124 77.3036 90.8727 79.4542C88.9655 81.5698 86.2388 84.7053 84.8995 86.4598C82.4465 89.55 82.4154 89.6549 82.4792 91.4958C82.5147 92.5194 82.7135 94.2906 82.9572 95.4094C83.2007 96.5278 83.5633 98.1199 83.7974 98.9657C84.0316 99.8116 84.4897 101.231 84.7957 102.177C85.1345 103.087 85.8051 104.705 86.2839 105.713C86.7969 106.72 88.0256 108.658 89.063 110.023C90.0664 111.388 91.8417 113.307 93.0038 114.326C94.1661 115.344 96.4379 116.872 98.0705 117.669C99.7036 118.501 101.402 119.262 101.884 119.348C102.539 119.53 102.942 119.344 103.666 118.567C104.193 118.002 105.367 116.358 106.273 114.926C107.18 113.494 108.426 111.06 109.09 109.534C109.72 108.01 110.462 105.763 110.726 104.524C110.99 103.285 111.243 100.748 111.315 98.8671C111.378 96.747 111.196 94.43 110.898 92.7323C110.607 91.2399 110.128 89.2423 109.857 88.3289C109.585 87.382 109.057 85.9642 108.687 85.1229C108.316 84.2817 107.62 82.9397 107.148 82.1023C106.641 81.2662 105.741 79.9301 105.098 79.0987C104.455 78.2671 103.145 76.9121 102.229 76.09C101.279 75.2689 99.9825 74.3583 99.392 74.0712C98.7678 73.7856 97.9745 73.539 97.6334 73.5507Z" fill="var(--fill-0, white)"/>
<path fill-rule="evenodd" clip-rule="evenodd" d="M230.512 65.2814C230.655 65.2825 231.912 66.1929 233.313 67.336C234.683 68.4498 236.688 70.1215 237.779 71.0743C238.87 71.9928 240.327 73.65 241.014 74.7192C241.699 75.7883 242.578 77.502 242.955 78.5136C243.523 80.1332 243.649 81.8053 244.023 92.5826C244.29 100.292 244.331 105.416 244.133 106.585C243.961 107.548 243.341 109.38 242.771 110.63C242.232 111.878 240.789 114.593 239.567 116.719C238.377 118.844 235.912 122.652 234.09 125.243C232.302 127.831 230.644 130.178 230.415 130.495C230.057 130.985 229.953 130.988 229.426 130.563C229.11 130.301 227.258 128.109 225.367 125.75C223.475 123.39 221.326 120.527 219.273 117.421L218.795 103.604C218.517 95.5872 218.148 88.938 217.868 87.7507C217.658 86.6314 217.372 85.2419 217.25 84.6994C217.049 83.8183 217.338 83.2596 219.756 80.1362C221.225 78.2067 223.769 74.7372 225.396 72.4265C227.022 70.1518 228.518 68.018 228.785 67.7323C229.014 67.4514 229.469 66.7856 229.724 66.2645C230.011 65.7086 230.341 65.2877 230.512 65.2814ZM227.647 76.3111C227.342 76.3231 227.061 77.1194 226.875 78.6616C226.68 79.9332 226.485 83.1845 226.409 85.9189C226.299 88.6558 226.37 94.5969 226.528 99.1681C226.693 103.91 226.977 108.172 227.253 109.222C227.491 110.17 228.199 111.887 228.816 112.958C229.435 114.064 231.077 116.057 232.456 117.409L234.929 119.886C235.495 117.544 235.843 114.764 236.029 112.23C236.268 109.284 236.283 103.784 236.124 97.1969C235.844 88.1556 235.72 86.5523 235.151 84.9324C234.81 83.9201 234.04 82.411 233.466 81.5768C232.89 80.7429 231.436 79.2194 230.273 78.2007C229.077 77.1501 227.888 76.3036 227.647 76.3111Z" fill="var(--fill-0, white)"/>
<path d="M322.873 118.253C322.99 118.22 323.544 118.501 324.127 118.874C324.71 119.246 325.335 119.507 325.496 119.46C325.633 119.42 326.126 119.57 326.593 119.804C327.046 120.067 328.158 120.631 329.08 121.052C330.505 121.746 330.71 121.933 330.576 122.321C330.477 122.575 329.882 123.248 329.284 123.823C328.662 124.405 327.973 124.933 327.767 124.995C327.545 125.086 327.206 125.039 327.022 124.92C326.837 124.801 326.113 123.872 325.43 122.833C324.748 121.795 323.994 120.679 323.748 120.353C323.502 120.029 323.157 119.708 323.016 119.651C322.812 119.579 322.802 119.516 322.984 119.462C323.189 119.401 323.175 119.181 322.998 118.836C322.834 118.537 322.782 118.28 322.873 118.253Z" fill="var(--fill-0, white)"/>
<path fill-rule="evenodd" clip-rule="evenodd" d="M311.675 78.9456C313.37 78.9584 315.376 79.0078 316.094 79.0545C316.81 79.0773 319.174 79.1161 321.343 79.1123C323.514 79.1087 326.233 79.1333 327.428 79.1633C329.124 79.2238 330.037 79.3822 331.752 79.9899C332.959 80.4248 335.136 81.2782 336.589 81.9186C338.043 82.5592 339.84 83.5214 340.551 84.0684C341.262 84.6155 341.957 85.4025 342.089 85.7794C342.246 86.1792 342.266 86.7988 342.186 87.2064C342.079 87.5913 341.771 88.2925 341.453 88.7558C341.159 89.2189 340.328 90.0582 339.633 90.6063C338.936 91.1545 337.605 91.963 336.714 92.4228C335.823 92.8824 334.438 93.5028 333.66 93.7919C332.883 94.1048 331.303 94.6371 330.124 95.0114C328.942 95.3621 327.265 95.8263 326.343 96.0251C325.204 96.2551 321.538 96.5009 314.56 96.7428C308.009 96.9936 303.674 97.3733 302.777 97.4605C301.935 97.4897 299.955 97.4881 299.623 97.5711C299.563 95.8305 298.986 81.0553 298.921 79.1718L303.736 79.0307C306.405 78.962 309.98 78.9091 311.675 78.9456ZM327.025 81.2978C326.704 80.9996 325.365 80.9964 317.557 81.3149C312.53 81.513 308.001 81.6233 307.473 81.57C306.947 81.5168 306.303 81.516 306.018 81.5972C305.689 81.6804 305.485 81.9729 305.382 82.4765C305.326 82.9067 305.272 83.4318 305.28 83.6705C305.288 83.8847 305.468 84.2368 305.665 84.4205C305.987 84.7185 307.71 84.7061 318.256 84.3406C324.949 84.0847 331.91 83.9153 333.677 83.9494C336.423 84.0209 336.875 83.9808 336.65 83.7028C336.524 83.5161 335.602 83.0492 334.658 82.6534C333.472 82.1703 332.1 81.8361 330.447 81.655C329.082 81.488 327.841 81.436 327.699 81.5121C327.534 81.5886 327.223 81.4809 327.025 81.2978Z" fill="var(--fill-0, white)"/>
<path d="M319.47 34.7215C319.458 34.9875 319.107 36.009 318.666 36.9836C318.225 37.9604 316.7 41.6918 315.308 45.2579C313.894 48.8205 312.112 53.2526 311.328 55.1022C310.572 56.9333 309.824 58.84 309.674 59.2946C309.391 60.1094 309.423 60.1908 310.403 61.0464C311.252 61.8238 311.398 62.0517 311.262 62.6554C311.178 63.0269 311.119 63.7213 311.163 64.1708C311.216 64.6955 311.422 65.0851 311.808 65.3188C312.325 65.6306 312.903 65.5647 315.761 64.9158C317.595 64.4753 320.308 63.7207 321.771 63.1963C323.232 62.6717 325.457 61.806 326.727 61.2624C327.998 60.7191 329.803 59.9796 330.767 59.611C331.73 59.2424 332.299 59.1023 332.061 59.2929C331.822 59.4833 331.184 59.9247 330.661 60.2947C330.113 60.6595 328.805 61.5857 327.755 62.3493C326.678 63.1075 324.17 64.9091 322.185 66.341C320.177 67.7678 318.339 69.0862 318.101 69.2766C317.787 69.4742 317.689 69.6968 317.825 69.8498C317.939 69.9974 318.977 70.1579 320.349 70.2478C321.635 70.2938 322.772 70.454 322.839 70.5913C322.91 70.7052 322.743 70.9109 322.445 71.0386C322.143 71.1903 320.217 71.7072 318.152 72.1935C316.082 72.7028 313.72 73.3174 312.881 73.5677C312.067 73.8235 311.219 73.9977 311.032 73.9555C310.754 73.8925 310.758 73.5518 311.561 70.5369L310.318 70.3039C309.657 70.2036 308.788 70.1543 308.389 70.1865C308.01 70.2473 307.673 70.2193 307.619 70.1338C307.567 70.0459 308.009 69.1701 308.592 68.2051C309.176 67.2387 309.631 66.4139 309.612 66.3852C309.593 66.3563 309.267 66.1842 308.917 66.0077C308.437 65.753 308.292 65.7454 308.36 65.9805C308.441 66.169 308.315 66.287 308.054 66.2526L307.643 66.1573C307.486 66.1188 307.324 66.0769 307.199 66.0366C306.878 65.9399 306.4 66.2217 305.558 67.0316C304.903 67.6643 304.326 68.2674 304.248 68.3973C304.169 68.5259 304.065 68.5507 304.012 68.4653C303.935 68.369 303.959 67.1809 304.076 65.7951C304.171 64.4014 304.146 63.1022 304.044 62.9071C303.869 62.5989 303.776 62.5783 303.508 62.7864C303.332 62.918 302.644 63.9096 301.969 64.9532L301.022 66.4159C300.751 66.8333 300.546 67.1471 300.472 67.2527C300.278 67.5747 300.093 67.3123 299.464 65.8767C299.048 64.9043 298.599 64.0711 298.484 64.045C298.345 64.0135 298.161 64.6075 298.016 65.5757C297.887 66.4741 297.666 68.2058 297.533 69.445C297.378 70.678 297.155 71.7753 297.042 71.8499C296.922 71.9449 296.492 71.6768 296.118 71.275C295.74 70.897 295.311 70.3121 295.183 70.0148C295.048 69.7403 294.801 69.0974 294.64 68.6218C294.478 68.1446 293.665 66.3264 292.844 64.5552C292.023 62.7829 291.173 60.8079 290.932 60.1433C290.691 59.4785 290.324 58.3953 289.689 56.4458L290.291 56.7026C290.648 56.8564 291.371 57.3376 291.953 57.786C292.518 58.2064 293.234 58.7105 293.545 58.8541C293.854 58.997 294.226 59.0806 294.387 59.0191C294.549 58.9579 294.783 58.6697 294.95 58.366C295.093 58.0564 295.186 57.5391 295.142 57.1873C295.122 56.8405 295.022 55.5485 294.907 54.3266C294.816 53.1093 294.539 49.8981 294.286 47.2292C294.033 44.5698 293.853 42.3387 293.868 42.2526C293.862 42.178 294.057 42.3917 294.256 42.705C294.453 43.0179 294.622 43.35 294.579 43.4381C294.557 43.5693 295.292 46.6834 296.181 50.4148C297.101 54.1368 298.032 57.593 298.246 58.0581C298.472 58.573 299.237 59.4051 299.938 59.9783C300.934 60.7641 301.304 60.9699 301.472 60.7641C301.602 60.6218 301.812 60.1318 301.911 59.6909C302.011 59.2494 302.317 58.3184 302.591 57.6482C302.888 56.983 303.263 55.9684 303.464 55.4032C303.643 54.8324 304.742 52.4437 305.908 50.095C307.05 47.7407 308.221 45.1489 308.498 44.3565C308.775 43.5645 309.153 42.8672 309.332 42.8343C309.508 42.8013 309.676 42.8157 309.73 42.9006C309.784 42.986 309.642 44.0533 309.415 45.2715C309.214 46.495 309.018 47.7928 309.008 48.1578C309.01 48.6948 309.142 48.8711 309.583 48.9708C310.095 49.0862 310.282 48.9083 311.097 47.6765C311.599 46.862 312.289 45.7485 312.647 45.1457C312.973 44.5602 313.551 43.5181 313.917 42.8683C314.191 42.3808 314.644 41.6595 315.046 41.0638L315.801 39.9821C316.204 39.3863 316.657 38.6648 316.931 38.1775C317.297 37.5279 317.882 36.561 318.246 36.0328C318.607 35.5045 319.016 34.8883 319.189 34.6586L319.458 34.2317L319.47 34.7215Z" fill="var(--fill-0, white)"/>
<path d="M329.932 63.6589C330.193 63.6589 330.145 63.754 329.811 63.9922C329.549 64.1593 328.381 64.7069 327.188 65.2066C325.997 65.7066 324.711 66.0875 324.329 66.0638C323.948 66.0638 323.495 65.9447 323.375 65.8019C323.208 65.6353 323.303 65.5638 323.685 65.5638C323.97 65.5638 324.878 65.302 325.688 64.9923C326.522 64.6827 327.571 64.3496 328.025 64.2541C328.478 64.1589 329.024 63.9923 329.216 63.8732C329.405 63.7543 329.74 63.6589 329.932 63.6589Z" fill="var(--fill-0, white)"/>
<path d="M327.833 46.9604C327.93 46.9609 328.692 47.1275 329.549 47.3414C330.408 47.5558 331.721 48.0555 333.842 49.1034L333.388 49.7463C333.124 50.128 331.933 51.3895 330.694 52.5561C329.478 53.7229 327.618 55.5577 326.569 56.6057C325.521 57.6532 324.471 58.6056 324.232 58.701C324.018 58.7961 323.852 58.7961 323.901 58.6772C323.948 58.5806 324.352 57.7 324.828 56.7247C325.305 55.7484 326.022 53.5565 326.45 51.8417C326.856 50.1277 327.284 48.342 327.428 47.8653V47.8414C327.547 47.3651 327.739 46.9604 327.833 46.9604Z" fill="var(--fill-0, white)"/>
</g>
</g>
</svg>
