<svg width="247" height="200" viewBox="0 0 247 200" fill="none" xmlns="http://www.w3.org/2000/svg">
<path fill-rule="evenodd" clip-rule="evenodd" d="M170.276 10.0243C165.761 14.3984 152.821 25.3838 137.733 41.3731C137.739 41.5063 138.304 41.5955 138.999 41.6249C139.722 41.6534 141.117 41.738 142.164 41.8355C143.211 41.933 145.541 41.9873 147.385 41.9234C149.228 41.8595 152.161 41.5707 153.917 41.2958C155.673 41.0209 158.491 40.4941 160.164 40.1418C161.837 39.7893 164.65 39.1022 166.398 38.6134C168.147 38.1247 170.318 37.4341 171.243 37.1077C172.137 36.757 172.927 36.5154 173.013 36.5374C173.095 36.588 172.214 37.3681 171.068 38.291C169.923 39.2139 167.654 40.8728 166.033 41.9727C164.413 43.0726 161.742 44.7435 160.089 45.6571C158.437 46.597 156.544 47.5713 155.884 47.8358C155.224 48.0996 153.636 48.664 152.314 49.0844C150.99 49.4783 148.976 50.0558 147.809 50.3103C146.642 50.5915 145.661 50.8419 145.662 50.8686C145.638 50.9796 145.648 55.9084 145.67 61.9205C145.692 67.9681 145.894 78.425 146.128 85.1876C146.406 93.2063 146.699 98.5501 146.982 100.547C147.228 102.225 147.633 104.7 147.866 106.003C148.098 107.306 148.539 109.217 148.816 110.251C149.119 111.284 149.45 112.317 149.593 112.58C149.734 112.815 149.927 112.969 150.032 112.913C150.163 112.828 151.436 112.489 152.895 112.144C154.354 111.8 156.267 111.438 157.147 111.328C158.025 111.19 160.187 111.008 161.948 110.866C163.709 110.752 166.543 110.709 168.231 110.784C169.92 110.886 172.391 111.201 173.739 111.502C175.088 111.803 176.713 112.362 177.394 112.713C178.074 113.065 179.006 113.675 179.474 114.061C179.942 114.446 180.586 115.28 180.928 115.91C181.328 116.619 181.574 117.52 181.605 118.429C181.646 119.604 181.501 120.065 180.694 121.457C180.136 122.387 177.667 125.256 175.086 127.968C172.558 130.651 169.173 134.087 167.594 135.587C166.041 137.113 163.372 139.588 161.713 141.117C160.082 142.644 158.709 143.976 158.711 144.111C158.692 144.218 159.255 144.279 159.946 144.255C160.668 144.23 162.011 144.316 162.977 144.417C163.945 144.544 165.556 144.73 166.604 144.854C167.65 144.951 169.64 145.256 171.04 145.503C172.44 145.775 174.679 146.287 176.03 146.695C177.381 147.077 179.984 148.085 181.858 148.903C183.733 149.722 187.003 151.453 189.136 152.77C191.287 154.083 193.007 155.199 192.967 155.261C192.932 155.311 191.56 154.961 189.944 154.484C188.322 153.977 184.922 153.158 182.39 152.656C179.858 152.155 176.734 151.569 175.389 151.374C174.05 151.18 172.927 151.086 172.869 151.166C172.817 151.248 172.899 151.3 173.058 151.295C173.245 151.289 174.933 152.086 176.841 153.09C178.774 154.067 181.612 155.682 183.196 156.644C184.783 157.632 187.302 159.285 188.811 160.356C190.32 161.427 192.653 163.141 194.028 164.216C195.401 165.266 196.887 166.445 197.329 166.859C197.769 167.244 196.247 166.521 193.931 165.264C191.612 163.979 187.255 161.802 184.265 160.407C181.275 159.039 176.769 157.159 174.223 156.257C171.677 155.356 167.374 153.981 164.618 153.166C161.862 152.378 156.707 151.139 153.151 150.406C149.594 149.674 144.987 148.734 142.914 148.352C140.841 147.969 137.988 147.479 136.589 147.234C135.192 147.015 134.222 146.755 134.43 146.667C134.647 146.606 137.224 146.139 140.145 145.639C143.071 145.162 147.358 144.585 149.679 144.398C151.973 144.211 153.866 144.011 153.863 143.93C153.857 143.844 153.34 142.794 152.737 141.561C152.106 140.324 151.329 138.747 150.983 138.01C150.637 137.3 150.119 136.219 149.831 135.639C149.543 135.06 148.585 132.926 147.713 130.897C146.84 128.868 145.939 126.758 145.731 126.176C145.498 125.622 145.131 125.099 144.916 125.052C144.697 124.981 143.505 125.317 142.267 125.815C141.026 126.313 138.367 127.555 136.344 128.589C134.319 129.622 130.774 131.539 128.466 132.85C126.158 134.188 122.279 136.517 119.819 138.074C118.345 139.007 116.625 140.109 115.181 141.039L122.845 144.357C122.854 144.35 122.863 144.343 122.872 144.337C125.06 142.655 127.927 140.467 129.204 139.486C130.507 138.505 133.142 136.567 135.02 135.19C136.922 133.816 138.567 132.69 138.679 132.681C138.813 132.704 138.609 132.953 138.245 133.259C137.882 133.594 136.768 134.675 135.787 135.671C134.779 136.697 132.968 138.474 131.777 139.613C130.559 140.751 128.876 142.39 128.023 143.249C127.563 143.713 126.68 144.577 125.657 145.572L149.814 156.027L149.889 156.06L150.358 156.029C151.55 156.564 152.858 157.155 153.863 157.63C155.558 158.43 158.264 159.708 159.892 160.472C161.521 161.237 165.537 163.152 168.858 164.716C172.188 166.306 175.633 168.002 176.56 168.478C178.117 169.291 177.974 169.279 174.21 168.099C172.021 167.42 167.426 165.989 164.023 164.895C160.619 163.801 155.247 162.018 152.071 160.938C148.889 159.835 144.121 158.203 141.466 157.274C140.026 156.771 138.66 156.293 137.669 155.943L137.743 155.842L121.203 149.711L110.587 159.895L110.606 159.923C110.326 160.188 110.036 160.461 109.743 160.743C107.541 162.826 105.209 165.022 104.534 165.606C103.886 166.219 102.303 167.637 101.058 168.778C99.7869 169.918 96.4122 172.873 93.5551 175.327C90.6974 177.781 86.4856 181.325 84.1955 183.172C81.9051 185.018 77.5022 188.437 74.4255 190.738C71.3498 193.065 67.3862 195.987 65.6109 197.252C63.8656 198.515 62.4299 199.498 62.4222 199.423C62.4289 199.333 64.3326 197.263 66.6489 194.807C68.9697 192.319 71.8853 189.246 73.1516 187.945C74.4171 186.643 76.2803 184.785 77.2624 183.787C78.2709 182.79 79.7702 181.292 80.6243 180.46C81.4782 179.628 83.2388 177.906 84.5073 176.685C85.8016 175.436 88.002 173.324 89.427 171.99C90.8517 170.656 92.9005 168.793 93.9655 167.873C95.0262 166.929 95.9583 166.095 96.0402 166.007C96.1175 165.926 97.3382 164.839 98.7666 163.613C100.194 162.359 103.342 159.76 105.789 157.802C107.468 156.439 108.923 155.207 109.671 154.536L116.477 149.147C116.738 148.999 117.168 148.707 117.627 148.385L108.666 145.063L102.534 148.855L101.144 149.611C100.173 150.154 97.9665 151.328 96.2321 152.218C94.4974 153.107 91.8928 154.377 90.4437 155.015C88.9951 155.654 87.1485 156.413 86.3568 156.734C85.5644 157.029 83.7143 157.683 82.2607 158.188C80.8071 158.693 78.7154 159.329 77.6262 159.554C76.5379 159.806 74.0102 160.215 72.0389 160.444C69.3224 160.779 67.6916 160.835 65.359 160.676C63.6702 160.573 61.0634 160.263 59.5839 160.02C58.1041 159.777 55.9721 159.235 54.8628 158.872C53.7526 158.482 52.0669 157.711 51.1104 157.129C50.1816 156.573 48.7244 155.471 47.8951 154.697C47.0657 153.923 45.788 152.549 45.0888 151.664C44.3884 150.752 43.6864 149.811 43.5444 149.575C43.3172 149.156 44.0266 148.7 48.8558 146.126C51.928 144.467 56.7062 141.839 59.4333 140.247C62.1602 138.654 65.4104 136.72 66.6423 135.98C67.3944 135.529 68.6648 134.752 69.9989 133.936L70.0948 133.992L73.4847 132.022L47.39 122.349C46.5732 122.032 46.0582 121.836 45.9509 121.792C45.5998 121.647 42.4612 120.416 38.9805 119.067C35.5 117.717 30.4387 115.671 27.7288 114.563C25.0115 113.429 19.6282 111.145 15.7241 109.505C11.8214 107.864 8.00055 106.227 7.18802 105.856C6.38611 105.512 5.93834 105.229 6.17398 105.27C6.42396 105.338 8.05871 105.763 9.81708 106.235C11.5804 106.707 14.6386 107.486 16.6369 107.999C18.6279 108.486 21.6612 109.19 23.4008 109.586C25.1414 109.982 29.4102 110.786 39.231 112.508L19.7203 102.036C9.00037 96.2725 0.148341 91.4464 0.00708884 91.2638C-0.123904 91.1079 1.5764 91.7391 3.79144 92.6896C5.96997 93.6209 7.83976 94.452 7.94356 94.5072C8.05763 94.5668 9.99204 95.43 12.2902 96.4047C14.5793 97.4163 17.4046 98.6296 18.5837 99.111C19.2389 99.3786 20.3515 99.8529 21.5739 100.374L21.7884 100.626L21.8617 100.657L82.3846 126.847L87.5494 123.847C87.6152 123.813 87.6836 123.779 87.7533 123.743C89.0402 123.056 91.8809 121.593 94.0614 120.447C96.2158 119.329 99.0539 117.865 100.37 117.231C101.684 116.596 103.447 115.733 104.315 115.301C105.184 114.896 105.922 114.576 105.95 114.602C105.999 114.658 104.178 116.057 101.913 117.738C99.8034 119.322 96.7939 121.6 95.0129 122.962L94.9689 122.89L87.175 128.919L105.393 136.804C105.846 136.506 106.257 136.241 106.506 136.071C107.002 135.733 109.018 134.433 110.954 133.187C112.89 131.944 115.614 130.217 116.975 129.367C118.337 128.517 120.275 127.325 121.298 126.727C122.32 126.13 124.075 125.052 125.229 124.397C126.382 123.715 129.927 121.745 133.106 120.056C136.282 118.34 139.594 116.647 140.465 116.269C141.331 115.892 142.171 115.489 142.305 115.376C142.488 115.236 142.387 114.622 142.059 113.643C141.762 112.797 141.362 111.286 141.166 110.25C140.969 109.212 140.537 103.687 140.205 97.9717C139.873 92.2558 139.24 79.4305 138.03 51.4802L134.359 51.287C132.349 51.1694 130.472 51.0729 130.178 51.0831C129.856 51.0693 129.232 51.6284 127.472 53.9867L129.049 55.5391C129.935 56.3914 131.325 57.9216 132.135 58.9103C132.919 59.9263 133.846 61.205 134.161 61.7832C134.676 62.7554 134.766 63.7707 135.376 73.6506C135.716 79.6066 136.058 85.5907 136.19 89.413L134.872 91.5463C134.136 92.6968 132.254 95.518 130.674 97.7665C129.094 100.042 127.589 102.155 126.767 103.121L125.38 102.446C124.535 102.021 123.049 100.841 121.719 99.5228C120.472 98.2814 118.824 96.2503 116.505 92.6377L115.568 65.6409L116.316 64.812C116.728 64.3696 118.519 62.0046 120.281 59.5886C122.068 57.1745 123.703 54.9787 123.911 54.7262C124.116 54.4514 124.805 53.4638 126.612 50.806L125.83 50.6447C125.425 50.5516 123.917 50.2827 122.52 50.0904C120.53 49.7848 118.601 49.7453 113.953 49.9332C109.894 50.1007 107.12 50.3301 105.42 50.6834C104.041 50.9448 102.871 51.1458 102.813 51.1484C102.797 51.1113 103.669 50.1486 104.772 49.0204C105.856 47.8858 107.882 46.1015 109.236 45.0375C110.591 44.0008 112.421 42.7858 113.287 42.3005C114.548 41.6412 115.477 41.3704 117.792 41.0493C120.003 40.7586 125.255 40.7538 133.72 41.0759C143.953 32.2067 150.083 26.0657 170.276 10.0243ZM78.1166 135.879C76.3441 137.225 72.8499 139.836 70.3453 141.662C67.8138 143.489 64.3383 145.938 62.5594 147.096L59.3707 149.215C60.5131 149.764 61.9967 150.115 63.4216 150.333C65.09 150.623 67.1563 150.766 69.4539 150.686C71.3513 150.648 73.9913 150.419 75.3209 150.186C76.6233 149.954 78.2974 149.602 79.0413 149.443C79.7574 149.257 81.5566 148.685 83.0109 148.206C84.4642 147.701 86.6021 146.88 87.7613 146.358C88.5849 145.987 89.8209 145.397 90.9194 144.851L90.9514 144.874L91.996 144.305C92.05 144.277 92.1042 144.252 92.1559 144.225C92.7229 143.94 93.2452 143.648 93.6497 143.405L97.9217 141.08L79.9794 134.429L78.1166 135.879ZM165.21 119.319C163.445 119.326 161.282 119.454 160.405 119.618C159.528 119.783 157.617 120.278 156.161 120.703C154.705 121.128 153.408 121.575 153.305 121.685C153.18 121.805 153.626 123.124 154.291 124.647C154.96 126.177 156.493 129.524 157.706 132.104C158.918 134.683 160.035 136.781 160.196 136.753C160.332 136.747 161.326 136.152 162.425 135.445C163.496 134.713 165.088 133.56 165.947 132.86C166.806 132.161 168.13 130.965 168.878 130.191C169.627 129.415 170.701 128.039 171.258 127.137C171.815 126.234 172.362 125.012 172.503 124.418C172.642 123.825 172.638 122.916 172.513 122.411C172.389 121.907 171.906 121.121 171.437 120.682C170.967 120.244 170.095 119.739 169.501 119.598C168.906 119.432 166.975 119.311 165.21 119.319ZM122.58 61.8379C122.49 62.324 122.333 63.9883 122.254 65.5423C122.147 67.0991 122.21 71.9685 122.363 76.3783C122.522 80.9755 122.797 85.0879 122.989 85.9911C123.18 86.8677 123.712 88.2941 124.17 89.1611C124.628 90.0286 125.83 91.5396 126.828 92.5484C128.49 94.2289 128.656 94.3303 128.905 93.8143C129.055 93.5135 129.244 92.0076 129.324 90.4537C129.404 88.8979 129.244 83.5506 128.991 78.5556C128.711 73.5629 128.359 68.813 128.171 68.0141C127.983 67.2177 127.654 66.1842 127.398 65.7648C127.17 65.3446 126.633 64.561 126.215 64.0672C125.797 63.5731 124.829 62.6701 124.086 62.0537L122.711 60.9504L122.58 61.8379Z" fill="white"/>
<path d="M204.39 109.579C193.882 119.19 185.118 130.236 173.811 139.012C172.719 139.878 171.778 140.552 171.721 140.475C171.721 138.01 175.549 133.89 176.515 132.922C184.862 124.601 189.112 120.875 204.39 109.579Z" fill="white"/>
<path fill-rule="evenodd" clip-rule="evenodd" d="M109.816 0.00376721C109.809 0.101516 108.863 2.02711 107.717 4.3038C106.565 6.56517 104.594 10.7025 103.38 13.4742C102.139 16.2464 100.904 19.1797 100.611 19.9928C100.318 20.806 99.8069 22.2691 99.4661 23.2442C99.1522 24.2187 98.7273 25.8936 98.5507 26.9699C98.331 28.3428 98.3127 30.9135 98.4841 35.8565C98.621 39.8063 98.8325 42.7667 98.9651 42.7442C124.85 18.562 134.018 9.85171 134.299 10.0256C134.77 10.5406 102.012 45.6148 98.9811 48.9138V57.8643C99.109 61.5532 99.2335 69.0433 99.2889 74.5008C99.3176 79.959 99.3081 85.8477 99.2356 87.6167C99.1484 89.7333 98.9395 91.4266 98.5787 92.5897C98.2648 93.5635 97.7523 94.973 97.4034 95.7078C97.0818 96.4683 96.4506 97.5882 96.0722 98.2436C95.6671 98.8716 95.4203 99.4416 95.5272 99.4935C95.6628 99.5423 96.3363 99.6523 97.0876 99.7333C97.8128 99.8152 99.6676 100.072 101.174 100.341C103.246 100.724 103.971 100.752 104.258 100.529C104.439 100.335 104.993 99.3522 105.466 98.3462C106.238 96.6876 106.328 96.2018 106.334 94.0621C106.342 92.7505 106.02 85.7491 105.637 78.5636C105.104 68.6008 104.854 65.2894 104.539 64.6841C104.337 64.263 103.94 63.6072 103.209 62.5894L107.467 57.2753C109.813 54.3736 111.757 52.0425 111.807 52.0412C111.809 52.1376 111.895 56.9627 111.965 62.8213C112.062 68.7057 112.275 77.9044 112.434 83.2781C112.755 92.5264 112.722 93.091 112.254 94.258C111.983 94.9367 111.226 96.2743 110.565 97.2602C109.903 98.2465 108.959 99.5643 108.421 100.225C107.882 100.858 107.528 101.432 107.662 101.482C107.772 101.531 108.284 101.648 108.795 101.737C109.307 101.827 111.088 102.274 112.707 102.726C114.328 103.178 117.276 104.12 119.198 104.776C121.121 105.458 123.806 106.463 125.164 107.032C126.521 107.6 128.889 108.775 130.47 109.63C132.051 110.485 133.579 111.369 133.881 111.573C134.182 111.776 134.376 111.984 134.298 112.04C134.213 112.102 133.461 112.714 132.606 113.382C131.746 114.054 130.291 115.284 129.358 116.146C128.425 116.981 127.415 117.979 126.596 119.051L125.661 118.307C125.138 117.897 123.744 117.036 122.545 116.408C121.346 115.754 119.28 114.809 117.925 114.32C116.571 113.832 114.758 113.226 113.867 112.989C112.975 112.726 111.326 112.302 110.221 112.046C109.114 111.763 106.799 111.306 105.103 110.99C103.406 110.675 100.555 110.239 98.7812 110.006C97.0079 109.773 94.5381 109.511 93.2766 109.394C92.0151 109.277 89.734 109.114 88.1797 109.034C86.6242 108.928 84.0502 108.777 82.4153 108.673C80.78 108.569 78.2012 108.23 76.6388 107.91C75.0764 107.589 73.0829 107.204 72.1935 107.021C71.3043 106.838 69.7968 106.596 67.082 106.208L67.8682 105.726C68.2864 105.443 69.4066 104.575 70.3413 103.767C71.277 102.985 72.8301 101.485 73.7845 100.462C74.7384 99.4394 75.8116 98.01 76.1604 97.2482C76.5324 96.4058 76.834 95.0295 76.9453 93.6077C77.0353 92.346 77.0942 87.8992 76.9519 76.0771L78.0766 73.7639C78.701 72.4848 79.7026 70.5229 80.3325 69.4039C80.9359 68.2856 82.6058 65.5239 83.9716 63.2557C85.3643 61.0142 86.9618 58.4718 87.5494 57.6471C88.1093 56.825 89.0527 55.4523 90.6302 53.1232L90.1865 44.9762C89.9507 40.4892 89.5833 36.0592 89.363 35.1023C89.0107 33.429 89.0071 33.3209 89.6788 31.8802C90.0517 31.0646 91.13 28.9656 92.0334 27.2484C92.9635 25.5304 94.2962 23.0746 95.0542 21.7904C95.7854 20.5074 97.2028 18.1838 98.1909 16.5976C99.152 15.0129 100.398 13.1231 100.88 12.3562C101.389 11.616 102.663 9.7521 103.681 8.24538C104.725 6.73744 106.511 4.23902 107.688 2.69945C108.864 1.13319 109.813 -0.0764171 109.816 0.00376721ZM90.7315 59.1409C90.621 59.1495 89.7465 60.1418 88.7754 61.3768C87.8008 62.5881 86.449 64.4829 85.7639 65.5503C85.0799 66.6438 84.3493 67.9533 84.1262 68.4698C83.7802 69.2853 83.7653 71.1901 84.0289 81.8816L84.3274 94.3433C82.7825 96.8311 81.7848 98.1772 81.116 98.9498C80.2928 99.8604 79.9893 100.381 80.2059 100.481C80.398 100.582 82.4717 100.965 84.8378 101.338C87.2014 101.71 89.2964 102.011 89.4882 102.005C89.6485 102 90.0406 101.717 90.3491 101.359C90.632 101.027 91.2889 99.9086 91.7868 98.8485L92.6836 96.943C91.9641 78.5038 91.5629 70.0063 91.3484 66.1326C91.135 62.2901 90.8652 59.1425 90.7315 59.1409Z" fill="white"/>
<path fill-rule="evenodd" clip-rule="evenodd" d="M200.002 14.7987C191.984 22.9857 183.627 33.9037 179.063 45.1068C179.209 47.9169 179.521 49.6016 179.694 54.5996C179.733 54.612 180.912 53.265 182.317 51.5655C183.729 49.8571 186.33 46.9033 188.108 44.9416C190.53 42.316 191.49 41.4259 191.999 41.4077C192.373 41.3952 193.401 41.7077 194.297 42.1046C195.193 42.5016 196.425 43.3418 197.008 43.9635C197.618 44.5845 198.375 45.6028 198.693 46.2608C199.038 46.9446 199.29 48.06 199.32 48.9151C199.535 52.5019 198.712 58.7324 196.877 61.2156C196.084 62.2869 194.438 64.2175 193.202 65.5716C191.963 66.8989 191.012 67.9755 191.091 67.9728C191.174 67.9692 191.993 67.7012 192.943 67.3745C193.894 67.0203 195.672 66.6097 196.922 66.4057C198.545 66.1622 199.642 66.1252 200.799 66.2991C201.685 66.4291 202.931 66.8404 203.56 67.2199C204.188 67.5998 204.961 68.3229 205.273 68.8203C205.584 69.3183 206.048 70.3449 206.286 71.0589C206.583 71.9049 206.798 73.4499 206.863 75.3203C206.919 76.9505 206.81 79.1764 206.634 80.2799C206.458 81.3831 206.162 82.9194 205.973 83.6485C205.812 84.4036 205.429 85.6757 205.109 86.4894C204.817 87.3024 204.25 88.6597 203.823 89.4769C203.423 90.2937 202.537 91.7696 201.903 92.7549C201.268 93.7403 199.857 95.4751 198.773 96.6099C197.716 97.7438 194.918 100.437 192.558 102.58C190.197 104.695 187.582 107.169 185.178 109.581L182.293 107.433C180.426 106.026 178.459 104.862 176.693 104.067C175.2 103.423 172.896 102.54 171.545 102.158C170.192 101.75 168.598 101.323 166.82 100.93L168.433 99.6161C169.345 98.9153 170.64 97.6652 171.362 96.8911C172.057 96.1181 172.872 94.9937 173.148 94.4219C173.619 93.3618 173.628 92.8248 172.914 73.019C172.325 56.0204 172.122 52.4923 171.763 51.3803C171.343 50.0574 171.342 50.0572 170.276 50.1477C169.689 50.2216 168.496 50.5308 167.626 50.8553C166.758 51.1782 166.02 51.4163 165.985 51.367C165.959 51.339 166.367 50.8179 166.879 50.213C167.421 49.6055 169.45 47.1798 171.402 44.8376C174.907 40.6867 179.39 35.9645 182.946 31.8562C187.979 26.0328 190.45 24.35 200.002 14.7987ZM193.414 72.47C192.747 72.4932 191.605 72.7468 190.893 73.039C190.153 73.3323 189.022 73.8526 188.393 74.2223C187.737 74.5929 186.741 75.2176 186.166 75.6121C185.59 76.0073 184.235 77.0155 183.168 77.8547C182.074 78.6951 181.114 79.5059 181.037 79.6696C180.937 79.8382 181.01 82.7512 181.235 86.1123C181.579 92.1743 181.58 92.2831 181.013 93.6943C180.668 94.4797 180.478 95.1541 180.558 95.2081C180.616 95.2615 182.662 96.3939 185.062 97.7279C187.459 99.0618 189.582 100.165 189.825 100.158C190.04 100.151 190.773 99.6718 191.475 99.0857C192.177 98.4995 193.183 97.4205 193.719 96.6525C194.254 95.9116 195.033 94.4924 195.454 93.5145C195.849 92.5376 196.358 91.0208 196.541 90.1312C196.725 89.2414 197.022 87.0092 197.2 85.1569C197.376 83.3044 197.484 80.3036 197.446 78.4584C197.379 75.7323 197.272 74.9588 196.874 74.2769C196.59 73.8051 195.98 73.1831 195.489 72.9058C194.942 72.5769 194.162 72.4174 193.414 72.47ZM187.104 51.4789C186.063 51.515 185.532 51.6952 184.725 52.3117C184.179 52.759 182.809 54.1721 181.732 55.4938L179.728 57.891C180.007 65.9636 180.421 74.2309 180.555 74.2263C180.663 74.2485 180.92 74.0258 181.125 73.7786C181.331 73.5306 182.4 72.6634 183.469 71.8771C184.539 71.1175 185.866 70.0284 186.435 69.4732C186.98 68.9459 187.901 67.7625 188.458 66.8601C189.015 65.9581 189.643 64.7853 189.839 64.2697C190.035 63.7544 190.267 62.7027 190.376 61.9765C190.507 61.1156 190.225 54.2892 190.037 53.519C189.853 52.8033 189.48 52.148 189.097 51.8666C188.685 51.5601 188.011 51.4208 187.104 51.4789Z" fill="white"/>
<path d="M223.388 80.8875C224.061 81.0567 224.663 81.2487 224.727 81.3273C224.783 81.3882 224.979 81.3884 225.14 81.3406C225.319 81.2872 225.718 81.3821 226.043 81.5578C226.368 81.7337 227.746 82.2384 229.103 82.6718C230.458 83.1045 231.742 83.5582 231.94 83.6951C232.281 83.9244 232.228 83.941 229.536 84.4507L229.833 84.9264C230.007 85.186 230.383 85.6 230.666 85.8272C230.965 86.0497 232.461 86.9478 234.017 87.7886C235.568 88.6271 236.805 89.385 236.775 89.4583C236.738 89.528 235.705 89.2716 234.465 88.9013C233.219 88.5133 232.103 88.1643 231.992 88.1191C231.874 88.0564 231.313 87.8734 230.735 87.6954C230.174 87.512 229.669 87.3891 229.58 87.4155C229.508 87.4369 228.777 87.2067 227.935 86.9318C227.088 86.639 226.357 86.4101 226.272 86.4548C226.2 86.476 225.784 86.3851 225.333 86.2469C224.772 86.0638 224.502 86.0671 224.414 86.2296C224.355 86.3644 224.244 87.0397 224.192 87.7167C224.124 88.5346 224.184 89.2561 224.395 89.8354C224.562 90.3307 224.795 90.7882 224.912 90.8508C225.046 90.9084 225.145 91.1116 225.134 91.2705C225.123 91.4296 225.516 92.4216 225.978 93.4518C226.458 94.4768 227.151 96.0822 227.517 96.9857C227.884 97.8889 228.783 99.86 229.52 101.354C230.239 102.853 230.904 104.232 230.998 104.418C231.075 104.61 231.355 105.227 231.602 105.795C232.047 106.83 232.047 106.831 231.601 106.574C231.345 106.436 230.688 105.736 230.145 105.022C229.577 104.296 229.104 103.62 229.077 103.53C229.051 103.44 228.292 102.4 227.425 101.256C226.536 100.1 224.996 98.2038 223.994 97.0616C223.009 95.9143 221.638 94.4526 220.944 93.8223C220.268 93.1867 219.444 92.5176 218.544 92.046L218.029 92.607C217.748 92.9048 217.421 93.5084 217.337 93.9422C217.227 94.3641 217.115 95.8198 217.089 97.1709C217.062 98.5219 217.052 100.316 217.07 101.167C217.09 102.018 217.092 103.205 217.073 103.795C217.053 104.385 217.039 105.517 217.019 106.301C217.001 107.085 216.92 107.733 216.83 107.76C216.76 107.781 216.717 107.638 216.722 107.462C216.723 107.267 216.562 106.009 216.381 104.681C216.182 103.358 215.628 100.584 215.135 98.5314C214.641 96.4791 214.029 94.2274 213.797 93.5171C213.456 92.5674 213.245 92.1824 212.97 92.1087C212.77 92.0318 212.397 92.0841 212.144 92.2179C211.808 92.396 211.433 93.0345 210.811 94.4845C210.327 95.602 209.751 96.9417 209.539 97.472C209.321 97.9844 209.119 98.5498 209.066 98.7019C209.038 98.8659 208.927 99.0164 208.838 99.0431C208.748 99.0699 208.621 98.9714 208.578 98.8285C208.535 98.6855 208.784 97.6174 209.11 96.4886C209.449 95.3364 210.088 93.1026 210.518 91.5343C210.965 89.9613 211.469 88.1177 211.639 87.4435C211.808 86.7702 212.204 85.7373 213.122 84.0429L213.963 87.1983C214.505 89.2169 214.899 90.4045 215.073 90.5283C215.193 90.609 215.447 90.6111 215.592 90.5096C215.755 90.4022 215.965 89.7955 216.063 89.1438C216.149 88.5147 216.266 87.6028 216.287 87.149C216.32 86.6721 216.398 86.279 216.47 86.2576C216.56 86.2317 217.032 86.4414 217.542 86.7173C218.146 87.0436 218.569 87.1518 218.749 87.0398C218.948 86.9223 219.072 86.9435 219.125 87.1224C219.168 87.2655 219.568 87.4964 219.995 87.6221C220.441 87.7425 221.105 88.0122 222.144 88.5588L221.307 86.1416C220.739 84.5588 220.501 83.6952 220.627 83.6578C220.717 83.6311 221.017 83.6586 221.274 83.7378C221.549 83.8114 222.044 83.8387 222.364 83.8017C222.969 83.7386 222.982 83.715 222.791 83.0715C222.679 82.6959 222.397 82.0785 222.186 81.6937C221.951 81.2974 221.805 80.8744 221.826 80.7503C221.871 80.6396 221.939 80.5403 222.022 80.5544C222.086 80.5743 222.714 80.7184 223.388 80.8875Z" fill="white"/>
<path fill-rule="evenodd" clip-rule="evenodd" d="M63.1897 16.1312C63.2457 16.1307 63.5706 16.2528 63.9226 16.427C64.2507 16.578 65.5668 17.5492 66.8581 18.5737C68.142 19.5996 69.7483 20.8996 71.6752 22.474L71.0476 23.6466C70.6956 24.3013 69.2437 26.4122 67.8668 28.3597C65.4653 31.6277 65.2845 31.849 64.7647 31.5191C64.4629 31.3151 63.1771 30.449 61.8905 29.5843C60.6021 28.6922 59.0142 27.6755 58.3313 27.2711C57.1849 26.5887 57.0229 26.5684 56.0461 26.9233C55.2788 27.164 54.7069 27.6657 54.018 28.6262C53.456 29.3952 52.2373 31.284 51.249 32.8703C50.2608 34.4568 48.8303 37.2088 48.0363 39.0025C47.2426 40.7962 46.3099 43.1839 45.9469 44.294C45.5841 45.4039 44.9871 47.4864 44.6078 48.8911C44.2018 50.2969 43.6229 52.8586 43.3339 54.5543C42.8801 56.8983 42.7572 58.7773 42.7662 66.7522L44.1534 65.0972C44.898 64.1879 47.0865 61.7305 49.0197 59.6299C50.9266 57.5299 53.4285 54.8198 54.5643 53.6296C55.7002 52.4394 57.6927 50.4974 58.963 49.3295C60.2586 48.1343 61.6864 46.8812 62.1557 46.5166C62.5976 46.1536 63.2033 45.8905 63.4735 45.9609C63.7159 46.0061 64.7308 46.7208 65.7215 47.516C66.7121 48.3113 67.9873 49.5785 68.5744 50.3076C69.1881 51.0356 69.8347 51.978 70.0642 52.425C70.2671 52.8734 70.7929 54.1115 71.2048 55.1939C71.6168 56.277 72.1577 58.0259 72.4067 59.0343C72.6565 60.0694 73.0157 61.9035 73.2462 63.1531C73.4805 64.5097 73.5974 66.3794 73.5407 67.8262C73.5058 69.1388 73.2627 71.3417 73.041 72.6606C72.7925 73.9806 72.349 75.8695 72.0083 76.8447C71.6943 77.8188 71.1034 79.2842 70.7304 80.1C70.3572 80.9159 69.5308 82.5243 68.9009 83.6432C68.2708 84.7623 67.1844 86.6198 66.501 87.7407C65.7908 88.8625 64.5196 90.7795 63.6787 91.9861C62.8378 93.1928 61.3288 95.2259 60.3035 96.5193C59.2783 97.8127 57.2977 100.077 53.3784 104.307L51.6115 103.484C50.6338 103.063 49.105 102.234 48.2029 101.676C47.3006 101.092 46.2056 100.328 45.7377 99.9692C45.2974 99.6098 44.3329 98.8125 43.5617 98.1703C42.8172 97.527 41.5113 96.1273 40.6449 95.0602C39.7787 93.9932 38.5378 92.1625 37.9092 91.0067C37.2538 89.8518 36.3899 88.088 35.9797 87.0584C35.5695 86.0291 35.0356 84.4956 34.7645 83.6219C34.5202 82.7469 34.0719 80.6481 33.7731 78.9727C33.501 77.2962 33.2303 74.8963 33.1868 73.64C33.1432 72.3836 33.2415 69.785 33.3626 67.8808C33.5105 65.9758 33.7985 63.4767 34.0009 62.3722C34.2035 61.268 34.809 58.7045 35.3281 56.7064C35.8474 54.7081 36.8117 51.6503 37.4748 49.9412C38.1378 48.2321 39.4814 45.2937 40.4596 43.4132C41.4378 41.5327 43.1075 38.7723 44.1787 37.2636C45.2233 35.7554 46.7821 33.6408 47.6286 32.5945C48.4484 31.5491 50.2224 29.4798 51.5368 28.0426C52.8781 26.6044 55.199 24.0879 56.7483 22.482C58.2711 20.8771 60.3378 18.7714 61.3215 17.8275C62.2795 16.9112 63.1364 16.1331 63.1897 16.1312ZM55.1573 57.6245C54.8902 57.6337 54.2068 58.0041 53.6329 58.4253C53.0867 58.8724 51.3802 60.5647 49.8605 62.2496C48.3664 63.9071 46.23 66.3637 45.1807 67.7383C43.2589 70.1593 43.2346 70.2415 43.2846 71.6838C43.3124 72.4858 43.4681 73.8735 43.659 74.75C43.8498 75.6262 44.1339 76.8736 44.3173 77.5363C44.5008 78.199 44.8597 79.3111 45.0995 80.052C45.3649 80.7655 45.8903 82.0325 46.2654 82.8223C46.6673 83.6112 47.6299 85.1298 48.4427 86.1989C49.2289 87.2688 50.6197 88.7721 51.5302 89.5702C52.4408 90.3683 54.2207 91.5653 55.4997 92.1899C56.7793 92.8413 58.11 93.4377 58.4872 93.5051C59.0005 93.6479 59.3164 93.5018 59.8837 92.8935C60.2966 92.4507 61.2165 91.1622 61.9265 90.0406C62.6364 88.919 63.6128 87.0121 64.1331 85.8165C64.6267 84.622 65.2077 82.8617 65.415 81.8909C65.622 80.9203 65.8201 78.9327 65.8761 77.459C65.9254 75.798 65.7829 73.9826 65.5496 72.6526C65.3219 71.4833 64.9462 69.9183 64.7341 69.2027C64.5212 68.4608 64.1076 67.35 63.8173 66.6909C63.5269 66.0318 62.9818 64.9804 62.6114 64.3243C62.2142 63.6692 61.5097 62.6225 61.0057 61.9711C60.5016 61.3196 59.4755 60.258 58.7577 59.6139C58.0132 58.9706 56.9977 58.2572 56.5351 58.0322C56.0461 57.8085 55.4246 57.6153 55.1573 57.6245Z" fill="white"/>
<path fill-rule="evenodd" clip-rule="evenodd" d="M159.263 51.1458C159.375 51.1466 160.36 51.8599 161.457 52.7554C162.531 53.6281 164.102 54.9378 164.957 55.6843C165.812 56.4039 166.953 57.7022 167.491 58.5399C168.028 59.3775 168.716 60.7201 169.012 61.5127C169.457 62.7816 169.556 64.0916 169.848 72.5353C170.058 78.5753 170.09 82.5899 169.935 83.5059C169.8 84.2601 169.314 85.6958 168.868 86.6747C168.445 87.6529 167.315 89.7798 166.357 91.4451C165.425 93.1101 163.494 96.0939 162.066 98.1236C160.666 100.151 159.366 101.99 159.187 102.238C158.907 102.622 158.826 102.625 158.413 102.292C158.165 102.086 156.714 100.369 155.232 98.5207C153.75 96.6721 152.067 94.4284 150.458 91.9954L150.083 81.17C149.865 74.8893 149.576 69.6799 149.357 68.7496C149.193 67.8727 148.968 66.7841 148.873 66.3591C148.715 65.6687 148.942 65.231 150.836 62.784C151.987 61.2722 153.98 58.554 155.255 56.7437C156.529 54.9615 157.701 53.2898 157.91 53.0659C158.09 52.8459 158.446 52.3242 158.646 51.916C158.871 51.4804 159.129 51.1507 159.263 51.1458ZM157.019 59.7871C156.779 59.7966 156.559 60.4204 156.414 61.6287C156.261 62.6249 156.108 65.1722 156.049 67.3145C155.963 69.4588 156.018 74.1134 156.142 77.6948C156.271 81.4101 156.494 84.7491 156.71 85.5713C156.896 86.3143 157.451 87.6594 157.934 88.4989C158.419 89.3652 159.706 90.9264 160.786 91.9861L162.723 93.9262C163.168 92.0914 163.44 89.9137 163.586 87.9285C163.773 85.6206 163.784 81.311 163.66 76.1504C163.44 69.0669 163.343 67.8107 162.898 66.5417C162.63 65.7485 162.027 64.5662 161.577 63.9126C161.126 63.2593 159.987 62.0657 159.076 61.2676C158.139 60.4445 157.208 59.7812 157.019 59.7871Z" fill="white"/>
<path d="M231.625 92.647C231.716 92.621 232.151 92.8417 232.607 93.1334C233.064 93.4252 233.554 93.63 233.68 93.5931C233.787 93.5611 234.173 93.6793 234.539 93.8622C234.894 94.0682 235.766 94.5103 236.487 94.8403C237.604 95.3836 237.765 95.5306 237.66 95.8344C237.582 96.0331 237.116 96.5603 236.647 97.011C236.16 97.4671 235.62 97.8804 235.459 97.9291C235.285 98.0003 235.02 97.9636 234.875 97.8705C234.731 97.7772 234.164 97.0494 233.628 96.2355C233.094 95.422 232.503 94.5476 232.31 94.2926C232.118 94.0386 231.847 93.7874 231.737 93.7423C231.577 93.6863 231.569 93.6368 231.712 93.5944C231.873 93.5465 231.861 93.3742 231.722 93.104C231.594 92.8697 231.553 92.6684 231.625 92.647Z" fill="white"/>
<path fill-rule="evenodd" clip-rule="evenodd" d="M222.852 61.8512C224.179 61.8612 225.751 61.8999 226.314 61.9365C226.875 61.9543 228.727 61.9847 230.426 61.9818C232.127 61.9789 234.257 61.9982 235.194 62.0218C236.522 62.0691 237.237 62.1932 238.581 62.6694C239.527 63.0101 241.233 63.6787 242.371 64.1804C243.51 64.6823 244.918 65.4361 245.475 65.8647C246.032 66.2933 246.576 66.9099 246.68 67.2052C246.803 67.5184 246.818 68.0039 246.756 68.3232C246.672 68.6248 246.431 69.1741 246.182 69.5372C245.951 69.9 245.3 70.5575 244.756 70.9869C244.21 71.4164 243.167 72.0499 242.469 72.4101C241.771 72.7702 240.685 73.2562 240.076 73.4827C239.467 73.7279 238.229 74.1449 237.306 74.4381C236.38 74.7129 235.066 75.0766 234.343 75.2323C233.451 75.4126 230.579 75.6051 225.112 75.7947C219.979 75.9911 216.583 76.2886 215.88 76.357C215.22 76.3798 213.669 76.3786 213.41 76.4436C213.362 75.0799 212.91 63.5041 212.859 62.0284L216.632 61.9178C218.723 61.864 221.524 61.8226 222.852 61.8512ZM234.878 63.6941C234.626 63.4604 233.577 63.4579 227.46 63.7074C223.522 63.8626 219.973 63.949 219.559 63.9073C219.147 63.8656 218.643 63.865 218.42 63.9286C218.162 63.9938 218.002 64.223 217.922 64.6175C217.877 64.9545 217.835 65.3659 217.842 65.5529C217.847 65.7208 217.989 65.9967 218.143 66.1406C218.395 66.374 219.745 66.3644 228.007 66.0779C233.251 65.8774 238.705 65.7448 240.089 65.7715C242.241 65.8275 242.595 65.7961 242.419 65.5782C242.32 65.432 241.597 65.0662 240.858 64.7561C239.929 64.3776 238.854 64.1158 237.559 63.9739C236.489 63.8431 235.517 63.8023 235.405 63.862C235.276 63.9219 235.033 63.8375 234.878 63.6941Z" fill="white"/>
<path d="M228.959 27.2031C228.95 27.4115 228.674 28.2118 228.328 28.9753C227.984 29.7406 226.789 32.6641 225.698 35.458C224.59 38.2492 223.194 41.7216 222.58 43.1706C221.988 44.6053 221.402 46.0991 221.283 46.4553C221.063 47.0937 221.087 47.1574 221.855 47.8278C222.52 48.4368 222.635 48.6154 222.528 49.0884C222.462 49.3794 222.416 49.9234 222.451 50.2756C222.492 50.6867 222.653 50.9919 222.956 51.1751C223.361 51.4193 223.813 51.3677 226.053 50.8593C227.49 50.5142 229.616 49.923 230.762 49.5121C231.906 49.1011 233.649 48.4229 234.645 47.997C235.64 47.5713 237.055 46.9919 237.809 46.7031C238.564 46.4144 239.01 46.3046 238.823 46.454C238.636 46.6031 238.136 46.9489 237.727 47.2388C237.297 47.5247 236.272 48.2503 235.449 48.8485C234.606 49.4426 232.641 50.8541 231.085 51.9759C229.513 53.0938 228.072 54.1266 227.886 54.2758C227.64 54.4306 227.563 54.605 227.67 54.7249C227.759 54.8406 228.573 54.9663 229.648 55.0367C230.655 55.0728 231.546 55.1983 231.598 55.3059C231.654 55.3951 231.523 55.5563 231.289 55.6563C231.053 55.7751 229.544 56.1801 227.926 56.5611C226.305 56.9601 224.454 57.4417 223.797 57.6378C223.158 57.8381 222.495 57.9746 222.348 57.9416C222.13 57.8922 222.133 57.6253 222.763 55.2632L221.788 55.0807C221.271 55.0021 220.59 54.9635 220.277 54.9887C219.98 55.0363 219.716 55.0144 219.674 54.9474C219.633 54.8785 219.979 54.1924 220.436 53.4364C220.893 52.6792 221.25 52.033 221.235 52.0106C221.22 51.9879 220.965 51.8531 220.69 51.7147C220.314 51.5152 220.201 51.5093 220.255 51.6934C220.317 51.8412 220.219 51.9336 220.015 51.9066L219.692 51.832C219.569 51.8018 219.442 51.7689 219.345 51.7374C219.093 51.6616 218.719 51.8824 218.059 52.5169C217.546 53.0127 217.094 53.4852 217.033 53.5869C216.971 53.6877 216.89 53.7071 216.848 53.6402C216.787 53.5647 216.807 52.6339 216.898 51.5482C216.973 50.4563 216.953 49.4384 216.873 49.2856C216.736 49.0441 216.663 49.0279 216.453 49.191C216.315 49.2941 215.776 50.071 215.247 50.8886L214.505 52.0345C214.293 52.3616 214.132 52.6074 214.075 52.6901C213.923 52.9425 213.778 52.7368 213.284 51.6121C212.958 50.8503 212.607 50.1975 212.517 50.177C212.408 50.1524 212.264 50.6178 212.15 51.3763C212.049 52.0801 211.876 53.4369 211.772 54.4078C211.65 55.3738 211.475 56.2335 211.387 56.2919C211.293 56.3663 210.956 56.1563 210.663 55.8415C210.367 55.5454 210.031 55.0871 209.93 54.8542C209.825 54.6392 209.631 54.1354 209.505 53.7628C209.378 53.389 208.742 51.9644 208.098 50.5768C207.455 49.1883 206.789 47.6409 206.6 47.1202C206.412 46.5994 206.124 45.7507 205.626 44.2233L206.098 44.4245C206.377 44.5451 206.944 44.922 207.4 45.2734C207.843 45.6027 208.404 45.9977 208.647 46.1102C208.889 46.2221 209.181 46.2876 209.307 46.2394C209.434 46.1915 209.617 45.9657 209.748 45.7277C209.86 45.4852 209.933 45.0799 209.898 44.8043C209.883 44.5326 209.805 43.5203 209.715 42.563C209.643 41.6093 209.426 39.0935 209.228 37.0024C209.03 34.9189 208.889 33.1709 208.9 33.1035C208.895 33.045 209.048 33.2124 209.204 33.4579C209.359 33.703 209.491 33.9632 209.457 34.0322C209.44 34.1351 210.016 36.5748 210.713 39.4982C211.433 42.4143 212.163 45.1222 212.33 45.4866C212.508 45.8899 213.107 46.5419 213.656 46.991C214.436 47.6066 214.727 47.7679 214.858 47.6066C214.96 47.4951 215.124 47.1112 215.202 46.7658C215.28 46.4198 215.52 45.6905 215.735 45.1654C215.967 44.6442 216.261 43.8493 216.418 43.4065C216.559 42.9593 217.42 41.0878 218.333 39.2477C219.228 37.4032 220.146 35.3726 220.363 34.7518C220.58 34.1313 220.876 33.5849 221.016 33.5592C221.154 33.5334 221.285 33.5446 221.327 33.6112C221.37 33.6781 221.259 34.5142 221.081 35.4687C220.923 36.4272 220.77 37.444 220.762 37.73C220.764 38.1507 220.867 38.2888 221.213 38.3669C221.613 38.4573 221.76 38.318 222.399 37.3529C222.792 36.7148 223.333 35.8424 223.613 35.3701C223.869 34.9114 224.321 34.0949 224.608 33.5859C224.823 33.2039 225.178 32.6388 225.493 32.1721L226.085 31.3246C226.4 30.8578 226.754 30.2926 226.969 29.9108C227.256 29.4019 227.714 28.6443 227.999 28.2305C228.283 27.8165 228.603 27.3338 228.739 27.1538L228.949 26.8193L228.959 27.2031Z" fill="white"/>
<path d="M237.155 49.8745C237.36 49.8745 237.322 49.949 237.06 50.1357C236.855 50.2666 235.94 50.6956 235.006 51.0871C234.073 51.4789 233.065 51.7773 232.766 51.7587C232.467 51.7587 232.112 51.6654 232.018 51.5535C231.887 51.423 231.962 51.367 232.261 51.367C232.485 51.367 233.196 51.1618 233.83 50.9192C234.484 50.6767 235.305 50.4157 235.661 50.3409C236.016 50.2663 236.444 50.1357 236.594 50.0424C236.743 49.9493 237.005 49.8746 237.155 49.8745Z" fill="white"/>
<path d="M235.511 36.7919C235.587 36.7922 236.184 36.9228 236.855 37.0904C237.528 37.2583 238.557 37.6498 240.219 38.4709L239.863 38.9745C239.656 39.2735 238.723 40.2619 237.752 41.1759C236.8 42.0901 235.342 43.5276 234.521 44.3486C233.699 45.1693 232.877 45.9155 232.69 45.9903C232.522 46.0647 232.392 46.0647 232.43 45.9716C232.467 45.8959 232.784 45.2059 233.156 44.4419C233.53 43.6769 234.092 41.9597 234.427 40.6162C234.745 39.2734 235.08 37.8743 235.194 37.5008V37.4821C235.286 37.1089 235.437 36.7919 235.511 36.7919Z" fill="white"/>
</svg>
